<svg height="1024" stroke-miterlimit="10" style="fill-rule:nonzero;clip-rule:evenodd;stroke-linecap:round;stroke-linejoin:round" viewBox="0 0 1024 1024" width="1024" xml:space="preserve" xmlns="http://www.w3.org/2000/svg"><path d="M0 256C0 114.615 114.615 0 256 0h512c141.385 0 256 114.615 256 256v512c0 141.385-114.615 256-256 256H256C114.615 1024 0 909.385 0 768z" fill="#3d6c5f"/><path d="m693.716 322.728 9.004 7.003v-28.012h76.031c.136 43.117.017 75.233.715 305.183.699 229.951-296.235 127.079-298.838 124.994 1.328-10.614 18.585-67.115 20.693-75.42 1.32 0 201.705 102.96 201.399-76.642-.005-2.678-6.103 4.294-20.265 14.091-14.162 9.796-19.426 10.807-20.69 11.4-32.218 14.413-70.231 12.775-103.574 2.692-42.185-16.564-72.768-49.279-91.69-89.81-16.619-38.905-15.075-84.043-.832-123.316 8.231-19.881 18.665-37.086 32.967-53.155l3.798-4.299c10.107-10.767 21.461-18.373 34.217-25.714l4.729-2.813c50.055-27.594 107.596-18.626 152.336 13.818M421.432 301.72c1.282 4.539 6.546 57.042 6.546 57.042s-101.932 20.035-102.418 96.633c-.016 2.577-.062 17.642-.062 17.642s.204 119.319.062 134.813h-80.03V301.724h80.033l-.003 48.068s29.462-48.555 95.872-48.072" fill="#cee4d3"/><path d="M665.206 385.252c16.998 13.939 28.768 30.771 33.514 52.522 1.73 28.618-.036 50.869-19.501 73.452-16.786 17.048-37.486 26.504-61.533 27.589-21.44-.969-39.551-8.228-55.022-23.009l-3.416-3.244c-14.922-15.753-22.268-37.552-22.728-58.969.938-23.877 8.717-42.306 25.37-59.454 28.811-26.454 70.35-31.957 103.316-8.887" fill="#3d6c5f"/></svg>