<?xml version="1.0" encoding="UTF-8"?>
<svg version="1.1" xmlns="http://www.w3.org/2000/svg" width="500" height="500" viewBox="750 350 300 500">
<path d="M0 0 C403.26 0 806.52 0 750 0 C750 403.26 750 806.52 750 1000 C818.74 1000 415.48 1222 0 1222 C0 818.74 0 415.48 0 0 Z " fill="#3d6c5f" transform="translate(500,0)"/>
<path d="M0 0 C1.485 1.155 2.97 2.31 4.5 3.5 C4.5 -1.12 4.5 -5.74 4.5 -10.5 C17.04 -10.5 29.58 -10.5 42.5 -10.5 C42.56783489 11.04957916 42.62305032 32.59907129 42.65543652 54.14873028 C42.6708766 64.15558901 42.69191121 74.16237648 42.72631836 84.16918945 C42.7563085 92.8955755 42.77559576 101.6219099 42.78226548 110.34834605 C42.78616151 114.96489249 42.79525754 119.58129125 42.81719017 124.19779015 C42.83770756 128.5521009 42.84380331 132.90620458 42.83932304 137.26055908 C42.84014148 138.84992922 42.84601563 140.43930702 42.85761642 142.02863503 C43.01578292 164.83613963 36.2519452 183.32704532 20.3046875 199.78125 C9.06763038 210.67399618 -6.40969658 217.80996442 -21.5 221.5 C-22.80130859 221.83644531 -22.80130859 221.83644531 -24.12890625 222.1796875 C-51.46389368 227.98886969 -78.83537568 221.39642558 -102.5 207.5 C-103.85445459 206.52879944 -105.19918361 205.54194746 -106.5 204.5 C-105.83647013 199.19481877 -104.75465893 194.11896434 -103.43359375 188.94140625 C-103.13606956 187.75767677 -103.13606956 187.75767677 -102.83253479 186.55003357 C-102.20419369 184.05333352 -101.57093063 181.55791309 -100.9375 179.0625 C-100.50813649 177.3601085 -100.07909678 175.65763529 -99.65039062 173.95507812 C-98.60400219 169.80243132 -97.5532006 165.65092409 -96.5 161.5 C-95.84 161.5 -95.18 161.5 -94.5 161.5 C-93.45244255 162.64576596 -92.46190283 163.8439356 -91.5 165.0625 C-87.42103562 169.85379911 -82.81697701 173.1843094 -77.5 176.5 C-76.88769531 176.89058594 -76.27539062 177.28117188 -75.64453125 177.68359375 C-61.12330382 185.921906 -42.88365839 186.53812693 -27.09570312 182.3347168 C-16.04864394 179.06594145 -7.73804209 172.87613433 -1.96484375 162.828125 C3.52643881 151.49334935 3.77522251 140.82385246 3.5 128.5 C2.95214844 128.99628906 2.40429688 129.49257813 1.83984375 130.00390625 C-3.16905716 134.29608638 -8.17166088 137.60393968 -14.125 140.375 C-15.0377771 140.80341187 -15.0377771 140.80341187 -15.96899414 141.24047852 C-32.07135721 148.44388305 -51.06986934 147.62520418 -67.734375 142.5859375 C-88.81827211 134.30723214 -104.10372542 117.95626059 -113.56054688 97.69921875 C-121.86679437 78.25465602 -121.09524542 55.69482144 -113.9765625 36.06640625 C-109.86272548 26.13007503 -104.64792951 17.53107139 -97.5 9.5 C-96.56027344 8.43652344 -96.56027344 8.43652344 -95.6015625 7.3515625 C-90.55021151 1.97032736 -84.87554795 -1.83113743 -78.5 -5.5 C-77.72011719 -5.9640625 -76.94023438 -6.428125 -76.13671875 -6.90625 C-51.11925648 -20.69738887 -22.36072101 -16.2151293 0 0 Z " fill="#CEE4D3" transform="translate(992.5,513.5)"/>
<path d="M0 0 C2.52345692 8.93551959 5.02074491 17.87680139 7.3125 26.875 C7.63863281 28.15117188 7.96476563 29.42734375 8.30078125 30.7421875 C9 34 9 34 9 38 C7.98421875 37.96519531 6.9684375 37.93039062 5.921875 37.89453125 C-8.13266112 37.55508283 -20.41787006 39.2493567 -31.2578125 49.0390625 C-43.57715838 61.90391447 -43.29515375 79.03816767 -43.4140625 95.796875 C-43.43281347 97.48367213 -43.45238967 99.17046027 -43.4727478 100.85723877 C-43.5236606 105.25633394 -43.56350249 109.65545938 -43.60089111 114.0546875 C-43.64829849 119.35471257 -43.70971804 124.65459226 -43.76873779 129.95449829 C-43.85645079 137.96960551 -43.92657143 145.98469196 -44 154 C-58.52 154 -73.04 154 -88 154 C-88 103.51 -88 53.02 -88 1 C-74.8 1 -61.6 1 -48 1 C-47.505 12.88 -47.505 12.88 -47 25 C-44.69 22.03 -42.38 19.06 -40 16 C-29.08976973 4.17262253 -15.76250204 -0.52155338 0 0 Z " fill="#CEE4D3" transform="translate(857,502)"/>
<path d="M0 0 C8.49538005 6.9665591 14.37817099 15.3792229 16.75 26.25 C17.61470774 40.55311649 16.73205151 51.67413913 7.00390625 62.9609375 C-1.38596323 71.48167149 -11.73133202 76.20767292 -23.75 76.75 C-34.46589048 76.26575422 -43.51751875 72.63742123 -51.25 65.25 C-52.09498047 64.44755859 -52.09498047 64.44755859 -52.95703125 63.62890625 C-60.41504529 55.75550914 -64.08664621 44.86036496 -64.31640625 34.15625 C-63.84758835 22.22270339 -59.95963327 13.01194467 -51.63671875 4.44140625 C-37.2372364 -8.77972239 -16.47633842 -11.53028655 0 0 Z " fill="#3d6c5f" transform="translate(978.25,544.75)"/>
</svg>
