<svg xmlns="http://www.w3.org/2000/svg" width="244" height="329" style="shape-rendering:geometricPrecision;text-rendering:geometricPrecision;image-rendering:optimizeQuality;fill-rule:evenodd;clip-rule:evenodd">
    <path fill="#801b28" d="m219 107 1 2a86286 86286 0 0 0 11 28 374 374 0 0 0-41-15c-2-2-3-3-5-2-2-2-3-3-5-2-2-2-3-3-5-2l-25-10 3-8 8-19a575 575 0 0 0 13-25 307 307 0 0 0 31-38l1-1 3-3c4 28 6 57 5 87l5 8ZM41 16l1 1c2 4 6 8 10 12a307 307 0 0 0 25 32 573 573 0 0 0 20 46c-9 3-18 6-25 10-3-1-4 0-5 2-3-1-4 0-5 2-3-1-4 0-5 2-3-1-4 0-5 2a374 374 0 0 0-36 13 74689 74689 0 0 0 17-38c-2-30 0-59 5-87l3 3Z" style="opacity:.955"/><path fill="#fe0000" d="m206 15-1 1c-2-1-2-2 0-3l1 2ZM42 17l-1-1c0-3 0-3 2 0l-1 1ZM195 28c-1-2-1-2 0 0ZM53 29c-1-2-1-2 0 0Z" style="opacity:.004"/><path fill="#7e0000" d="M194 28c-1 0-1 0 0 0ZM53 29l1 1-1-1Z" style="opacity:.008"/><path fill="#fe0000" d="M193 29c-1 0-1 0 0 0ZM54 30l1 1-1-1ZM192 30c-1 0-1 0 0 0ZM55 31c1 0 1 0 0 0ZM180 44c1 0 1 0 0 0ZM67 46c-1-2-1-2 0 0ZM180 45c-1 0-1 0 0 0ZM67 46l1 1-1-1ZM179 46c-1 0-1 0 0 0ZM68 47c1 0 1 0 0 0ZM174 54c-1-2-1-2 0 0ZM74 55c-1-2-1-2 0 0Z" style="opacity:.004"/><path fill="#801b28" d="M164 60v3c-1 0-2 1-1 2-3 3-5 7-5 12-2 1-3 4-3 7-3 4-5 9-6 14l-7 13a94 94 0 0 1-9 9c-3 0-5 2-6 5l-1 1-1 1-3 1-18-16-6-13-6-14-3-7-5-12-1-2v-3l24-7h34l23 6Z" style="opacity:.966"/><path fill="#7e0000" d="M173 54c-1 0-1 0 0 0ZM74 55l1 1-1-1Z" style="opacity:.008"/><path fill="#fe0000" d="M172 55c-1 0-1 0 0 0ZM75 56c1 0 1 0 0 0ZM164 59c1 0 1 0 0 0ZM83 61c-1-2-1-2 0 0ZM166 63c1 0 1 0 0 0ZM80 64c1 0 1 0 0 0Z" style="opacity:.004"/><path fill="#d20002" d="M164 63v2-2ZM83 64v2c-2-1-2-2 0-2Z" style="opacity:.004"/><path fill="#e10000" d="M163 65h1c-1 2-1 2-1 0ZM83 66h1c-1 2-1 2-1 0Z" style="opacity:.004"/><path fill="#fe0000" d="M162 68c1 0 1 0 0 0ZM84 69c1 0 1 0 0 0ZM160 73c1 0 1 0 0 0ZM86 74c1 0 1 0 0 0ZM159 75c1 0 1 0 0 0ZM87 76c1 0 1 0 0 0ZM158 77c1 0 1 0 0 0ZM89 78c-1 0-1 0 0 0ZM161 79c-1-2-1-2 0 0ZM86 79c1 0 1 0 0 0ZM157 80c1 0 1 0 0 0ZM159 80c1 0 1 0 0 0ZM87 81c1 0 1 0 0 0ZM89 81c1 0 1 0 0 0ZM156 82c1 0 1 0 0 0ZM158 82c1 0 1 0 0 0ZM88 83c1 0 1 0 0 0ZM90 83c1 0 1 0 0 0ZM155 84c1 0 1 0 0 0ZM92 85c-1 0-1 0 0 0ZM152 92c1 0 1 0 0 0ZM94 93c1 0 1 0 0 0ZM153 94c1 0 1 0 0 0ZM93 95c1 0 1 0 0 0Z" style="opacity:.004"/><path fill="#d20002" d="M152 96h-1c0-3 0-3 1 0ZM96 97h-1c0-3 0-3 1 0Z" style="opacity:.004"/><path fill="#fe0000" d="m152 96 1 2-1-2ZM95 97l-1 2c-1-1 0-2 1-2Z" style="opacity:.004"/><path fill="#d20002" d="m151 96-1 2c-1-1 0-2 1-2ZM96 97l1 2-1-2Z" style="opacity:.004"/><path fill="#e10000" d="M149 98h1c-1 2-1 2-1 0Z" style="opacity:.004"/><path fill="#fe0000" d="M151 99c1 0 1 0 0 0ZM95 100c1 0 1 0 0 0Z" style="opacity:.004"/><path fill="#e10000" d="M97 99h1c-1 2-1 2-1 0Z" style="opacity:.004"/><path fill="#fe0000" d="M148 101c1 0 1 0 0 0ZM150 101c1 0 1 0 0 0ZM96 102c1 0 1 0 0 0ZM98 102c1 0 1 0 0 0ZM146 106c1 0 1 0 0 0ZM219 106c1 0 1 0 0 0ZM28 108c-1-2-1-2 0 0ZM100 107c1 0 1 0 0 0ZM145 108c1 0 1 0 0 0ZM220 108c1 0 1 0 0 0ZM27 110c-1-2-1-2 0 0ZM101 109c1 0 1 0 0 0ZM153 109c1 0 1 0 0 0ZM93 110c1 0 1 0 0 0Z" style="opacity:.004"/><path fill="#7e0000" d="M144 110c1 0 1 0 0 0ZM155 110c1 0 1 0 0 0ZM91 111c1 0 1 0 0 0ZM102 111c1 0 1 0 0 0Z" style="opacity:.008"/><path fill="#801b28" d="m157 112 80 32c2 1 3 3 1 5-2 0-2 0 0 1-3 2-5 4-6 8-2 0-2 0 0 1-3 2-5 4-6 8-1 0-2 1-2 3-2 0-2 0 0 1l-16 21c-7 4-13 8-18 14-5 1-8 4-10 8l-10 16c-2 16-4 33-8 50l-1-1a1321 1321 0 0 1-11 29c-2-1-4 0-6 1l3-117c5-1 10 0 16 1l14-6 1-2 1-2 1-2 6-12 1-2 1-2c-1-1-2 0-2 1-5 1-10 3-13 7-3 0-5 1-6 3-1-1-2 0-2 1-1-1-2 0-2 1-3 0-6 2-8 4-3 0-5 1-7 3l-1-1 4-74 6 2Zm29 54c0-1 1-2 2-1l-1 2-1-1Z" style="opacity:.956"/><path fill="#fe0000" d="M157 111c1 0 1 0 0 0ZM90 113c-1-2-1-2 0 0Z" style="opacity:.004"/><path fill="#801b28" d="m100 185-1 1-7-3-8-4-2-1-2-1-6-3c-4-4-9-6-13-7l-2-1 1 2 1 2 6 12 1 2 1 2 1 2 14 6c5-1 10-2 16-1l2 117c-2-1-4-2-5-1l-4-10-8-19-1 1c-4-17-6-34-8-50l-9-16c-3-4-6-7-10-8-6-6-12-10-18-14a877 877 0 0 1-30-47 4507 4507 0 0 0 86-35l5 74Zm-41-19 2 1-1 1-1-2Z" style="opacity:.956"/><path fill="#fe0000" d="M143 112c1 0 1 0 0 0ZM160 112c1 0 1 0 0 0ZM86 113c1 0 1 0 0 0ZM104 114c-1-2-1-2 0 0ZM143 113c-1 0-1 0 0 0ZM104 114c1 0 1 0 0 0ZM141 115c1 0 1 0 0 0ZM171 115c1 0 1 0 0 0ZM75 116c1 0 1 0 0 0Z" style="opacity:.004"/><path fill="#801b28" d="m141 313-1 1c-7 2-12 5-18 9l-15-8a1236 1236 0 0 1-3-103l-3-96 9 6 13 11 14-12 8-6 1 6-5 192Z" style="opacity:.964"/><path fill="#fe0000" d="M105 116c1 0 1 0 0 0ZM175 116c-1 0-1 0 0 0ZM72 117c1 0 1 0 0 0ZM139 117c1 0 1 0 0 0ZM176 117v2-2ZM70 118v2-2ZM107 118c1 0 1 0 0 0ZM139 118c-1 0-1 0 0 0Z" style="opacity:.004"/><path fill="#7e0000" d="M180 118c-1 0-1 0 0 0ZM67 119c1 0 1 0 0 0Z" style="opacity:.008"/><path fill="#fe0000" d="M110 119c1 0 1 0 0 0ZM134 119c1 0 1 0 0 0ZM138 119c-1 0-1 0 0 0ZM181 119c1 0 1 0 0 0ZM65 120c1 0 1 0 0 0ZM110 120v1-1Z" style="opacity:.004"/><path fill="#a90000" d="M133 120h1-1Z" style="opacity:.012"/><path fill="#fe0000" d="M137 120v1-1ZM185 120c-1 0-1 0 0 0ZM62 121c1 0 1 0 0 0ZM110 121c1 0 1 0 0 0ZM133 122c1 0 1 0 0 0ZM190 122c-1 0-1 0 0 0ZM57 123l1 1-1-1ZM116 124c-1-2-1-2 0 0ZM130 123c1 0 1 0 0 0ZM133 123c-1 0-1 0 0 0ZM189 123c-1 0-1 0 0 0ZM191 123c1 0 1 0 0 0ZM55 124c1 0 1 0 0 0ZM58 124c1 0 1 0 0 0ZM115 124c-1 0-1 0 0 0ZM116 124l1 1-1-1ZM130 124c-1 0-1 0 0 0ZM195 124c-1 0-1 0 0 0ZM52 125l1 1-1-1ZM117 125c1 0 1 0 0 0ZM127 125c1 0 1 0 0 0ZM194 125c-1 0-1 0 0 0ZM53 126c1 0 1 0 0 0Z" style="opacity:.004"/><path fill="#7e0000" d="M126 126h1-1Z" style="opacity:.008"/><path fill="#d20002" d="M195 127c0-2 1-2 2-1l-2 1Z" style="opacity:.004"/><path fill="#fe0000" d="M200 126c-1 0-1 0 0 0ZM47 127l1 1-1-1Z" style="opacity:.004"/><path fill="#a70003" d="M50 128c0-2 1-2 2-1l-2 1Z" style="opacity:.008"/><path fill="#7e0000" d="M125 127h1v1l-1-1Z" style="opacity:.008"/><path fill="#fe0000" d="M199 127c-1 0-1 0 0 0ZM48 128c1 0 1 0 0 0Z" style="opacity:.004"/><path fill="#7e0000" d="M122 128c-1 0-1 0 0 0Z" style="opacity:.008"/><path fill="#fe0000" d="M126 128c1 0 1 0 0 0ZM200 128c1 0 1 0 0 0ZM46 129c1 0 1 0 0 0ZM121 129v1-1ZM126 129c-1 0-1 0 0 0ZM121 130c1 0 1 0 0 0ZM205 130c1 0 1 0 0 0ZM41 131c1 0 1 0 0 0ZM238 149c1 0 1 0 0 0ZM232 158c1 0 1 0 0 0ZM226 167c1 0 1 0 0 0ZM21 168c-1 0-1 0 0 0Z" style="opacity:.004"/><path fill="#7e0000" d="M186 169c-1-2-1-2 0 0ZM61 169c1 0 1 0 0 0Z" style="opacity:.008"/><path fill="#fe0000" d="M224 170c1 0 1 0 0 0ZM175 172c1 0 1 0 0 0ZM71 173c1 0 1 0 0 0ZM173 173c1 0 1 0 0 0ZM74 174c-1 0-1 0 0 0ZM181 175c1 0 1 0 0 0ZM65 176c1 0 1 0 0 0ZM167 176c1 0 1 0 0 0ZM80 177c-1 0-1 0 0 0ZM165 177c1 0 1 0 0 0ZM180 177c1 0 1 0 0 0ZM66 178c1 0 1 0 0 0ZM82 178c-1 0-1 0 0 0ZM163 178c1 0 1 0 0 0ZM84 179c-1 0-1 0 0 0ZM180 181l-2-1c0-1 1-1 2 1ZM67 182c0-2 1-2 2-1l-2 1ZM155 182c1 0 1 0 0 0Z" style="opacity:.004"/><path fill="#a70003" d="m179 183-2-1c0-1 1-1 2 1Z" style="opacity:.008"/><path fill="#d20002" d="M68 184c0-2 1-2 2-1l-2 1Z" style="opacity:.004"/><path fill="#fe0000" d="M92 183v1-1ZM155 183c-1 0-1 0 0 0ZM92 184c1 0 1 0 0 0ZM147 184l1 1c-2 1-3 0-1-1Z" style="opacity:.004"/><path fill="#7e0000" d="M178 185c-1-2-1-2 0 0ZM69 185c1 0 1 0 0 0Z" style="opacity:.008"/><path fill="#fe0000" d="m99 186 1-1c1 1 0 2-1 1ZM170 188c1 0 1 0 0 0ZM76 189c1 0 1 0 0 0ZM165 190c1 0 1 0 0 0ZM81 191c1 0 1 0 0 0ZM208 192c1 0 1 0 0 0ZM39 193v1-1ZM208 193c-1 0-1 0 0 0ZM39 194c1 0 1 0 0 0ZM190 206c1 0 1 0 0 0ZM57 207v1-1ZM190 207c-1 0-1 0 0 0ZM57 208c1 0 1 0 0 0ZM182 212c1 0 1 0 0 0ZM65 214c-1-2-1-2 0 0ZM182 213c-1 0-1 0 0 0ZM65 214l1 1-1-1ZM180 214h1-1ZM66 215h1-1ZM154 298v2-2ZM93 299l-1 2c-1-1-1-2 1-2ZM153 301c1 0 1 0 0 0ZM93 302c1 0 1 0 0 0Z" style="opacity:.004"/><path fill="#7e0000" d="M141 313c1 0 1 0 0 0Z" style="opacity:.008"/><path fill="#fe0000" d="M140 314h1-1ZM107 315c-1 0-1 0 0 0Z" style="opacity:.004"/>
</svg>