<svg xmlns="http://www.w3.org/2000/svg">
  <defs>
    <!-- happy_lungs icon -->
    <symbol id="happy_lungs" viewBox="0 0 496 496">
      <path d="M123 339c0 9 4 16 5 24l-1 3c-4-1-2-6-4-9-2 1-1 6-4 7-3-5 1-8 1-12-2-1-3 1-5-1 2-3 9-5 4-11-5 5-8 12-15 15l-2-2 14-16c-4-2-6 2-10 0 3-6 13-1 15-9 0-2-3-1-4-3 0-2 2-2 3-1 4 1 8-1 12-2 15-4 23-16 30-29 5-9 5-19 1-29-4-12-4-12-15-5-4 3-5 5-5 10 0 9 0 18 4 27 2 3 2 8-1 12-3-4 0-9-3-12l-9 15c-1-10 9-17 5-27-11 5-9 18-13 27-3-2-1-5-2-6-3-1-4 2-7 1 0-6 9-4 9-10-2-1-3 1-5-1 8-7 20-12 16-27-4 2-6 6-8 9l-14 20c-3 4-2 9-1 13 2 5 1 11 0 16-1 1-1 2-4 2 2-8 3-15-1-23-2 0-4 1-4 4-1 8-6 15-1 24 1 3 1 7-1 11-4-5 0-11-5-15-6 5-8 13-12 20-3-5 2-8 1-11-3-2-6 2-10-1 10-3 18-6 20-16-5-1-9 3-14 5-1-4 1-4 2-5l8-3c5-1 8-4 7-10l-18 5c-4 1-4 5-5 8-1 5-4 10-9 12 1-6 8-11 7-18-6 1-12 4-19 1 3-3 7-2 11-4-1-2-5-1-6-4 3-3 5-1 8 1s6 2 9-1c-4-6-12-4-18-6 1-2 2-2 4-2 4 1 6-1 6-6l1-1c2 0 2 2 2 4s2 4 4 6c4 3 8 5 13 2l11-3c2 0 4-1 5-3l20-29c-10-5-20 1-23 11l-2 16c-3 0-3-3-4-4-4 0-6 4-11 4 1-5 5-5 8-6 4-2 6-5 5-10-3-2-7 1-10-1 3-4 8-2 11-4l9-9c-4-2-7-1-10 1l-14 8c-2 1-4 3-7 1 3-4 8-5 11-9-2-2-5 0-7-3 2-3 5-2 7-1 3 1 6 1 9-1 5-3 11-2 16-1 11 2 20 1 28-8l2-2c11-7 15-18 14-31-7 2-10 6-10 13 0 2 0 4-3 5-2-2 1-6-1-8-7 1-8 2-8 8 1 6-1 11-5 16-1-7 6-13 1-19-5 1-8 4-8 9v7c0 2 0 4-3 4-2-4 2-7 0-11-3 2-4 7-9 5 2-5 7-8 9-13-1-2-4 0-5-2 0-2 1-2 2-2 17-2 30-11 41-23 2-3 2-7 2-10-1-4-3-3-5-2-9 3-18 8-26 14-5 4-11 7-11 15 0 2 0 3-2 3-3-1 0-4-2-7-4 2-5 6-8 9-5 6-8 12-8 20 1 5-3 7-8 11 0-7 8-10 4-16-4 0-6 3-8 6l-12 18-2 6c-1 9-7 14-11 21h-3c1-8 12-12 9-22-5-1-8 1-10 7-1 3-3 6-7 5 1-3 5-5 5-9-3-2-5 1-8-1 0-2 2-2 4-3l6-1c11 0 19-10 23-22-14 0-23 13-37 13 5-5 13-6 17-11-4-7-13-6-19-10l12-6c8 14 11 15 21 10-3-5-9-2-13-3 0-3 3-2 4-4-2-3-6-4-7-7 2-2 4-1 5 0l5 5c7 7 18 8 25 0 5-4 8-10 11-15-4-2-7-2-10 0l-7 7c-2 2-3 4-5 3-1-3 3-4 3-7-1-1-4 0-4-3 2-2 4 0 6 0 3 0 4-2 6-4-5-3-12-4-17-1-2 1-2 4-3 6-1 5-1 5-5 7 0-4 3-7 1-11-9 1-14 11-25 10 5-4 11-5 15-10 0-2-3-2-3-4 4-2 7 3 11 1l12-4c-7-6-8-6-14-2l-10 3c-2 1-4 1-6-1 7-1 12-3 17-8-4-4-9-5-14-7 3-2 3-2 11 0 2-4-2-8-2-12 4 0 4 4 6 6 2 0 3-3 6-3 2 3 0 4-2 5-5 4-5 6 1 9 7 5 14 9 23 11 1-4-1-6-4-8l-9-2c-2-1-4-1-5-3 1-2 3 0 5-1 1-1-1-3 1-5 3 1 2 4 4 6l6 2c1-6-2-12-5-17 4-1 5 1 5 3l3 11 3 9c3 8 8 9 15 4l5-4c-4-4-10-1-15-3 5-4 9-3 13-2 7 2 9 1 14-5-10-4-21-4-31-1 2-4 6-3 9-6l-10-11c-2-2-4-2-7-1l-10 4c-2 0-4 2-7-1l18-7c-5-6-10-6-14-1-1 2-3 4-6 3 0-3 4-4 4-7-3-2-7 0-11-3 8-3 16 0 24 0 0-4-5-3-5-6 4-2 6 0 9 5 7 10 14 20 27 24h7c-2-3-3-6-6-8-3-1-6 0-9-3 2-2 4-1 5-1 2 0 4 0 5-3 0-3-1-5-3-6l-10-2c-2 0-4 0-6-4l18 3c0-5-6-7-7-13 6 2 9 6 11 11l4-2c2 2 1 4 0 4-5 4-4 9-3 14 3 9 11 13 19 9 18-8 16-3 24-24l8-19c-4-3-7-2-9 1l-5 6c-7 7-10 14-7 23 1 2 1 5-2 8-3-6-1-11-3-17-7 5-12 10-20 13-1-5 3-6 5-8 6-3 11-7 15-12-6-4-8 5-14 3 0-3 4-3 5-6-5-3-11-2-17-3 2-4 4-3 7-3l13 3c9 2 15-1 18-11-6-2-11-4-17-3-14 3-28 5-41 11-4 2-6 3-6 8 0 2 0 3-2 4l-1-1c-1-7-1-7-9-6-3 1-7 3-11 0 2-2 5-1 7-3-1-3-5-4-6-7 2-2 4 0 5 1 5 5 9 5 15 3 3-2 7-3 10-6-6-5-11 4-18 1 3-3 7-3 10-6-2-4-5-4-9-3-3 1-7 4-12 1 4-3 10-3 13-5 0-4-5-5-6-9 5-1 6 2 8 4l7 7c3-1 2-5 5-7 2 1 1 3 1 4-1 3-3 5-1 7 3 2 6 4 10 3 5 0 10-2 16-4-6-3-11-6-18-3 0-4 3-3 4-5-1-5-6-6-11-6 5-4 10-3 13 2 5 6 11 8 18 10h4c2-1 6-1 6-4 1-3 0-6-4-8l-9-3c-2-1-4-1-5 1-1 1-3 3-5 3-1-2 2-3 1-5-11-3-23 0-33-6 5-2 10 1 14 0 2-5-4-5-5-8 4-2 6 0 8 3l2 4c0 1 2 2 3 1 2 0 2-2 1-3-2-5-5-8-9-10-2-1-4-1-6-4 4-3 7 2 11 2 2-2 0-5 2-7 3 1 2 4 2 6-1 6 3 10 5 15l3 2 19 2c-1-13-13-11-20-15 5-2 10 1 15 1 2-6 1-8-4-11-4-3-9-4-14-6-2-1-5-2-7-5 2-2 4 1 6 1 2-1 1-3 3-3 2 2 2 7 7 6 2-4 0-7 1-11 4 2 3 5 3 8 0 4 1 7 6 8-1-8 1-17-7-23 2-2 4 0 5-1l3-5c3 6 0 13 2 19 4-1 6-5 8-8 2 3 1 5 0 6-9 7-7 15-6 24l13-16c3-4 0-12-5-14-3-2-7-3-8-7 4-1 6 3 9 3 2-4-1-9 3-14 3 9 1 18 5 25 6-7 6-10 2-17-2-3-3-6-1-10 4 3 2 9 7 11l4-13c3 2 2 4 2 6l-10 25-2 5c7 1 10 0 13-6l4-16c0-2 0-5 4-6l-6 26c5 0 9-2 11-6l8-10c1-2 2-3 5-2-7 9-11 20-24 22l-16 3c-11 3-17 15-13 25l8 14c1 2 3 4 5 4l20 1 3-2 19-28c-10 0-19 2-26 7-2 1-1 4-1 6 0 3 3 6 1 10-4-3-3-8-5-12-4 1-5 6-10 7 2-8 9-10 14-15l-9-3c-2 1-4 4-7 3 0-3 3-3 4-5-1-3-4-2-5-5h3l7 3c6 3 12 4 19 2 4-2 9-2 14-3 4 0 6-1 9-4l16-18 2-7-1-44c0-2 1-4 3-5 7-3 14-2 21 0 2 1 3 3 3 5-1 15 1 30 1 44l2 5 17 19c2 3 6 4 9 4 4 1 6-1 7-6 0-6 4-10 11-11 6-1 8 1 7 7 5 3 10 2 15 2l-8-15c-3-4-12-4-15-1-5 4-11 3-15-2-4-3-3-5 1-7l6-3c0-3-2-5-3-8-2-4-1-5 4-5 6 0 10 5 11 12 1 6 3 8 9 8-2-5-3-10-7-13-2-2-4-4-4-6-1-4-1-9 3-11s5 3 7 5l2 3c3-1 4-10 9-4h1c6-5 7-4 9 2 2 5 2 10-2 14-1 1-3 3-1 5h5c2-1 1-3 1-5-2-5 0-9 3-12 2-3 4-3 5 0l5 10 9-4c1-1 4-1 4 1 0 5 5 9 5 14 0 3 2 4 5 3l5 1c3 1 4 3 2 4-6 6-4 13-6 20 4 0 7-2 11-1 6 1 6 2 4 7l-1 2c4-1 8-3 13-2 2 4-2 7-3 11h10c3 1 3 3 1 5-2 4-5 7-9 10l15 5c6 1 7 2 3 7l-3 5c1 2 2 2 3 2 5 1 5 2 3 6-2 3-5 6-9 6-5 0-8 2-11 5 3 2 3 2 8-1 6-3 12-2 16 3 3 4 2 5-2 7-1 0-2 0-3 2 3 1 5-1 8-2 2 0 5 0 6 2 2 2 0 4-1 6-2 3-4 6-8 7s-5 3-5 8c4 1 6-2 8-4 5-5 11-5 16 0 3 2 3 4 0 6l-3 2c2 4-3 8-1 11s0 4-2 6c-3 1-6 2-9 1h-4c1 2 3 4 5 3 5-4 9 0 13 2 3 1 7 2 6 6-1 3-5 4-8 4s-6 1-8 5c2 1 3-1 3-1 5-3 11-2 15 2 1 2 1 4-1 5-3 2-6 4-9 2-7-2-12 3-19 4 3 3 5 4 8 3 7-2 11 2 16 5 2 2 2 3 0 4l-3 4 6 5c3 2 3 3 0 5-6 3-12 4-17 0h-3c0 2 2 2 4 2 6 2 8 7 10 13 1 2 0 3-2 3h-8c1 5-2 9-4 13 1 3 5 3 6 6-6 8-15 8-20 1-3-3-4-4-9-4-1 4 0 8 5 9 6 2 7 7 9 12 1 3-1 4-3 4-6 0-11 5-18 3 0 6-1 12-6 16l-5 2-15 2c0 3 1 6-1 9 0 2-1 4-3 5-2 0-3-2-4-3l-3-3-5 7c-1 1-2 3-4 2-4-1-5 1-6 4l-3 6c-7-4-11-9-10-18-3 1-2 2-2 4l1 8-4 8c-3 4-6 0-8-1-7-2-13-5-17-11-2 6-6 10-11 11-7 1-7-6-11-9-4 3-6 1-8-3l-1-2c-7-1-7-6-8-10 0-4-2-5-5-4-3 0-7 2-9-2-1-4 1-8 5-10l3-2c0-2-1-2-2-2-4-2-5-4-2-7l1-3c-3-4 0-7 2-11-5-2-5-5-3-9 1-2 1-4-2-5-3-3-2-5 1-7l8-6c-3-3-4-7-9-7-3 0-3-2-3-4-1-4 1-8 4-12l-1-1c-9 0-10-2-6-10l6-6c-2-2-5-5-6-9 0-2-1-5 3-5s3-5 6-6l-5-4c-5-2-5-4-1-7 5-2 9-4 15-1l-3-6c-1-2-3-3-5-2-4 1-5-1-5-4 0-7 1-12 12-14h-7l-7-4c-3-2-3-4 1-6l5-2c7-2 9-6 7-14v-4c-2-1-3 0-4 1h-4l1-4 7-4-5-4c-3-2-3-4 1-6 5-3 11-2 15 2l6 5c3 2 6 4 10 1 3-2 3-6 2-9l-3-9c-12-20-29-36-47-52l-22 22c-10 10-19 19-26 31-3 5-4 9-3 15l4 14c2 7 7 9 13 4 2-1 5-4 9-3-1 4-5 4-7 6 3 2 7 1 9 5-1 2-3 0-5 1-1 3 2 5 1 8-3 0-3-2-4-4-1-6-5-7-11-7 8 8 13 18 26 16-1 4-4 3-5 4-1 3 4 5 2 8-4 0-5-4-8-6-2 5 0 10-1 15-3 0-3-2-3-4v-6c1-8-2-14-9-18-1 6-1 12 2 17 2 3 4 6 2 10-3-2-2-7-5-8-3 2-2 6-5 8-1-7 3-13 1-20-4 2-6 6-10 9-2-3 0-5 1-6l7-5c4-4 4-7 1-12-3 2-2 6-6 8-2-6 7-12 0-18-4 1-5 7-9 9-2-4 1-7 3-9 5-4 5-8 2-13-5 6-7 14-10 21l-1 1c-3 10-2 12 8 12 2 0 4-1 5 1-2 2-4 2-5 2l-6 1c-1 2 0 3 1 5l4 10c1 12 10 13 18 16l6-2c1-1 2-3 5-2 1 2-2 3-2 5 6 3 12-2 18 1-3 4-7 1-10 4 1 5 5 7 8 11-4 1-5-1-7-3l-7-7c-2-3-5-3-9-2 1 5 5 8 7 13-3 1-5-1-6-3l-5-8c-2-3-4-6-8-5 2 6 5 11 9 16l17 10c2 1 5 0 8-1l5-2c0 5-4 4-6 7 1 3 5 4 5 8-6-1-7-7-13-8-1 9 9 13 10 21-5-2-6-7-10-9-2 3 0 6-2 9-3-2-2-6-2-9 0-2 2-4 1-7-1-8-4-11-15-13-2 4 2 5 4 7s6 2 7 5c-2 3-5-1-8 0 0 6 4 8 9 10-5 3-3 6-1 8 2 4 4 6 4 11-7-5-7-13-13-18-5 4-3 10-4 16-3-1-3-3-3-5 0-5 1-9 3-13 2-3 2-5-1-8l-11 19c-2-6 2-9 3-14-2-1-4 2-7 0 1-4 4-4 6-4 5 0 7-3 7-6 1-5 0-9-1-14-3 2-3 7-7 10 0-8 7-16-1-22-2 4-5 8-4 13v14c-3-3-2-8-4-11-1-1-2 1-3-1v-1l5-7c3-8 4-16-1-23l-6-15c-3 8-3 15-4 22-1 11-1 22 4 33 4 11 5 22 10 32 3 8 10 10 17 5 2-2 4-5 9-3-2 3-6 4-9 7 2 2 5 2 7 1 3-1 5-3 8-1-2 3-5 2-7 5 3 8 12 3 17 9-5 2-9-1-13 0 1 5 5 8 5 13-3 1-3-2-5-3-3 4-2 8-3 13-4-5-2-9-1-13 2-7 0-14-6-17-4-3-10-4-15-5 1 9 3 11 11 13 2 0 5 0 7 3-4 1-8-2-12 0 3 7 7 13 12 20 2 3 6 2 9 3s7 1 8 7c-5-2-8-6-14-4 1 6 7 12 4 19-3-7-5-13-10-19-1 8 0 16 4 23-5 0-4-3-6-4-3 2-3 7-6 10-3-3-1-6 1-9 3-5 3-10 4-16 1-13-9-22-14-32-2 8-3 16 3 21 7 8 3 16 0 25-5-7 4-14-2-19-2 0-2 3-5 3-2-4 5-8 0-12l-7 14c-1 3 1 5 3 6 5 5 9 10 10 18l-2 3c-3-6-4-14-11-17l-1 11c0 4 1 8-4 11 0-6 2-10 1-15-5 2-4 7-9 9 0-5 2-9 5-11 4-3 4-7 3-11-5 2-1 8-5 10-3-2 0-5-2-7-3 1-3 5-7 5v-3c3-4 6-7 11-9 6-2 14-20 13-28-5 2-9 4-10 10-2 7-4 13-12 16 0 0-1 1-3-1 7-4 11-11 12-19-3-2-6 0-9-3 1-3 3-2 5-2 7 2 11-2 16-6 3-2 2-6 1-9-1-6-4-12-7-19-3 7-6 14-11 19-6 8-10 16-9 27l-2 10c-1 8 1 15 5 22 2 3 5 6 4 11-5-3-5-9-9-12-3 3 0 8-4 12-4-7 3-14 1-20-9 3-6 12-10 17-3-5-1-13 4-18 5-4 6-10 6-16h-6c-1-2 2-3 3-4 3-2 5-10 4-12s-2-2-3-1c-3 1-6 1-7 5l-2 13c0 2 0 4-3 5-2-4 2-8 1-12-3 0-4 4-7 4 0-5 4-7 8-10-9 1-12 5-11 12m218-67 1-10c0-6-5-11-12-12-10 16-14 32-1 48 8-7 11-16 12-26m-10-60c9 10 20 16 32 20l3-8c1-2 1-4-1-6-10-9-22-16-35-21-2-1-4 0-4 3 0 4 1 9 5 12m24-65-1-2c-16-4-31-4-46-3l-1 1c0 2 2 3 4 3l20 7c9 4 19 1 24-6m-37 70c-2-4-1-8-4-12l-6 15c-4 7-3 13 0 19 2 4 4 5 8 5 4-1 4-4 3-7l-1-20m-9-100c-1-7-4-10-8-7v1l1 1c7 3 7 8 8 14 1 3 0 4-4 4-7-2-11-8-10-15s-4-11-11-8l8 13c6 9 17 14 28 12 4 0 8-1 10-6 1-4-3-7-5-9l-2-2c-1 2 1 3 1 4 2 5 0 7-5 6s-9-2-11-8m121 147c-5-7-18-14-24-12 0 3 2 4 3 5 3 2 6 5 6 9l2 3c4 3 8 4 13 4 4 1 4-3 7-4l-7-5m-59 0h-3c-3 4-6 2-9 0l10 16c1 3 4 5 7 7 1 1 3 2 4 1 2-1 2-3 2-4 0-8-4-15-11-20m-81 75-1 14c0 4 3 8 6 11-2-5-3-9-1-13 2-6 3-12 7-16 5-7 3-13 2-20-4 8-11 15-13 24m26-52c-4 5-5 11-7 16l1 4c4 6 13 7 18 1-4-6-9-13-12-21m-5-134 9 24c2 6 6 8 12 10 0-3 0-5-2-7-8-4-10-10-7-18 0-3-1-7-4-9-3-1-5-3-8 0m-21 19c0-2 2-4 1-7-7-2-11 0-11 6 0 8-2 13-10 15l-1 1c2 4 4 5 7 2 6-5 11-9 14-17m62-56h6c6-1 12-9 11-16l-4 5c-3 4-6 6-11 5-8-2-10-1-10 7 2 1 5 0 8-1m-50 82c-6 7-6 17-7 27 10-8 9-19 14-28-3-1-5-1-7 1m56 87c4-1 4-3 3-6l-9-12c-1-2-2-4-5-4-3 8 2 17 11 22m36-44h3c-1-3-2-6-1-9 1-5-2-7-5-9s-6-2-9 0c3 6 7 13 12 18m-44-109-2-5c0-2-1-3-3-3-4 0-6 2-7 5-1 2-2 4 0 5 6 3 12 5 20 4l-8-6m-15-50-6-2c-2 4-2 8 2 8 5 1 6 4 7 8 0 2 2 3 4 5l1-9c0-5-1-9-8-10m31 14-2-8c-12 1-19 8-16 16 4-6 10-8 17-6l1-2m-83 214c3 3 7 4 12 2s5-6 6-12c-7 2-14 3-18 10m65-30c-1-1-2-3-3-2-2 10 2 20 9 22 1-7-1-14-6-20m13 72c2-7 2-7-2-8l-2 5c-1 2-1 6-5 6-3 0-5-4-6-6l-1-3c0-3-2-5-4-8 1 10 1 10 7 17 5 6 9 5 13-3m12-152 3-2c-4-3-17-2-20 2 5 7 8 8 14 2l3-2m4 32c0 3-3 7 0 10l9 9c2-9-2-18-9-21v2m-99 61c3 2 5 5 9 5-6-8 0-15 0-24-3 2-4 4-5 6s-2 5-4 6c-2 2-2 4 0 7m51-63 3 6c2 2 4 3 5-1 3-8 1-12-7-14-2 3 0 6-1 9m51 84c-1-2-1-5-3-4-3 0-4 2-4 5 2 5 0 9-4 12-1 1-3 3 0 4 2 1 3 0 3-2l5-6c4-2 4-5 3-9M278 207c7-4 6-10 5-17-9 5-11 12-5 17m52 122 6 3c0-4 1-8-2-9l-12-6c0 8 2 11 8 12m-12-10c-2-4-5-5-9-6 0 6-1 11 2 17 5-3 8-5 7-11m76-194 2-7c-3 3-7-1-11 1l1 8c1 2-1 5-2 9 5-3 7-7 10-11m-99 107v-2c-9 1-14 9-11 17 5-3 7-9 11-15m92 90 1 2c4 5 12 6 16 2 1-1 2-2 0-4-6 0-14 2-19-7l-1 2 3 5m-50 28c1-1 1-2-1-3-6-1-11-4-13-10 0 3-3 5-3 9 5 3 10 6 17 4m-34-114-1-3c-5 8-5 16 2 20 3-6 2-11-1-17m21-156c4-5 4-10 4-15 1-3-1-4-4-2s-6 6-3 10l3 7m-36 249 7-12c-6-1-7 3-9 5-5 5-5 6-2 12l4-5m94 14c2 1 4 3 5 2 2-7 5-15-4-21 3 6 2 11-2 16 0 1-1 2 1 3m25-136c2-3 0-3-2-3l-12 3c-2 2-3 4-2 7 6-1 11-4 16-7m-59 116c-3-1-6-4-8-1s-1 7 1 9c2 3 4 1 6 0 5-2 2-5 1-8m1-158c-3-8-4-8-10-6 2 4 3 8 7 8 6 2 10 5 12 11 2-6 1-9-4-9l-5-4m-17-57c-5 4-4 8 2 11 5-6 6-9 3-14l-5 3m54 164c2 1 5 1 4-3-1-5-8-8-14-7 3 4 5 8 10 10m37-58c-4-7-9-7-16-1l14 4c2 1 3 0 2-3m-3 66c0 6 4 7 8 7 1-8-1-12-9-12l1 5M310 99c-1 2-2 4-1 7 4-6 9-8 16-4 0-3 2-5-1-6-4-2-11 0-14 3m77 213c6-3 11-4 17 3-1-4-2-6-4-6l-11-4c-2-1-4-1-5 1-2 3 0 4 3 6m6-159c3 0 5 0 7-4-6 2-12 0-16-4-2-3-5-1-6 1 3 3 6 4 15 7m-23 37c1-1 3-1 3-3-8-6-13-4-14 5l11-2m-41-33c-1-1-2-2-4 0 2 6 9 7 10 14 4-3 3-5 2-7-2-3-4-6-8-7m54 53c-5 2-10 1-16-1 3 4 7 7 11 7 4 1 7-1 8-5 0-2-1-2-3-1m-79-41-4-9c-6 7-4 12 7 16l-3-7m86 117c1 1 3 2 4 0v-4l-6-5c-2-1-4-1-4 2 0 4 3 5 6 7m-102-16c2 3 3 7 6 10 3-5 2-10-4-14l-2 4m-7 86c0 1 0 3 2 3 3-2 4-9 2-15-2 4-5 7-4 12m-9-48c6 1 8-3 11-6-7-3-10-1-11 6m116-126c-5 0-5 5-9 8 10 0 10 0 13-9l-4 1m42 19c-4-1-7 2-10 4 3 3 9 3 12-1 1-1-1-2-2-3m-147 58c3-1 6-3 5-8l-14 7 9 1m102-102c-1-4-5-4-8-4-2 0-3 3-3 6 4 0 7 0 11-2m26 143c-2 1-5 2-6 5 6 4 8 3 11-4l-5-1M291 190c-2-2-1-4-2-7-4 8-2 13 4 14 0-2 1-4-2-7m102 56c-2 0-2 2-2 3 3 3 6 6 10 7-1-5-4-7-8-10m-35 70-7 3c4 2 7 4 12 3-3-2 2-6-5-6m-13-79c0 1 0 3 2 4 2-2 4-5 3-8-1-2-4-3-7-3-1 3 1 4 2 7m13 6c1 1 0 3 3 4 1-3 1-6-1-9-1-2-3-4-6-2l4 7m51-6v5c2 1 4 0 5-2l-5-7c-1-4-1-4-4-4l4 8m-67-48c-1 3 2 3 4 3 3 1 5-1 7-5-4 0-7 0-11 2m32-84c-3 3-5 5-5 9 2 1 4 1 5-1 1-3 2-6 1-9l-1 1m44 80c-2 0-5 0-5 3s3 4 6 4c1-2 2-4-1-7m-24 36c4 3 6 2 8-5-3 1-8-1-8 5M347 89c1 3 2 1 3 1 1-1 2-3 1-4-3-4-3-8-2-13-2 5-2 10-2 16m-3-10 1-9c0-1-1-3-3-2-1 0-2 1-1 3l2 9 1-1m21 93c-3 2-2 4-1 7l7-6c-2-2-4-3-6-1m-72 8 3 2c1-3 4-7-1-9-2 2-3 4-2 7m123 64c-2 1-4 1-5 3 3 1 6 4 10 2-1-2-2-5-5-5m-45-125c-1 0-3 0-5 2l8 6c-2-3 3-6-3-8m-96 156c1 1 2 3 4 3 0-2-3-2-2-4 7-5 7-5 8-10-3 4-6 7-10 9v2m37 91c4-2 2-5 1-9-6 7-6 7-1 9m92-192c-2-3-6-3-8-1v3h2l6-2m-135 60c7 4 9 4 13-1l-13 1m14-6c2 0 5-1 7-3l-4-4c-1 3-5 3-3 7m14 63-2 5c2 1 4 0 5-1 2-1 2-3 1-4-2-1-3-4-4 0m15-30c1 2 2 0 3-1v-4l-5-5c3 3 0 7 2 10m82-62c-1 1-2 2-1 4 2-1 6 0 5-3 0-3-1-3-4-1m-5-39c1 2 2 3 4 3 1-2 2-5-1-6-2-1-3 1-3 3m-45 138c-1-3-1-6-4-8-1 4 2 7 3 11l1-3m57-32c-2 0-2 1-1 2 3 3 6 2 11 1l-10-3m17 30c1-2 0-3-1-5-2 1-3 3-3 5h4m2-73c-2 2 1 3 2 5 4-3 3-4-2-5m-126 34c0 3 1 4 3 5v-6c-1-2-2-2-3 1m67-96v-4l-1-1-2 1c-1 1 1 4 3 4m-56 174c0 3 1 4 3 4 0-4 0-4-3-4zM351 429l2 6c1 2 2 3 0 5-2 1-4 2-6 0l-15-9-2-1c0 5 3 8 4 12 1 3 3 5-1 6-4 2-4-1-5-3l-9-20c0-2-2-4 0-6 2-1 5-2 7 0l18 12-6-15c-1-2-2-4 1-5s4 0 5 2l7 16zM358 402c4-8 19-12 23-4-2 2-4 4-7 3-5-1-9 1-10 5-2 4 1 11 5 14 4 2 9 1 11-2s2-5 1-8h-1c-2 0-4 4-6 1-3-4 2-5 4-6 7-5 6-5 11 3l2 3c3 5 3 6-3 7l-2 2c-5 7-12 9-18 6-8-2-13-11-11-18l1-6zM84 380c-5-6-5-6-11-1-2 1-3 5-6 2-2-2-3-4-1-5l19-18c1-2 3-2 4 0 2 1 3 3 1 5l-6 6 2 4c6 5 6 5 12 0 2-2 3-3 6 0 2 2 0 4-2 5l-16 16c-2 2-3 3-6 1-2-2-1-4 1-6l3-3c3-2 3-4 0-6zM125 390l1 2-8 32c-5-2-7-4-5-8 1-3-1-4-3-6-3-1-5-5-8-2-3 2-6 2-8-1 0-2 1-3 2-3l21-14c3-2 6-3 8 0m-7 9c-4-1-5 2-7 4 1 1 2 3 4 3 2-2 2-4 3-7zM304 436l-2-8c0-2 0-4 2-4 3-1 4 0 5 2l4 19c0 7-4 11-11 13-6 1-11-1-14-7l-4-20c-1-2 0-3 2-3 2-1 4 0 4 2l3 14 2 5c1 2 4 3 6 2 3 0 5-2 5-5l-2-10zM418 392c-1 7-8 12-14 11-2 0-5-1-5-4 1-2 3-4 6-3h4c2-2 3-3 2-5s-2-3-4-2l-8 3c-4 1-7 0-10-3-2-3-2-7 0-10 2-5 8-8 13-7 1 0 3 1 3 3s-2 3-4 4h-3l-3 2v4h4l6-2c8-3 13 0 13 9zM173 439l-3 7c-1 3-3 3-5 2s-2-2-2-4l8-24c1-3 3-4 5-2l11 4c5 2 6 7 5 11-2 5-6 8-12 7-2 0-4-2-7-1m5-6 2 1c2 0 5-1 5-4 1-3-2-4-4-5-1 0-4-1-5 2-1 2-2 5 2 6zM132 424l9-18c2-3 3-3 6-2l9 5c5 3 6 8 4 13s-7 7-12 5c-6-3-10-3-12 4-1 2-3 3-5 1-3-1-2-3-1-5l2-3m17-12c-4-1-4 2-5 4s0 3 2 4 4 2 6 0c2-1 2-3 1-5l-4-3zM207 447l-6-21c5-1 7 0 8 5l3 9 7-8c2-3 5-4 8-1l-8 11c-3 4-5 9-6 14 0 2-1 4-3 4-3-1-4-2-4-5l1-8zM268 457c3 0 7-2 7 2 1 5-4 3-6 3l-9 1c-3 0-5-1-5-4l-1-25c-1-2 0-3 3-3 2 0 3 1 3 3l1 17c0 5 2 6 7 6z"/>
    </symbol>
    
     <!-- transactions icon -->
    <symbol id="transactions" viewBox="0 0 496 496">
       <path fill="#F34750" d="m1 231 7-6 54-54 72-72 12-12c2-2 4-1 6 1l46 46 58 58c2 2 3 2 5-1L362 91l61-61 2-3c3-2 3-4 1-6L407 1h106v106a870 870 0 0 1-38-37c-2-3-4-3-7 0l-71 71-74 74-60 60-5 4-34-34-62-62-9-9c-3-4-5-4-8-1l-61 62-83 82v-86z"/><path fill="#34547A" d="M279 513a4383 4383 0 0 1 0-196c0-5-1-11 2-15 4-5 9-7 15-7h112c13 0 20 7 20 20v198H279zm-190 0V376c0-12 7-18 18-18a61862 61862 0 0 1 116 0c10 3 14 8 14 18l1 18-1 119H89z"/><path fill="#35547A" d="m468 513 1-8V318l-1-81 1-12c1-9 7-14 16-14h28v302h-45z"/><path fill="#35557A" d="M1 442h28c11 0 18 7 18 18v53H1v-71z"/>
    </symbol>

    <!-- dynasty icon -->
    <symbol id="dynasty" viewBox="0 0 496 496">
        <svg xmlns="http://www.w3.org/2000/svg" width="496" height="496" version="1.0" viewBox="0 0 1182 1182"><path d="m208 209-4 6c-2 7-1 31 2 52 4 34 6 44 12 58 4 14 4 13 0 17l-8 8c-7 6-6 8 0 4 5-4 7-4 11-4 3 0 2 3-2 5-11 6-17 10-17 12l10-3c8-3 12-4 13-3 2 2-2 5-12 10l-10 5-8 5c0 2 2 1 8-2 12-5 16-6 16-4l-10 6c-19 9-27 13-27 15 0 1 3 1 18-6s22-9 23-8c0 1-1 4-5 8l-27 18a344 344 0 0 0-30 21l22-12a218 218 0 0 1 26-14c6-4 13-7 25-12l5-2a170 170 0 0 1 109-14c2 1 3 3 4 6 1 6 2 7 10 10 5 1 8 4 12 10 2 3 2 5 2 10-1 9-2 10-12 7-8-3-10-3-20-3-12 1-18 0-22-3-5-4-1-6 16-9 7-1 12-3 12-6s-7-5-22-5c-12 0-20 1-26 4l-14 2h-13c-2 0-7 5-9 11-4 10-5 11-11 11-5 0-6 0-9 4l-4 6c0 2 0 2 5 1 5 0 6 0 9 2 4 4 5 5 6 15s3 13 9 19c4 5 6 10 8 16 0 2 1 4 5 5 6 3 10 6 9 8l-9 1c-9 0-11 1-6 5l3 2c2 0 8 5 8 6 0 3-5 5-13 6l-7 1 4 4c3 1 5 3 5 4l-5 7c-4 5-5 5-8 5l-3-1v5c0 5 0 6-3 9-9 6-12 10-12 11l7 1c10 1 16 6 8 7l-6 2-7 2c-4 1-4 3-1 10l2 8c0 2 1 3 5 6 6 3 12 10 12 13l-3 8c-4 7-4 10 0 15 3 5 3 10 0 10h-7c-5 0-7 1-2 3l2 1c0 3-3 6-7 8-6 4-4 5 4 4 8 0 9 1 4 6l-5 6c-3 4-2 5 4 4 5 0 8 2 8 5l-5 1c-3 0-4 0-4 2a1677 1677 0 0 0-167-5h-9l7 1 41 2c44 1 66 2 104 6l18 2 8 1c2 1 1 4-2 5s-4 5-1 5 9 4 16 13l12 10 4 4c0 2-1 2-14 3a8783 8783 0 0 0-153 5c-17 1-29 2-47 5l-18 2-5 1-5 1-3 1a352 352 0 0 0 55-6l26-1a5451 5451 0 0 1 161 0l-2 2-2 3c-1 2-1 2 6 3 5 1 6 2 4 3s0 2 5 4l4 2c0 2-7 4-16 6l-42 6-15 3-10 2-28 5a4692 4692 0 0 0-100 21l-8 2a602 602 0 0 1-11 5 1792 1792 0 0 1 29-6l28-6 18-3 18-4 19-3 14-3 25-4 22-4a957 957 0 0 0 46-5l5-1c6-2 6-1 7 1 0 2 1 3 3 3 3 0 4 2 2 4s-2 4 0 4l3 3c1 2 3 3 6 4l6 3-3 5c-2 3-2 4 7 2 7-1 14 0 24 5 12 5 15 3 21-7s15-17 27-23c7-3 20-4 21-1l-3 6c-3 2-4 4-3 5l4 3 5 3-6 4c-12 6-13 8-21 27-6 16-5 18 6 19 7 1 10 4 13 9 2 6 3 6 8 3s15-5 22-5c7 1 16 4 16 6 0 1-2 2-13 2l-11 2c-3 3-2 5 0 8 5 4 14 5 21 2 6-3 9-3 14-2 9 3 20 5 25 5 4 0 5-1 7-3 2-3 3-3 12 0 6 3 9 3 18 3 34 0 51-13 50-40 0-8 0-9-4-18-5-12-8-17-12-21-3-3-15-11-19-12l-10-10c-5-7 0-15 9-14 6 1 12 6 19 15 11 15 16 18 26 18s14-2 28-17c13-13 17-15 23-14 8 2 10 10 5 17l-18 13c-19 12-25 17-30 27-3 7-4 8-4 18 0 9 1 11 3 15 6 14 21 21 51 24l23 2c15 1 22 0 22-3 0-2 0-2 3-2 10 3 12 3 13 1l2-2c15 4 18 4 25 1 5-1 5-1 8 1 2 2 5 3 8 3l4 1v-4c0-6-2-9-8-13l-7-4c-2-2-2-2-1-3 4-6 24-4 32 2l6 2c7 0 8-5 2-13l-5-7 4-6 3-6c0-6-8-14-19-22-7-4-9-7-5-8h24c12 3 17 3 17 2l-2-6c-2-6-3-8 0-9 6-1 20 5 31 14 7 6 12 9 19 11h21c3-1 3-2 3-5 0-5 1-7 11-12 6-4 9-7 8-9-2-2-3-2 40 4a1419 1419 0 0 1 85 15l14 2 13 3 18 3a1259 1259 0 0 1 76 15c1-1 0-1-2-1l-3-1-5-1-10-3-11-2-9-2-39-9-16-3a305 305 0 0 0-24-5l-16-3-9-2-13-3-14-2-40-7-11-2-10-2c-7 0-10-1-8-2v-4c-2-2-2-3 0-6l7-8 6-5h53a1350 1350 0 0 1 168 7l-49-6c-28-3-87-6-121-6l-53-2c-1-2 3-4 8-4 14-2 15-3 11-8-3-4-2-6 2-7l5-3c1-2 0-3-6-7-8-5-9-6-7-9l14-3a1563 1563 0 0 1 163-9 1887 1887 0 0 0-179 4l-4-3c-2-3 2-7 9-11 8-6 9-7 4-11l-3-3 2-3c1-2 2-5 4-6l4-7c2-4 2-4 0-5-2-2-3-5 0-6 5-4 3-7-4-10-3-1-4-3-2-4l15-1c4 0 4-2-2-5s-7-6-4-10l3-2c2 0 7-4 7-6l-3-4-6-4c-2-2-2-3-2-8 2-16 2-15-1-17l-4-1c-2 0-2-3 0-5 4-3 1-6-12-16l-5-5c0-1 2-3 5-4 7-3 7-5-4-11-6-4-6-5-7-8 0-5 2-7 10-11l8-5c3-3 3-6-1-8-7-3-7-4-8-7l-2-4-4 4c-2 3-3 3-6 3h-4l-2 11c-2 19-2 19-24 5-6-4-13-6-18-6-3 0-3 0-2-1 2-3 9-4 20-4h10v-5c-2-10-1-13 6-15 4-1 5-1 10 1 5 3 6 3 9 2l6-5c3-3 3-3 2-9 0-4-1-7-3-10s-3-5-3-8c0-4 0-5 3-6 6-1 24 7 35 17 10 8 17 12 18 9 0-2-15-17-28-27s-17-14-15-18c3-5 13-5 23 0 11 4 29 16 40 27l7 5c2 0 2 0 0-3l-15-18-22-22c-4-2-11-8-12-10-2-1 2-1 11 1l11 3c2 0 2 0 0-2l-13-8c-11-6-15-8-14-10 1-3 8-3 25 1l7 1c1-1-11-7-27-14a960 960 0 0 0-100-29c-10 0-12 1-16 12l-5 10c-2 2-2 2-9 2-8 0-10 1-13 7-2 3-6 7-8 7-3 0-4 0-6-4-1-3-1-3 1-7 1-3 1-3-1-5l-2-4 12-4c2 0 12-4 15-7l7-8c1-3 5-7 8-9 5-4 8-6 23-22 13-14 36-31 64-48 14-9 20-11 27-11 6 0 7 1 8 13 2 19-3 59-8 73-2 4-3 5-5 5-4 1-22-1-32-2l-19-3-46-4c-8 0-9 0-11 2l-3 5c0 2 0 2 4 2l11-3h15a233 233 0 0 1 50 12c8 3 10 3 19 3 12 0 13 0 13 7 0 4 0 4 3 5 4 1 4 1 8-3 5-5 10-7 14-6l9 2 10 2c7 1 2-2-10-6l-13-5c-2-2-1-7 1-15 7-22 10-46 10-83 1-22 0-26-1-29-3-5-5-7-11-7a160 160 0 0 0-63 26 341 341 0 0 0-52 41l-12 11a394 394 0 0 1-63 46c-12 4-12 3-7-7l4-9h-3c-2 0-10 4-13 7-7 7-15 6-13-2 0-5-1-6-6-3-11 7-12 7-27 7l-27-3a562 562 0 0 0-75-4 412 412 0 0 0-76 1c-3 2-16 3-28 3-15 0-17 0-26-6l-7-3c-3 0-3 0-3 3l1 5c1 2 1 6-1 6-3 1-7-3-11-10-5-9-9-12-10-8v23h-5c-5 0-11-2-21-9-5-3-14-9-15-11l-9-7-11-10c-6-6-20-13-31-14-5-1-13-5-17-8l-7-5-18-14c-20-16-20-16-37-27a197 197 0 0 0-38-20c-4-2-14-4-18-4l-6 2zm31 37a226 226 0 0 1 81 52l11 9c18 14 17 18-3 20l-27 4-13 4-14 5c-11 6-25 10-31 10-4 0-4-3 1-6l4-3-8-25c-13-39-18-62-15-70 1-4 2-4 14 0zm110 86 2 7c2 7 6 13 17 19l10 7h-9c-14-4-17-6-20-9-6-8-6-8-14-10-9-1-13-3-10-5l5-1c4 0 9-2 10-4 0-2 5-6 7-6l2 2zm551 54c8 5 14 10 20 17 4 6 5 10 3 11s-3 1-12-3l-14-6-30-4c-15 0-15-4-1-8 7-1 7-2 9-6l3-4h8c5 0 8 1 13 4zm-610 36c17 3 24 6 32 14 9 9 7 11-7 6-7-3-9-3-13-2-8 1-13-1-19-7l-7-7c-4-2-4-4 0-5 3-1 4-1 14 1zm601 3c5 3 5 6-3 11-4 3-6 4-6 6 0 5 2 6 11 6 8-1 10 0 10 3 0 4-2 6-7 7-6 1-35 4-38 3s-3-4 1-8c5-6 5-9 1-14-6-9-4-13 9-15 8-2 18-2 22 1zm-590 31c7 2 13 5 23 11 13 7 31 22 31 26 0 3-12-2-24-11-6-4-13-8-23-12l-13-7-10-6-2-3c0-2 9-1 18 2zm115 113c13 1 16 2 17 3l1 9c0 20 16 50 27 50 2 0 3-2 4-5 2-4 2-6 2-24-1-22-1-21 7-16 28 13 44 35 44 58 0 6 0 7-2 7l-3-1c-8-6-8-6-33-6-42 0-56-4-74-20-6-7-11-14-14-25-3-10-4-11-15-20-7-6-5-9 8-11h31zm389 0c5 2 8 4 8 6 0 1-2 4-5 6-7 7-9 10-12 19-5 13-8 18-16 25-9 8-20 15-28 16l-12 3a147 147 0 0 1-40 3l-9-2-8-1c-6 0-7 0-11 2-8 6-11 5-9-5 2-20 17-39 43-51 14-7 13-8 13 13 0 20 1 28 4 29 3 0 10-4 13-8l12-22 4-20 1-9 6-1 7-1 29-3 10 1zM568 874c-19 5-22 6-30 3-2 0-4 0-7 2-3 3-4 3-10 3l-12-2c-6-1-11 0-11 2s4 6 9 9l8 8c5 6 10 8 23 9 10 0 15 2 21 7l10 5c9 3 13 2 26-2 12-4 20-5 25-3l6 2 17-6 18-9c13-6 18-10 18-15 0-3-2-3-10-2-9 2-13 1-15-3-1-2-1-2-8-2-6 0-9-1-12-3l-5-2-2 2c-1 2-2 2-5 2l-14-2c-7 0-11-1-15-3-8-3-14-4-25 0z"/></svg>
    </symbol>

    <!-- regaber icon -->
    <symbol id="regaber" viewBox="0 0 496 496">
        <svg xmlns="http://www.w3.org/2000/svg" width="496" height="496" version="1.0" viewBox="0 0 97 96"><g fill="#001f64"><path d="M30 5c-4 9-3 18 4 25 9 9 21 9 30 0 7-7 9-16 4-25l-2-4 1 5c0 6-3 13-8 17-3 2-4 2-10 2s-7 0-10-2c-6-4-8-11-8-17 1-5 1-5-1-1z"/><path d="M20 17c-3 6-4 18-2 25 10 28 52 28 62 0 2-9 1-22-4-28l-1-3 1 3c1 5 0 14-2 18-4 9-16 17-25 17-7 0-13-3-19-9-7-7-8-12-8-22v-6l-2 5z"/><path d="M8 33c-11 25 4 55 30 61a45 45 0 0 0 52-60l-2-4v8c-1 12-4 19-12 27l-12 8c-5 2-7 2-15 2-12 0-18-2-26-10-9-8-12-15-13-27v-9l-2 4z"/></g></svg>
    </symbol>

    <!-- eatfity icon -->
    <symbol id="eatfity" viewBox="0 0 496 496">
       <svg xmlns="http://www.w3.org/2000/svg" width="496" height="469"><g class="layer"><g fill-rule="evenodd"><path fill="#04d4a4" d="M435 48h-4l-3 1v-1h-1l-2 1h-3s-1 0 0 0h-3l-2 1h-6c0 1 0 1 0 0h-1l-2 1a34 34 0 0 0-7 1l-2-1-4 1h-3c0 1 0 1 0 0h-3l-2 1h-1c0-1 0-1 0 0h-4l-4 1h-7l-1 1h-1v-1l-3 1h-2c1 1 0 1 0 0h-2c1 1-3 1-5 1h-6l-3 1h-3l-3 1h-8c0 1 0 1 0 0h-1c-1 0-1 0 0 0l-2 1a116 116 0 0 0-7 1h-9l-2 1h-2c1 0 1 0 0 0h-5l-2 1h-6l-2 1h-4c0-1 0-1 0 0h-4l-3 1h-7l-4 1h-2l-3 1-1-1-3 1h-6l-2 1h-1a103 103 0 0 0-11 1h-2l-4 1h-6l-1 1v-1l-2 1h-2l-1-1v1h-3l-3 1h-6l-2 1h-2v-1l-1 1h-1c0-1 0-1 0 0h-4l-2 1h-9l-6 1h-3l-2 1h-6l-3 1v-1h-1l-2 1h-2l-1 1v-1h-1l-5 1h-4l-1 1-2-1-3 1h-2c0 1 0 0 0 0h-1l-2 1h-7c1 0 1 0 0 0h-2l-2 1h-4c-1 0-1 0 0 0h-3l-3 1h-6c1 0 1 0 0 0l-2 1h-7l-1 1h-8l-2 1h-7l-3 1h-8l-3 1h-3l-3 1-1-1-2 1h-5l-2 1h-7v1-1h-1l-1 1h-1l-2 1-1 1-1 1v12c-1 0-1 0 0 0v1l1 1v5l1 2v2l1 2v3l1 2v5l1 1v1a89 89 0 0 0 1 7l1 1v3l1 1v3l1 2v1c-1-1-1-1 0 0v2l1 2v4c1 0 1 0 0 0v1l1 1v2l1 1v2l1 1-1 1c0-1 0 0 0 0l1 3v1c0-1 0 0 0 0l1 3v2l1 2v3l1 1v1c-1 0-1 0 0 0v3l1 1v3l1 1v5l1 1v3l1 1v4l1 2v1l1 2h-1 1v4l1 1v1c-1 0-1 0 0 0v3l1 2v4c1-1 1 0 1 1v4c0 1 0 2 1 1v1l1 1-1 1c0 1 0 1 0 0l1 1v4l1 1v3l1 2v3l1 3v1l1 2v4l1 1v2l1 2v4l1 2v4h1v3l1 1v3l1 2v1c-1 0-1 0 0 0v2l1 2v3l1 2v4l1 1v2l1 2v4l1 1v5h1v4h1v2l1 4v4l1 2v1c1-1 1 0 1 1v5l1 2v4l1 2v1l1 1v4l1 1v1l2 3s0 1 0 0h-1l1 1h2l1 1 1 1a545 545 0 0 0 61 1v4l-1 1v1l-1 3v4a60 60 0 0 0-2 7l-1 2v2l-1 1v3l-1 2v2l-1 1v1l-1 4v1l-1 1v1l-1 5v2l-1 2v3l-2 4h1v1h-1v1l-1 3v3l1 1v2h1v1c0 1 0 1 0 0l2 1c1 2 1 2 5 2l5-1 1-1 2-1 1-1 1-1 2-1 1-1 1-1 1-1 1-1 2-1h1v-1 1h1v-2h1l1-1 1-1 3-3h1l2-1 1-1c0 1 0 0 0 0s2-2 3-1v-1l1-1 2-2h1l1-1 2-2h2-1v-1h2l2-2 2-2 1-1h1l1-1v-1l2-1h1l1-1v-1h1l2-1c1-2 2-2 3-2v-1h1l1-2 2-1c0 1 0 0 0 0h1v-1h1v-1h1l2-1v-1c-1 0-1 0 0 0h1v-1s1 0 0 0c0 0 0-1 0 0l2-1h1l2-2 2-2 1-1 3-1 3-3 2-2 2-1 2-2 1-1h1v-1l2-1h1l2-2h1c-1-1 2-3 3-3l1-1 1-1 2-1 1-1c-1 0 0 0 0 0h1v-1h1v-1l2-1c0 1 0 0 0 0v-1 1l1-1 2-1h1v-2h2l1-1 1-1 1-1 1-1h1l2-3 2-1h1l1-1 1-1c-1 0 0 0 0 0l2-1 2-1v-1l1-1 2-1 2-1 1-1v-1l3-1v-1h1v-1h1l1-1 1-1a3732 3732 0 0 1 105-1l1-1 1-2h1v-4l1-2v-2c-1 0-1 0 0 0v-3l1-2v-6l1-1v-4l1-1v-7l1-3v-3l1-2v-3c-1 1-1 1 0 0v-2l1-2v-1h-1l1-3v-3c1 0 1 0 0 0l1-2 1-5v-8l1-3v-2l1-4v-3h1l-1-1c-1 0-1 0 0 0v-4l1-2v-3c1 0 1 0 0 0v-1l1-2v-6l1-1v-6l1-3v-3l1-3v-6l1-2v-5l1-2v-7l1-1v-3l1-3v-5l1-2v-5l1-5v-3c1 0 0 0 0 0v-2h1v-5l1-3v-3l1-1v-9l1-2v-5l1-2v-7l1-2v-6l1-1v-5l1-3v-4l1-7h1l-1-1v-1l1-1v-5l1-2v-4l1-8c0-7-1-11-2-10v-1h-2v-1h-1v-1l-1 1h-7"/><path fill="#04dca4" d="M432 48h2v-1l-2 1m-11 1h1-1m-6 1h2l-1-1-1 1m-12 1h2c3 0 3-1 0-1l-2 1m-5 0h1-1m-18 2 1 1v-1h-1m-7 1 1 1 1-1h-2m-23 3h1l-1-1v1m-6 0h1c1 0 1 0 0 0h-1m-18 2h4-4m-12 1h2-2m-11 2h1v-1l-1 1m-24 2h3-3m-24 3h2l-1-1-1 1m-17 2h1v-1l-1 1m-6 0v1l1-1h-1m-6 1h1-1m-18 2h1c1 0 2-1 0-1l-1 1m238 0v1l1-1h-1m-250 1 1 1v-1h-1m-6 1 4-1h-2l-2 1m-18 1 1 1 1-1h-2m-4 1v1l1-1h-1m-31 3h4-4m-6 1h1c2 0 2 0 0 0h-1m314 0v2l1-2h-1M95 84h2c1 0 1 0 0 0h-2m-17 2h1l-1-1v1m-17 2h1c2 0 2-1 0-1l-1 1m383 3v1-2 1m-2 14v1l1-1h-1m-392 5v1-3 2m391 0v1l1-2-1 1m-2 15h1v-1l-1 1m-385 6v1-1c0-1 0-1 0 0m3 12v1-1m379 5v1l1-1h-1m-378 1v1l1-1h-1m3 12v1-1m0 3v1l1-1h-1m373 3v1-2 1m-2 9v1h1c-1 1-1 1 0 0v-2l-1 1M66 189l1 1v-2l-1 1m1 6h1v-1l-1 1m363 0v-1 1m-361 6v1-2 1m359 7v2-3 1m-357 1v2-3 1m356 9v1-1m-354 4v1l1-1h-1m353 2v1l1-1h-1m-352 1v1h1l-1-1m350 11v2l1-2h-1m-347 4v1h1l-1-1m346 7v1l1-1h-1m-1 4 1 1-1-1m-342 2c0 1 0 1 0 0v-1 1m1 5v1-1c0-1 0-1 0 0m340 1v3l1-1-1-2m-339 3v-1 1m0 2 1 1v-1h-1m2 9v1-2 1m1 4v-1 1m333 3h1v-1l-1 1m-332 2h1-1m331 7 1 1v-1h-1m0 5v1-1c0-1 0-1 0 0m-327 6v1c0 1 0 1 0 0v-1c-1-1-1-1 0 0m325 3 1 2v-1h-1l1-1h-1m0 5v1-1m-323 2v1-2 1m320 5c0 1 0 1 0 0h1-1m-319 4h1v-1l-1 1m211 0v1l1-1h-1m-209 6v1h1c0-2-1-2-1-1m201 1-1 1 1-1h1-1m-199 7v1-1m188 1-1 1 1-1c1-1 1-1 0 0m-187 6v1-1m176 2-1 2 2-2h-1m-175 2v1c0 2 1 2 1 1l-1-1v-2 1m2 6h1v1-1h-1m2 2h2-1l-1-1v1m156 2s-1 1 0 0l2-1-2 1m-4 2-1 1 1 1 1-2h-1m-5 5v1l1-2-1 1m-86 5v1l1-1v-2l-1 2m78 1v1l1-1h-1m-5 4-1 1h1v-1h1-1m-74 1-1 2 1-1v-2 1m69 3h-1c1 0 0 0 0 0v1l2-2-1 1m-10 7v1l1-1v-1l-1 1m-62 3v-1 1m53 4-1 1c-1 0-1 0 0 0h1v-1m-6 4v1l1-1h-1m-5 5-1 1 2-2-1 1m-3 2-1 1 1-1h1v-1l-1 1m-3 2v1l1-1h-1m-5 4-1 1 1-1 1-1-1 1m-3 2-1 1 2-1h-1m-35 2v1h1v-1h-1m24 6v1l1-1h-1m-6 5h1v-1l-1 1m-16 3h1l-1-1v1"/></g></g></svg>
    </symbol>

    <!-- music_adders icon -->
    <symbol id="music_adders" viewBox="0 0 496 496">
        <svg xmlns="http://www.w3.org/2000/svg" id="Capa_1" x="0" y="0" version="1.1" viewBox="0 0 155.9 155.9"><style>.st0{fill:none;stroke:#949598;stroke-width:4.2697;stroke-miterlimit:10}.st1,.st2{fill:#fff}.st2{stroke:#fff;stroke-width:1.3815;stroke-miterlimit:10}</style><path d="m78 103-9 9h18z"/><path d="M147 78A69 69 0 1 1 9 77a69 69 0 0 1 138 1zM78 2a75 75 0 1 0 0 151A75 75 0 0 0 78 2z"/><path d="M31 38v79h7V54l36 36-25 24 5 5 24-25 25 25 4-5-24-24 35-36v63h7V38L78 85z"/></svg>
    </symbol>

     <!-- rask icon -->
    <symbol id="rask" viewBox="-64 -64 312 312">
        <svg xmlns="http://www.w3.org/2000/svg" width="200" height="200" fill="none" viewBox="0 0 24 24"><path fill="#205550" d="M19.7388 4.26118c-2.6816-2.68157-7.0293-2.68157-9.7109 0l-.72083.72085c-.29289.29289-.29289.76777 0 1.06066.2929.29289.76773.29289 1.06063 0l.7209-.72085c2.0958-2.09579 5.4937-2.09579 7.5895 0 2.0958 2.09579 2.0958 5.49376 0 7.58956l-.7208.7208c-.2929.2929-.2929.7678 0 1.0607.2929.2929.7677.2929 1.0606 0l.7209-.7209c2.6815-2.6815 2.6815-7.02924 0-9.71082ZM6.04269 9.30707c.29289.2929.29289.76773 0 1.06063l-.72085.7209c-2.09579 2.0958-2.09579 5.4937 0 7.5895 2.09579 2.0958 5.49376 2.0958 7.58956 0l.7208-.7208c.2929-.2929.7678-.2929 1.0607 0 .2929.2928.2929.7677 0 1.0606l-.7209.7209c-2.6815 2.6815-7.02924 2.6815-9.71082 0-2.68157-2.6816-2.68157-7.0293 0-9.7109l.72085-.72083c.29289-.29289.76777-.29289 1.06066 0Z"/><path fill="#1B464B" d="M14.6928 9.30707c.2929.2929.2929.76773 0 1.06063l-4.3251 4.3251c-.2929.2929-.76773.2929-1.06063 0-.29289-.2929-.29289-.7677 0-1.0606l4.32513-4.32513c.2929-.29289.7677-.29289 1.0606 0Z"/></svg>
    </symbol>

        <!-- cookbook icon -->
    <symbol id="cookbook" viewBox="1024 0 1 2048">
        <svg xmlns="http://www.w3.org/2000/svg" width="2048" height="2048">
            <path fill="#45413C" d="M936.063 337.375c7.188 6.582 13.424 13.643 19 21.625l1.195 1.71C959 364.743 959 364.743 959 367h2l.754-2.152c11.554-26.404 42.815-46.496 68.547-56.575 33.049-12.38 67.214-8.068 101.585-5.273 5.479.443 10.958.874 16.437 1.307 10.695.846 21.389 1.704 32.082 2.565a32693.089 32693.089 0 0 0 37.41 2.994c22.92 1.828 45.84 3.667 68.76 5.512 20.895 1.682 41.79 3.353 62.687 5.015a97425.197 97425.197 0 0 1 78.13 6.244l3.74.3c8.686.697 17.37 1.389 26.056 2.079 10.578.84 21.156 1.688 31.734 2.546 5.392.436 10.785.87 16.179 1.295 4.94.39 9.88.788 14.82 1.194 1.783.145 3.565.286 5.348.424 27.55 2.134 49.495 11.423 67.731 32.525 3.235 4.001 6.285 8.127 9.281 12.309l1.29 1.736a78.959 78.959 0 0 1 2.621 3.803c2.062 2.882 3.684 4.811 7.141 5.86 2.896.344 5.732.47 8.647.526l3.325.147c3.627.154 7.254.26 10.882.369 2.536.101 5.07.206 7.606.314 5.328.224 10.656.432 15.985.625 12.153.446 24.299 1.026 36.445 1.626 3.76.181 7.52.346 11.28.508 26.884 1.23 52.56 5.953 73.497 24.177l2.484 2.086c12.624 10.902 22.254 24.699 27.891 40.414l.686 1.899c4.507 13.49 5.376 26.539 5.32 40.62.003 1.892.008 3.785.013 5.678.013 5.186.007 10.371-.002 15.557-.007 5.648.004 11.296.012 16.943.012 9.894.014 19.787.007 29.68-.006 10.611-.006 21.222.001 31.833l.002 2.034.006 8.203a85770.523 85770.523 0 0 1 .016 94.676v2.305a118402.061 118402.061 0 0 0 .006 57.534l.004 18.576c.01 43.217.016 86.433.008 129.65v2.467l-.006 27.242v2.485l-.002 9.946c-.01 52.437-.003 104.873.02 157.31a1417534.162 1417534.162 0 0 1 .019 42.104c.01 25.082.016 50.164.017 75.247v2.386a380202.042 380202.042 0 0 1-.006 75.057c-.003 24.508.006 49.016.02 73.524a60866.167 60866.167 0 0 1-.009 84.309l-.001 2.028c-.007 11.22.002 22.44.016 33.661.01 9.772.006 19.544-.01 29.316-.008 5.565-.01 11.13.005 16.696.013 5.072.009 10.144-.01 15.216-.004 1.815-.002 3.63.009 5.444.1 18.574-3.06 35.26-11.516 51.874l-1.586 3.168c-11.775 21.741-32.123 37.908-55.414 45.832-10.4 3.06-20.661 5.193-31.538 5.138l-2.496-.008c-10.138-.083-20.24-.716-30.356-1.345l-6.603-.396a13453.1 13453.1 0 0 1-17.987-1.094c-5.818-.356-11.636-.707-17.455-1.058-11.89-.716-23.78-1.438-35.668-2.163-11.766-.718-23.531-1.432-35.297-2.144l-2.223-.134-11.18-.676a254721.218 254721.218 0 0 1-100.584-6.1c-18.395-1.117-36.79-2.233-55.186-3.348l-2.39-.145c-18.004-1.092-36.008-2.182-54.012-3.272l-2.293-.14-20.417-1.235c-17.69-1.07-35.382-2.143-53.073-3.22-11.087-.673-22.174-1.346-33.26-2.017-6.4-.388-12.799-.776-19.198-1.167-5.855-.357-11.71-.712-17.565-1.066l-6.36-.387c-2.878-.177-5.756-.35-8.635-.523l-2.501-.156c-12.442-.962-12.442-.962-23.723 3.656-2.441 2.768-4.211 5.782-6 9-3.734 6.635-7.71 12.218-12.95 17.773-2.028 2.122-2.028 2.122-3.507 4.204-3.957 5.189-8.144 8.236-13.918 11.023l-2.118 1.038c-6.983 3.334-14.083 5.79-21.507 7.962l-3.043.934c-8.246 2.326-16.442 2.753-24.957 3.066v-2l-132 1v1c-24.922.69-49.82 1.222-74.75.688l-2.843-.052a1086.02 1086.02 0 0 1-7.954-.187l-2.342-.044c-4.408-.141-7.972-.95-12.111-2.405l-3.223.508c-5.099.664-9.267-.41-14.215-1.633l-2.736-.61c-5.84-1.403-11.207-3.285-15.826-7.265v-2l-3.25-.625c-6.004-1.469-11.32-4.497-16.75-7.375l3-2-2.438-1.75c-7.11-5.97-12.039-13.969-16.125-22.188-2.848-5.531-5.585-8.794-11.437-11.062-3.065-.93-5.664-1.072-8.858-.925l-2.893.127-3.107.154-3.247.15c-10.728.506-21.448 1.133-32.167 1.791a30745.223 30745.223 0 0 0-23.69 1.44c-6.252.381-12.503.76-18.755 1.139a134253.9 134253.9 0 0 0-30.334 1.843c-17.072 1.04-34.145 2.075-51.218 3.109l-19.766 1.197-2.217.135c-17.373 1.052-34.746 2.106-52.12 3.16l-2.3.14c-17.717 1.075-35.434 2.15-53.151 3.228l-2.312.14a3447043.134 3447043.134 0 0 0-18.447 1.122 235123.909 235123.909 0 0 1-86.928 5.271l-2.14.13c-11.328.685-22.656 1.375-33.983 2.067-11.39.695-22.78 1.386-34.17 2.073-6.162.372-12.323.745-18.484 1.124-5.65.347-11.301.689-16.952 1.027-2.033.122-4.067.247-6.1.373-9.657.6-19.293 1.09-28.97 1.128l-2.274.016c-26.282-.093-50.677-12.16-69.605-29.909-16.742-17.623-28.011-41.717-27.94-66.192l-.006-2.348c-.005-2.599-.003-5.198 0-7.797l-.007-5.667c-.007-5.213-.007-10.426-.006-15.64 0-5.663-.006-11.326-.011-16.99-.01-11.242-.014-22.484-.016-33.726-.002-9.35-.006-18.7-.012-28.05l-.002-2.04-.005-8.225c-.021-33.23-.032-66.461-.041-99.692l-.01-32.33-.001-2.303-.003-9.228c-.018-52.618-.034-105.235-.041-157.853l-.002-12.398a221178570.988 221178570.988 0 0 1-.005-32.398c-.007-53.479-.03-106.957-.062-160.436a272752.406 272752.406 0 0 1-.06-192.999c-.003-24.605-.017-49.21-.037-73.815a61159.665 61159.665 0 0 1-.016-84.648v-2.037c.004-11.27-.008-22.54-.025-33.81-.014-9.81-.012-19.622 0-29.434.007-5.59.008-11.179-.01-16.769-.015-5.092-.011-10.183.006-15.275.003-1.824 0-3.648-.011-5.473-.165-28.846 9.832-54.322 29.761-75.365 19.577-18.72 43.916-27.61 70.686-28.885l2.95-.148c3.205-.16 6.412-.315 9.618-.47l6.73-.332c4.701-.232 9.403-.461 14.104-.689 5.993-.29 11.985-.586 17.977-.884 4.636-.23 9.271-.456 13.907-.682l6.622-.327c11.394-.565 22.745-1.085 34.156-.895l.869-1.82c1.573-3.031 3.657-5.627 5.756-8.305l1.36-1.744c.912-1.167 1.825-2.334 2.74-3.499a402.53 402.53 0 0 0 3.29-4.284C335.046 357.05 347.149 346.888 364 340l2.059-.902c4.9-1.92 9.881-2.535 15.086-3.082l2.4-.259c8.68-.916 17.373-1.633 26.073-2.326l5.41-.439c4.904-.397 9.807-.79 14.71-1.183 5.31-.426 10.618-.856 15.927-1.284a83795.68 83795.68 0 0 1 38.367-3.086l18.12-1.455a230537.477 230537.477 0 0 1 75.911-6.088l3.918-.314c20.94-1.677 41.88-3.364 62.818-5.053 21.55-1.74 43.1-3.47 64.65-5.194 12.08-.966 24.158-1.936 36.236-2.914 10.285-.833 20.571-1.66 30.858-2.476 5.237-.416 10.473-.835 15.71-1.264 54.905-4.487 100.336-3.412 143.81 34.694Z"/>
            <path fill="#FEFEF1" d="m1077.068 339.818 2.62.008c10.428.103 20.78.997 31.164 1.897a7391.276 7391.276 0 0 1 20.522 1.723 11414.108 11414.108 0 0 0 25.849 2.168l7.53.627c3.782.314 7.565.63 11.348.946 22.1 1.843 44.206 3.586 66.316 5.287 7.373.568 14.746 1.138 22.12 1.708l5.382.416a18257.548 18257.548 0 0 1 57.203 4.52l20.705 1.663c15.282 1.229 30.563 2.45 45.845 3.67 10.73.856 21.458 1.715 32.186 2.579a144415.356 144415.356 0 0 0 15.772 1.269 8117.825 8117.825 0 0 0 41.155 3.201c5.187.392 10.372.792 15.558 1.193 4.765.367 9.531.721 14.299 1.064 2.898.212 5.795.437 8.692.666 1.934.149 3.868.281 5.803.413 8.982.73 17.277 2.546 24.426 8.352l1.94 1.542C1555 386 1555 386 1556 387c.099 2.185.124 4.374.124 6.562l.004 2.116c.003 2.375-.001 4.75-.005 7.125a9353.504 9353.504 0 0 1 0 19.398c-.004 5.154-.002 10.308 0 15.461.002 9.048 0 18.095-.004 27.142-.006 13.453-.006 26.906-.005 40.36.001 22.626-.002 45.252-.008 67.878a311442.787 311442.787 0 0 0-.012 88.409l-.003 47.38v2.179a922603.003 922603.003 0 0 1-.022 141.475v2.284a1118061.216 1118061.216 0 0 0-.018 157.062 6027697.918 6027697.918 0 0 1-.009 94.196c-.008 86.233-.022 172.467-.042 284.973-3.536.007-7.073.011-10.61.015l-3.02.006c-6.559.005-13.074-.125-19.618-.6l-2.844-.188c-3.02-.2-6.038-.412-9.056-.624l-6.51-.438a8209.6 8209.6 0 0 1-17.18-1.177c-5.961-.411-11.923-.814-17.884-1.218-24.682-1.676-49.36-3.397-74.032-5.196-20.379-1.486-40.769-2.777-61.164-4.01-20.153-1.226-40.296-2.59-60.44-3.963a30041.593 30041.593 0 0 0-61.844-4.149c-10.225-.679-20.45-1.357-30.676-2.033a62888.257 62888.257 0 0 1-26.65-1.77c-17.622-1.172-35.24-2.405-52.849-3.756-40.495-3.077-79.088 3.855-110.81 30.976a651.81 651.81 0 0 0-3.043 2.68c-2.532 2.235-5.126 4.346-7.77 6.445-.066-88.473-.128-176.946-.17-277.812l-.001-4.154a1425978.415 1425978.415 0 0 1-.05-137.588c-.013-33.9-.028-67.8-.054-101.7l-.001-2.208-.027-35.24c-.027-33.844-.051-67.688-.062-101.532v-2.11a332245.623 332245.623 0 0 1-.015-64.323v-2.04c-.004-21.675-.021-43.35-.045-65.024a48781.02 48781.02 0 0 1-.029-67.355c.003-12.94-.005-25.881-.03-38.821-.014-8.649-.015-17.298-.003-25.946.006-4.925.005-9.85-.013-14.775-.016-4.49-.013-8.98.003-13.47.003-1.605 0-3.21-.012-4.815-.192-28.69 10.189-54.377 30.286-74.927 6.763-6.587 13.953-11.566 22.223-16.16l2.14-1.203c13.454-7.122 27.73-11.045 42.928-10.979Zm-173.383 22.543C923.755 379.21 936.42 402.047 940 428c.486 5.663.4 11.347.37 17.026a2899.728 2899.728 0 0 1-.002 18.77c-.012 4.991-.004 9.983 0 14.975.007 8.742.002 17.484-.01 26.226-.019 12.999-.02 25.997-.017 38.996.004 21.868-.006 43.736-.024 65.603-.018 21.65-.03 43.299-.032 64.948v2.04c-.002 6.145-.002 12.291-.003 18.437-.002 15.277-.005 30.554-.009 45.83v2.109c-.008 33.818-.027 67.636-.047 101.455l-.02 35.197-.001 2.205a347321.657 347321.657 0 0 0-.041 108.118l-.012 43.693a1875807.622 1875807.622 0 0 1-.026 91.073c-.026 88.291-.071 176.582-.126 275.299l-1.412-1.218-1.875-1.615-1.85-1.593c-20.08-16.959-42.236-27.244-67.863-32.574l-3.426-.754c-20.788-3.937-43.125-.7-64.065.86-8.526.634-17.055 1.24-25.583 1.847l-6.182.442c-25.313 1.81-50.637 3.463-75.961 5.109a120853.278 120853.278 0 0 0-39.084 2.55 70475.383 70475.383 0 0 0-101.838 6.747l-14.53.97a268687.403 268687.403 0 0 0-107.875 7.213c-5.604.375-11.209.75-16.813 1.128l-10.062.675-4.468.3a1530.86 1530.86 0 0 1-24.115 1.445l-2.637.137L364 1392a494807.728 494807.728 0 0 1-.356-381.539 1266211.535 1266211.535 0 0 0-.031-52.064 159142.202 159142.202 0 0 0-.144-143.835c-.046-34.985-.089-69.97-.107-104.955l-.001-2.18a202567.482 202567.482 0 0 1-.025-66.415v-2.106a44509.42 44509.42 0 0 0-.08-67.235c-.043-23.197-.061-46.394-.05-69.59.005-13.384-.01-26.766-.052-40.149-.026-8.928-.027-17.856-.007-26.785.01-5.094.01-10.188-.021-15.283-.028-4.63-.025-9.259.005-13.89a336.26 336.26 0 0 0-.022-5.007c-.138-12.432-.138-12.432 2.426-16.256 1.763-1.55 3.378-2.654 5.465-3.711l2.293-1.426 1.895-.886 1.917-.926c3.8-1.528 7.467-1.967 11.538-2.271l3.47-.265 3.774-.277c1.997-.15 3.994-.302 5.99-.453 2.132-.161 4.263-.32 6.394-.479 6.725-.501 13.45-1.013 20.174-1.525l6.801-.516a5539.483 5539.483 0 0 0 36.629-2.913 57425.688 57425.688 0 0 1 14.85-1.224c9.287-.762 18.576-1.505 27.865-2.245l2.347-.187a271751.795 271751.795 0 0 1 19.32-1.54 14129.66 14129.66 0 0 0 66.306-5.43c21.524-1.816 43.056-3.487 64.597-5.093a5491.476 5491.476 0 0 0 63.974-5.152c22.593-1.95 45.198-3.717 67.81-5.425l6.095-.46c2.474-.188 4.95-.374 7.424-.559 5.793-.438 11.573-.923 17.35-1.542 27.16-2.562 52.644 5.001 73.872 22.155Z"/>
            <path fill="#598470" d="M276 433c-2.575 4.595-5.1 8.553-8.563 12.563a1301.608 1301.608 0 0 0-4.043 4.766c-3.794 4.548-7.4 9.25-11.033 13.927a623.596 623.596 0 0 1-4.033 5.1c-17.015 21.451-23.656 44.157-23.585 71.267l-.01 5.368c-.01 4.918-.007 9.835-.002 14.752.003 5.35-.005 10.7-.012 16.049-.01 9.376-.013 18.752-.011 28.128.003 13.942-.006 27.883-.016 41.825a114389.435 114389.435 0 0 0-.027 87.752v2.184c0 15.977-.005 31.955-.01 47.932l-.006 19.739v2.203a383793.77 383793.77 0 0 0-.02 164.864c.002 49.68-.013 99.36-.04 149.04-.008 12.521-.015 25.043-.021 37.565l-.001 2.336a171006.038 171006.038 0 0 0-.023 73.526 353035.114 353035.114 0 0 0-.001 71.036c0 23.225-.011 46.45-.029 69.675a57757.1 57757.1 0 0 0-.007 72.098c.007 13.863.004 27.725-.016 41.588-.012 9.249-.01 18.498.005 27.747.008 5.276.01 10.553-.007 15.83-.014 4.795-.01 9.591.008 14.387.003 1.729 0 3.457-.01 5.185a530.51 530.51 0 0 0 .014 7.024v3.933c.75 5.431 2.918 9.11 6.936 12.924 4.252 2.8 7.648 3.96 12.741 3.764l3.211-.11 3.595-.163 3.936-.155c21.169-.865 42.324-2.122 63.477-3.301 5.958-.332 11.916-.66 17.875-.99 12.165-.67 24.33-1.344 36.495-2.02 16.61-.922 33.219-1.84 49.828-2.757l23.286-1.286 2.354-.13c18.424-1.018 36.849-2.038 55.273-3.058l2.439-.135a3598082.952 3598082.952 0 0 0 76.022-4.21l2.446-.135 55.303-3.059 2.348-.13 23.205-1.281c16.595-.916 33.19-1.834 49.784-2.756 12.082-.67 24.163-1.34 36.244-2.006 6.542-.36 13.083-.723 19.624-1.087 5.988-.334 11.976-.665 17.964-.994l6.494-.361c20.806-1.167 20.806-1.167 29.619-.953l1.688 3.367c4.377 8.592 8.775 16.456 15.312 23.633l1.563 1.84c11.946 13.171 31.578 21.724 49.025 23.532 3.643.141 7.266.17 10.912.146 1.377.005 2.754.012 4.13.02 3.69.019 7.38.012 11.07 0 3.894-.01 7.786-.001 11.679.005 6.533.007 13.065-.002 19.598-.022 7.513-.021 15.026-.014 22.54.008 6.493.018 12.986.02 19.479.01 3.86-.006 7.72-.007 11.579.006 3.631.012 7.262.003 10.894-.02 1.94-.007 3.88.005 5.82.017 11.883-.112 23.41-2.662 33.961-8.292l2.004-1.04c18.755-9.978 29.918-24.294 38.746-43.21 7.058-.059 14.067.082 21.113.484l2.908.159c3.198.175 6.396.354 9.595.534l6.97.383c6.37.351 12.742.706 19.113 1.06 6.169.344 12.338.685 18.508 1.025 12.618.696 25.236 1.395 37.855 2.096 17.235.957 34.47 1.91 51.705 2.862l24.105 1.331 2.438.135a497496.526 497496.526 0 0 1 59.936 3.316 2987113.081 2987113.081 0 0 1 78.913 4.37l2.535.14c19.099 1.058 38.198 2.116 57.297 3.17l2.433.135 24.053 1.329c17.215.95 34.43 1.903 51.644 2.859 12.548.697 25.097 1.391 37.645 2.083 6.797.375 13.593.751 20.39 1.13 6.222.347 12.445.691 18.669 1.033 2.25.124 4.499.249 6.748.375 20.605 2.73 20.605 2.73 39.427-3.009 4.94-5.201 6.25-9.026 6.253-16.164l.01-2.203c.007-2.455 0-4.91-.006-7.364l.01-5.334c.01-4.918.007-9.836.002-14.754-.003-5.339.005-10.677.012-16.016.01-9.367.013-18.735.011-28.102-.003-13.93.006-27.86.016-41.79a114050.305 114050.305 0 0 0 .027-87.698v-2.185c0-15.97.005-31.941.01-47.912l.006-19.724v-2.201a383409.826 383409.826 0 0 0 .02-164.84c-.002-49.653.013-99.305.04-148.957l.021-37.514.001-2.333c.013-23.738.02-47.476.023-71.214v-2.259a353032.366 353032.366 0 0 0 .001-71.042c0-23.204.011-46.407.029-69.61.017-24.032.02-48.063.007-72.094-.007-13.851-.004-27.703.016-41.554.012-9.256.01-18.511-.005-27.767-.008-5.272-.01-10.543.007-15.815.015-4.804.01-9.609-.008-14.413-.003-1.719 0-3.438.01-5.157.172-29.058-9.617-52.754-28.099-74.855-3.556-4.26-6.934-8.646-10.289-13.067l-1.642-2.163-3.085-4.066c-2.404-3.151-4.86-6.261-7.324-9.364C1644 434 1644 434 1644 433c15.127-.226 30.192.37 45.3 1.117 3.354.166 6.71.316 10.066.463 3.27.147 6.54.31 9.81.47l3.577.153c19.987 1.05 35.838 6.9 49.872 21.36 12.722 14.656 14.831 31.348 14.753 49.994a3683.172 3683.172 0 0 1 .008 21.123c-.008 5.617.002 11.233.01 16.85.01 9.843.01 19.686.002 29.529-.008 10.559-.01 21.118-.004 31.676l.001 2.023.005 8.157c.016 25.31.017 50.62.009 75.931v2.272l-.002 2.275a140667.476 140667.476 0 0 0-.002 91.697c.003 17.21.004 34.421.005 51.632v2.374c.002 24.973-.002 49.945-.008 74.918v2.454l-.012 39.46c-.014 52.162-.013 104.326.001 156.489a2133608.936 2133608.936 0 0 1 .011 41.888c.007 24.945.01 49.891.008 74.837v2.373a483965.154 483965.154 0 0 1-.009 74.621c-.003 22.87 0 45.74.007 68.61v2.272l.002 2.267a79299.254 79299.254 0 0 1-.016 83.848l-.001 2.016c-.006 11.17 0 22.339.008 33.508.007 9.717.003 19.433-.01 29.15-.008 5.538-.01 11.077 0 16.615.01 5.041.006 10.082-.009 15.122-.003 1.81 0 3.62.007 5.43.083 21.16-4.614 37.009-19.116 52.92-11.43 11.154-28.016 16.257-43.64 16.193-8.348-.2-16.68-.789-25.014-1.302l-6.567-.396c-6-.362-12-.728-18.001-1.094-6.477-.395-12.955-.787-19.432-1.178-11.221-.68-22.442-1.36-33.663-2.043-16.24-.988-32.479-1.972-48.719-2.954l-22.718-1.375-2.297-.139a408572.29 408572.29 0 0 1-54.096-3.278l-2.39-.145a1037514.478 1037514.478 0 0 1-74.341-4.511l-2.387-.145a285788.23 285788.23 0 0 0-53.98-3.272l-2.294-.14-22.674-1.37c-16.218-.981-32.436-1.964-48.653-2.952-11.825-.72-23.65-1.437-35.475-2.15-6.402-.387-12.804-.775-19.206-1.167-5.866-.36-11.732-.714-17.598-1.066-2.117-.127-4.233-.257-6.35-.387-35.537-2.272-35.537-2.272-67.028 13.102-7.32 6.87-12.434 15.923-16.75 24.875-7.883 10.95-20.614 14.74-33.352 17.035-9.87 1.486-19.781 1.244-29.74 1.224l-6.646.01c-5.986.01-11.971.006-17.957 0-6.283-.005-12.567 0-18.85.002-11.225.004-22.45-.002-33.675-.012-10.151-.009-20.302-.007-30.453.002-11.823.01-23.645.014-35.468.009-6.246-.004-12.491-.004-18.737.003-5.874.005-11.749.001-17.623-.01-2.147-.003-4.294-.002-6.44.002-19.811.037-40.761-.172-56.73-13.68-3.102-3.25-5.026-6.867-7.03-10.872-7.3-14.528-18.675-24.901-34.186-30.092-15.288-4.477-31.493-2.56-47.201-1.585l-5.64.338c-5.125.307-10.25.62-15.375.935-5.546.339-11.093.672-16.639 1.006-9.611.58-19.222 1.163-28.833 1.748-13.968.851-27.937 1.697-41.905 2.541-22.763 1.376-45.526 2.756-68.289 4.14a324531.96 324531.96 0 0 1-65.813 3.991l-2.037.124a1800705.33 1800705.33 0 0 1-62.094 3.76l-3.909.236c-20.015 1.212-40.029 2.426-60.043 3.64-18.89 1.147-37.781 2.292-56.672 3.435-10.413.63-20.825 1.262-31.237 1.898-6.484.395-12.968.79-19.453 1.181-4.258.258-8.516.518-12.774.78-3.115.19-6.23.378-9.345.565l-3.249.202c-19.458 1.157-36.872-.667-52.453-13.599-12.196-11.09-20.583-25.234-21.43-42.018-.144-4.843-.12-9.685-.1-14.53a3697.872 3697.872 0 0 1-.008-21.165c.008-5.628-.002-11.255-.01-16.883-.01-9.863-.01-19.725-.002-29.588.008-10.58.01-21.16.004-31.74l-.001-2.026-.005-8.173c-.016-25.36-.017-50.72-.009-76.081v-2.276l.002-2.28a141216.023 141216.023 0 0 0 .002-91.875c-.003-17.243-.004-34.487-.005-51.73v-2.38c-.002-25.02.002-50.04.008-75.06v-2.46l.012-39.533c.014-52.266.013-104.531-.001-156.797l-.01-39.514-.001-2.458c-.007-24.994-.01-49.988-.008-74.982v-2.378a485770.984 485770.984 0 0 1 .009-74.761c.003-22.915 0-45.83-.007-68.746v-2.276l-.002-2.272a79600.773 79600.773 0 0 1 .016-84.008l.001-2.02c.006-11.193 0-22.385-.008-33.578-.007-9.734-.003-19.468.01-29.203.008-5.55.01-11.1 0-16.65-.01-5.049-.006-10.098.009-15.148.003-1.815 0-3.63-.007-5.444-.074-19.081 3.508-34.543 17.221-48.783L163 452l1.637-1.703c12.191-11.67 29.304-14.592 45.465-15.246l3.989-.19a1607.7 1607.7 0 0 1 8.315-.37c3.496-.146 6.992-.307 10.488-.473 14.37-.68 28.718-1.252 43.106-1.018Z"/>
            <path fill="#FEFBE4" d="m843.072 1399.927 2.171-.003c22.522.08 46.45 9.242 62.644 25.033 2.097 2.105 2.097 2.105 4.582 3.938 7.197 5.986 12.526 14.692 17.219 22.73.35.592.702 1.183 1.063 1.792.948 1.685.948 1.685 2.249 4.583l-1 3-3.086.48c-32.745 5.3-65.441 18.448-87.851 43.84-4.096 3.335-10.016 2.875-15.115 3.173l-2.084.124c-2.295.136-4.591.268-6.887.399l-4.971.29c-4.515.264-9.03.524-13.544.782-2.842.162-5.683.326-8.524.49-34.483 1.995-68.974 3.822-103.47 5.571-19.908 1.01-39.805 2.082-59.695 3.406-10.086.67-20.179 1.217-30.273 1.758l-6.82.369c-15.61.843-31.221 1.663-46.832 2.482l-2.958.155-24.43 1.281a25199.32 25199.32 0 0 0-101.245 5.498l-2.09.117c-15.633.876-31.27 1.703-46.907 2.527-12.493.66-24.984 1.352-37.472 2.11l-3.512.213c-5.507.335-11.013.675-16.519 1.021l-5.867.363-2.634.17c-5.416.333-10.788.43-16.214.381 8.313-13.197 17.078-26.07 25.871-38.95 4.218-6.177 8.424-12.363 12.629-18.55l4.285-6.3c2.76-4.06 5.518-8.12 8.274-12.18 1.293-1.903 2.585-3.805 3.879-5.707l1.714-2.532a159.43 159.43 0 0 1 3.426-4.841c2.044-2.915 2.044-2.915 3.302-6.395 2.01-4.515 4.384-7.886 8.62-10.545 9.756-3.066 20.52-2.991 30.672-3.444 4.193-.201 8.38-.48 12.57-.75 7.145-.45 14.292-.852 21.442-1.221 10.222-.528 20.44-1.13 30.656-1.751a8729.884 8729.884 0 0 1 46.763-2.713 4742.454 4742.454 0 0 0 49.354-2.992l3.217-.212c4.047-.267 8.094-.535 12.141-.805a4724.07 4724.07 0 0 1 18.41-1.188c19.851-1.246 39.69-2.62 59.529-4.05 29.34-2.114 58.688-4.091 88.038-6.057l15.468-1.04c18.912-1.276 37.825-2.541 56.74-3.777l3.04-.199c4.98-.324 9.96-.643 14.94-.948 1.927-.118 3.854-.241 5.78-.365 6.442-.382 12.86-.552 19.312-.561Zm264.898 1.386c2.159.142 4.317.284 6.475.424 5.825.382 11.65.77 17.474 1.16 6.17.412 12.338.817 18.507 1.224 10.398.685 20.795 1.375 31.192 2.068 13.16.877 26.32 1.747 39.48 2.615a121785.238 121785.238 0 0 1 45.276 2.995c28.15 1.864 56.293 3.791 84.43 5.84a3144.26 3144.26 0 0 0 42.758 2.799l6.675.398 2.716.162c10.755.649 21.505 1.367 32.254 2.123l2.151.151c7.41.521 14.819 1.05 22.226 1.598 3.794.28 7.587.558 11.38.833l2.31.168c11.671.84 23.344 1.487 35.031 2.047 5.191.254 10.38.535 15.57.817 4.987.267 9.973.488 14.964.676 3.098.127 6.192.298 9.287.482 1.432.075 2.866.133 4.3.17 10.818.296 10.818.296 15.12 4.316 2.051 2.787 3.783 5.594 5.454 8.621l2.199 3.147 1.703 2.517 1.981 2.92 2.054 3.041 3.345 4.933 3.44 5.078c3.626 5.356 7.265 10.703 10.903 16.052l2.134 3.138c4.618 6.79 9.24 13.577 13.866 20.362l1.82 2.669a5969.58 5969.58 0 0 0 9.825 14.37l2.112 3.085a4731.35 4731.35 0 0 0 4.048 5.898l1.816 2.653 1.615 2.353C1637 1537 1637 1537 1637 1538c-21.007-.689-41.982-1.826-62.966-3-4.935-.276-9.87-.55-14.804-.822l-22.387-1.243a82323.609 82323.609 0 0 0-48.154-2.661 1018252.815 1018252.815 0 0 0-51.437-2.834 1785059.469 1785059.469 0 0 0-49.122-2.708l-44.962-2.478-3.718-.205c-42.67-2.35-85.342-4.685-128.014-7.008-129.07-7.027-129.07-7.027-133.78-11.037l-2.156-2.441c-22.77-23.834-54.836-34.819-86.5-40.563 1.497-10.404 9.44-19.203 16-27l2.312-3.062c27.467-30.023 62.937-32.175 100.659-29.625Z"/>
            <path fill="#FEFEF3" d="M322 439h1c.165 88.742.322 177.484.423 276.51l.005 4.132c.029 28.92.056 57.84.08 86.76a821978.504 821978.504 0 0 0 .045 50.159c.03 33.74.07 67.478.134 101.217l.004 2.198.068 35.078c.066 33.685.126 67.37.152 101.056l.002 2.1a131605.008 131605.008 0 0 1 .036 64.002v2.03c.012 21.575.054 43.149.114 64.723.061 22.344.087 44.687.072 67.031-.008 12.881.013 25.762.073 38.643.037 8.605.039 17.21.01 25.816-.015 4.903-.014 9.805.03 14.708.041 4.466.036 8.93-.007 13.398-.007 1.6.003 3.2.031 4.8.197 11.766-2.805 18.818-10.053 28.062-1.765 2.284-3.353 4.677-4.95 7.08a429431.657 429431.657 0 0 0-7.352 10.762l-1.97 2.885c-2.497 3.655-4.991 7.311-7.485 10.968a8984.151 8984.151 0 0 1-3.667 5.373c-3.099 4.54-6.188 9.087-9.257 13.647-1.566 2.326-3.135 4.65-4.704 6.974-.76 1.128-1.52 2.257-2.276 3.387-1.053 1.572-2.112 3.14-3.171 4.708l-1.837 2.734C266 1492 266 1492 264 1493c-.05-89.375-.097-178.75-.127-276.35l-.001-4.13a1881048.269 1881048.269 0 0 1-.038-136.815c-.01-33.718-.02-67.435-.04-101.153l-.001-2.197-.02-35.062c-.02-33.665-.039-67.331-.046-100.997v-2.098a438007.748 438007.748 0 0 1-.012-65.976 96049.4 96049.4 0 0 0-.034-64.689 65205.05 65205.05 0 0 1-.022-66.983c.003-12.875-.003-25.75-.021-38.625-.012-8.598-.012-17.195-.003-25.792.004-4.901.004-9.802-.01-14.702-.012-4.461-.01-8.922.003-13.382a699.22 699.22 0 0 0-.01-4.804c-.11-21.906 6.9-35.88 20.73-52.266 2.491-2.984 4.888-6.039 7.277-9.104l1.35-1.726a5161.45 5161.45 0 0 0 2.682-3.431c2.275-2.91 4.56-5.814 6.843-8.718l2.719-3.46a10553.211 10553.211 0 0 1 7.318-9.306l2.848-3.617c1.822-2.316 3.628-4.635 5.365-7.015L322 439Zm1275 0a110.65 110.65 0 0 1 10.125 11.438l2.918 3.75 1.49 1.921a1907.6 1907.6 0 0 0 6.905 8.829l1.367 1.744a1067.87 1067.87 0 0 0 8.628 10.825c2.538 3.152 5.054 6.32 7.567 9.493l1.601 2.01c13.201 16.664 18.721 30.758 18.645 52.215l.007 4.984c.006 4.57 0 9.142-.008 13.713-.007 4.97-.003 9.94 0 14.911.005 8.713.002 17.426-.007 26.14-.012 12.955-.012 25.911-.01 38.867.002 21.794-.005 43.588-.017 65.381-.011 21.582-.02 43.163-.021 64.745v2.031l-.002 18.368c-.001 15.22-.003 30.439-.006 45.658v2.1c-.005 33.71-.018 67.42-.031 101.13l-.014 35.093v2.198a517957.334 517957.334 0 0 0-.028 107.755 4191711.843 4191711.843 0 0 0-.024 130.16v4.125c-.019 88.007-.049 176.014-.085 274.416-3.012-2.97-5.712-5.761-8.023-9.309l-1.63-2.477-1.722-2.651c-1.25-1.9-2.502-3.8-3.754-5.7l-1.942-2.95c-3.036-4.585-6.136-9.125-9.242-13.663l-3.742-5.477-1.928-2.82c-3.658-5.356-7.307-10.717-10.955-16.078l-2.077-3.05a627.58 627.58 0 0 1-3.863-5.743c-2.048-3.057-2.048-3.057-4.225-5.696-6.46-8.417-7.027-15.795-6.881-25.996-.006-1.666-.016-3.333-.028-5-.025-4.571 0-9.142.034-13.713.027-4.977.008-9.953-.005-14.929a4639.63 4639.63 0 0 1 .03-26.155c.048-12.964.05-25.928.043-38.892-.01-21.808.016-43.616.064-65.425.048-21.593.078-43.186.087-64.779v-2.033l.008-18.384a161966.793 161966.793 0 0 1 .023-47.799c.021-33.73.072-67.458.124-101.188l.055-35.109.003-2.199a129599.084 129599.084 0 0 0 .11-107.825l.03-43.569a699671.44 699671.44 0 0 1 .069-90.817c.071-88.058.192-176.117.337-274.574Z"/>
            <path fill="#FEFEFE" d="m1077.068 339.818 2.62.008c10.428.103 20.78.997 31.164 1.897a7391.276 7391.276 0 0 1 20.522 1.723 11414.108 11414.108 0 0 0 25.849 2.168l7.53.627c3.782.314 7.565.63 11.348.946 22.1 1.843 44.206 3.586 66.316 5.287 7.373.568 14.746 1.138 22.12 1.708l5.382.416a18257.548 18257.548 0 0 1 57.203 4.52l20.705 1.663c15.282 1.229 30.563 2.45 45.845 3.67 10.73.856 21.458 1.715 32.186 2.579a144415.356 144415.356 0 0 0 15.772 1.269 8117.825 8117.825 0 0 0 41.155 3.201c5.187.392 10.372.792 15.558 1.193 4.765.367 9.531.721 14.299 1.064 2.898.212 5.795.437 8.692.666 1.934.149 3.868.281 5.803.413 8.982.73 17.277 2.546 24.426 8.352l1.94 1.542C1555 386 1555 386 1556 387c.099 2.185.124 4.374.124 6.562l.004 2.116c.003 2.375-.001 4.75-.005 7.125a9353.504 9353.504 0 0 1 0 19.398c-.004 5.154-.002 10.308 0 15.461.002 9.048 0 18.095-.004 27.142-.006 13.453-.006 26.906-.005 40.36.001 22.626-.002 45.252-.008 67.878a311442.787 311442.787 0 0 0-.012 88.409l-.003 47.38v2.179a922603.003 922603.003 0 0 1-.022 141.475v2.284a1118061.216 1118061.216 0 0 0-.018 157.062 6027697.918 6027697.918 0 0 1-.009 94.196c-.008 86.233-.022 172.467-.042 284.973h-12v-1h11V461c-6.8-2.04-12.302-3.51-19.172-4.038l-2.594-.226c-2.81-.241-5.62-.467-8.43-.693l-6.023-.509c-6.259-.527-12.52-1.032-18.781-1.534l-5.8-.469c-11.608-.936-23.218-1.84-34.83-2.736-11.105-.857-22.21-1.724-33.315-2.592l-3.49-.272c-25.293-1.976-50.58-4.026-75.865-6.087-42.973-3.503-85.952-6.94-128.935-10.311l-17.577-1.38-3.465-.273a12326.735 12326.735 0 0 1-46.469-3.743 23388.535 23388.535 0 0 0-15.264-1.254l-2.935-.24a8493.38 8493.38 0 0 1-16.718-1.392c-3.396-.285-6.791-.564-10.187-.84-1.535-.127-3.07-.256-4.603-.388-8.09-.696-16.124-1.13-24.245-1.143-.747 0-1.494-.002-2.264-.004-5.568.033-10.808.562-16.225 1.812l-2.521.55C1026.647 429.717 1004.09 444.757 985 467l-1.61 1.752c-1.87 3.023-1.767 5.15-1.769 8.695l-.014 1.968c-.011 2.19-.001 4.38.008 6.57a2662.815 2662.815 0 0 0-.017 17.928c.005 4.764-.007 9.528-.017 14.292-.015 8.359-.02 16.718-.016 25.076.005 12.43-.008 24.858-.024 37.287a59597.35 59597.35 0 0 0-.043 62.717 89008.74 89008.74 0 0 1-.057 85.613l-.035 39.851-.002 2.014c-.027 32.341-.043 64.682-.058 97.023l-.016 33.674v2.11a318440.514 318440.514 0 0 1-.07 103.365l-.034 41.754a1758486.878 1758486.878 0 0 0-.07 89.013c-.066 87.1-.113 174.199-.156 261.298h-1c-.066-88.884-.129-177.769-.17-276.954l-.001-4.14a1417185.026 1417185.026 0 0 1-.05-137.165c-.013-33.795-.028-67.59-.054-101.386l-.001-2.201-.027-35.13a212567.694 212567.694 0 0 1-.077-167.447v-2.035a72268.61 72268.61 0 0 0-.045-64.822 48482.32 48482.32 0 0 1-.029-67.148c.003-12.9-.005-25.8-.03-38.7a8578.27 8578.27 0 0 1-.003-25.867 3013 3013 0 0 0-.013-14.729c-.016-4.476-.013-8.952.003-13.428.003-1.6 0-3.2-.012-4.8-.193-28.672 10.204-54.353 30.286-74.888 6.763-6.587 13.953-11.566 22.223-16.16l2.14-1.203c13.454-7.122 27.73-11.045 42.928-10.979Zm-173.383 22.543C923.758 379.211 936.417 402.045 940 428c.486 5.643.4 11.305.37 16.963a2875.809 2875.809 0 0 1-.002 18.692c-.012 4.972-.004 9.943 0 14.915.007 8.706.002 17.412-.01 26.117-.019 12.946-.02 25.89-.017 38.836.004 21.777-.006 43.555-.024 65.333-.018 21.56-.03 43.12-.032 64.68v2.03c-.002 6.12-.002 12.241-.003 18.362l-.009 45.642v2.1c-.008 33.678-.027 67.357-.047 101.036a1627207.942 1627207.942 0 0 0-.021 37.248 344460.273 344460.273 0 0 0-.041 107.672l-.012 43.513a1860365.191 1860365.191 0 0 1-.026 90.697c-.026 88.648-.072 177.296-.126 274.164h-1l.001-2.426c.041-87.127.072-174.255.052-261.382l-.001-3.943a647880.888 647880.888 0 0 0-.04-124.33l-.001-6.271a117604.87 117604.87 0 0 1 .02-132.13 96650.198 96650.198 0 0 0-.02-159.458l-.002-3.87c-.013-20.578.002-41.155.027-61.731.024-20.677.02-41.354-.014-62.031-.02-12.291-.017-24.582.018-36.873.021-8.207.013-16.413-.018-24.62-.017-4.679-.022-9.356.009-14.035a822.55 822.55 0 0 0-.02-12.774c-.007-1.529-.001-3.058.02-4.587.134-10.386-1.89-16.76-9.031-24.539l-1.545-1.8c-17.612-19.919-43.017-32.685-69.017-37.075l-2.104-.365c-15.482-2.267-31.49-.372-46.979.928l-6.635.539c-4.716.383-9.432.77-14.148 1.162-7.501.622-15.003 1.234-22.506 1.845-9.042.737-18.085 1.476-27.127 2.217a28949.291 28949.291 0 0 1-64.27 5.182l-18.573 1.484c-19.611 1.569-39.223 3.133-58.834 4.692l-2.791.221-21.999 1.748a60795.12 60795.12 0 0 0-63.081 5.038l-2.833.228a78083.863 78083.863 0 0 0-41.14 3.32l-2.617.21c-11.527.93-23.055 1.84-34.584 2.73-2.26.174-4.518.35-6.777.525l-2.196.17-4.295.334c-4.67.363-9.34.717-14.012 1.07l-7.14.554-3.166.233c-8.875.7-17.167 1.989-25.631 4.81l-1 929h-1a492837.727 492837.727 0 0 1-.356-380.779 1261174.333 1261174.333 0 0 0-.031-51.96c-.022-34.966-.05-69.931-.094-104.896l-.003-2.28-.047-36.373c-.046-34.915-.089-69.83-.107-104.746l-.001-2.175a201761.77 201761.77 0 0 1-.025-66.283v-2.103c-.009-22.367-.038-44.734-.08-67.1-.043-23.151-.061-46.302-.05-69.452.005-13.357-.01-26.712-.052-40.069-.026-8.91-.027-17.82-.007-26.731.01-5.085.01-10.169-.021-15.253-.028-4.62-.025-9.24.005-13.861.005-1.666-.002-3.332-.022-4.998-.138-12.408-.138-12.408 2.426-16.229 1.763-1.549 3.379-2.654 5.465-3.712l2.293-1.426 1.895-.886 1.917-.926c3.8-1.528 7.467-1.967 11.538-2.271l3.47-.265 3.774-.277c1.997-.15 3.994-.302 5.99-.453 2.132-.161 4.263-.32 6.394-.479 6.725-.501 13.45-1.013 20.174-1.525l6.801-.516a5539.483 5539.483 0 0 0 36.629-2.913 57425.688 57425.688 0 0 1 14.85-1.224c9.287-.762 18.576-1.505 27.865-2.245l2.347-.187a271751.795 271751.795 0 0 1 19.32-1.54 14129.66 14129.66 0 0 0 66.306-5.43c21.524-1.816 43.056-3.487 64.597-5.093a5491.476 5491.476 0 0 0 63.974-5.152c22.593-1.95 45.198-3.717 67.81-5.425l6.095-.46c2.474-.188 4.95-.374 7.424-.559 5.793-.438 11.573-.923 17.35-1.542 27.16-2.562 52.644 5.001 73.872 22.155Z"/>
            <path fill="#45413C" d="m1119.793 594.469 4.766.472c3.415.338 6.83.678 10.244 1.02 9.273.93 18.548 1.841 27.822 2.754l2.912.287c20.475 2.017 40.96 3.924 61.448 5.811 28.266 2.605 56.521 5.291 84.766 8.111a7317.105 7317.105 0 0 0 53.51 5.15l2.886.267c9.367.866 18.733 1.728 28.1 2.58 16.84 1.533 33.676 3.098 50.49 4.88 1.562.164 3.125.325 4.688.482 2.152.216 4.301.448 6.451.683l3.672.387c5.397 1.012 10.254 2.644 13.764 7.085l1.426 1.746c3.451 4.968 3.86 8.87 3.262 14.816-1.135 6.091-4.078 9.54-8.672 13.555-14.978 9.298-47.222.27-64.261-1.376a43268.99 43268.99 0 0 0-68.131-6.514l-16.276-1.547c-22.398-2.129-22.398-2.129-44.797-4.255l-25.11-2.385-13.106-1.245c-19.742-1.87-39.475-3.8-59.198-5.856a2274.025 2274.025 0 0 0-31.125-3.01l-2.228-.2a9771.085 9771.085 0 0 0-18.713-1.672c-3.52-.312-7.041-.628-10.561-.948-1.926-.173-3.853-.34-5.78-.508-21.205-1.933-21.205-1.933-28.292-9.414-3.47-5.204-4.52-10.42-3.75-16.625 2.311-7.177 6.407-11.749 13.094-15.288 7.802-2.913 18.545-.07 26.699.757ZM833 1057c4.46 4.51 6.742 8.416 7.375 14.75-.177 5.517-1.944 10.679-5.77 14.725-4.45 4.112-7.868 5.57-13.835 6.232l-2.474.331c-2.762.356-5.527.664-8.296.962l-2.975.326c-8.105.87-16.22 1.618-24.337 2.361l-8.168.764c-7.533.705-15.066 1.4-22.6 2.095a75535.342 75535.342 0 0 0-42.55 3.939l-11.155 1.033c-23.802 2.204-47.593 4.486-71.374 6.904-22.86 2.321-45.738 4.436-68.622 6.519-17.116 1.558-34.23 3.137-51.332 4.836l-2.17.216c-7.397.734-14.794 1.477-22.19 2.23l-7.074.71-3.186.33c-10.116 1.012-17.429 1.425-26.267-4.263-4.582-4.353-5.75-9.257-6.313-15.438.545-6.202 1.965-10.708 6.688-14.937 5.434-4.441 11.137-5.093 17.898-5.738l2.82-.287c3.093-.311 6.187-.612 9.282-.912l6.584-.657c18.209-1.805 36.431-3.472 54.66-5.067 13.357-1.179 26.696-2.497 40.035-3.874a8214.674 8214.674 0 0 1 65.073-6.43l2.312-.22c9.467-.901 18.933-1.8 28.4-2.696l16.695-1.585 2.37-.225 11.824-1.124a36677.007 36677.007 0 0 1 32.517-3.079l2.276-.215a7269.478 7269.478 0 0 0 31.987-3.106c4.4-.435 8.798-.865 13.198-1.296 3.45-.338 6.9-.68 10.35-1.03 3.766-.38 7.532-.75 11.299-1.117l3.318-.346c8.784-.838 16.637-1.583 23.727 4.379Zm272.157-4.675 2.06.178c2.244.197 4.486.413 6.728.63a2273.84 2273.84 0 0 1 17.506 1.623c2.486.238 4.972.474 7.458.709a7287.07 7287.07 0 0 1 32.342 3.15c8.15.807 16.299 1.605 24.448 2.405l2.698.264a6580.587 6580.587 0 0 0 45.29 4.279 5390.309 5390.309 0 0 1 42.364 4.015c.7.07 1.4.14 2.123.21 5.846.58 11.691 1.162 17.537 1.745a8294.275 8294.275 0 0 0 57.64 5.553l2.871.266c9.311.861 18.622 1.72 27.935 2.568 10.95 1 21.898 2.022 32.843 3.08l2.604.251a2436.88 2436.88 0 0 1 15.51 1.55c1.604.164 3.208.325 4.812.482 18.516 1.818 18.516 1.818 24.097 6.365 4.638 5.925 6.893 10.595 5.977 18.352-1.705 7.218-5.223 11.024-11.25 15.313-7.116 3.8-17.186 1.382-24.914.62l-3.607-.345c-3.265-.313-6.53-.63-9.793-.95-2.795-.272-5.59-.541-8.385-.81a15731.13 15731.13 0 0 1-45.985-4.504l-2.115-.21a492756.394 492756.394 0 0 1-17.202-1.706c-25.866-2.568-51.742-5.014-77.624-7.408l-2.745-.254a2015707.86 2015707.86 0 0 0-19.126-1.77l-2.712-.25c-21.801-2.02-43.596-4.106-65.39-6.211l-8.773-.847-2.169-.21a8692.553 8692.553 0 0 0-31.174-2.947c-4.408-.41-8.817-.823-13.225-1.235-3.464-.324-6.928-.646-10.392-.962-3.776-.346-7.55-.698-11.325-1.052l-3.332-.3c-18.929-1.798-18.929-1.798-25.762-9.962-2.912-4.896-3.962-10.38-3-16 1.91-6.023 5.54-10.771 11-14 5.01-1.727 8.895-2.157 14.157-1.675ZM834 598c4.457 4.346 5.818 8.745 6.313 14.875-.181 5.26-1.338 9.87-4.86 13.89-5.306 4.837-10.753 6.33-17.848 7.094l-3.976.433-4.442.458-4.832.51c-17.996 1.878-36.018 3.486-54.037 5.127a7134.913 7134.913 0 0 0-60.325 5.77c-28.234 2.816-56.478 5.49-84.732 8.096a10112.377 10112.377 0 0 0-74.35 7.108c-8.596.856-17.192 1.701-25.789 2.545a7709.22 7709.22 0 0 0-17.495 1.733c-4.414.443-8.83.868-13.247 1.274a469.11 469.11 0 0 0-4.39.433c-8.627.889-16.208 1.398-23.33-4.178-4.846-6.008-7.237-11.029-7.039-18.863.905-5.506 4.381-9.262 8.129-13.18 6.895-4.509 15.573-4.598 23.605-5.316l3.417-.32c2.482-.232 4.965-.462 7.447-.689 4.09-.374 8.178-.754 12.267-1.136l4.373-.41 2.243-.209 6.957-.648c12.334-1.147 24.665-2.324 36.996-3.51a55744878.107 55744878.107 0 0 1 14.57-1.402c35.284-3.396 70.574-6.724 105.87-9.989 21.321-1.972 42.64-3.962 63.942-6.121l2.838-.288 2.808-.284a9323.44 9323.44 0 0 1 47.74-4.701c2.84-.273 5.68-.548 8.52-.825 3.95-.384 7.901-.763 11.852-1.14l3.57-.35c10.465-.99 18.096-1.685 27.235 4.213Zm-2 611c1.926 1.684 1.926 1.684 3.313 3.438l1.425 1.746c3.451 4.968 3.86 8.87 3.262 14.816-1.119 6.004-4.023 9.514-8.477 13.555-6.609 3.785-15.063 3.956-22.503 4.672l-3.283.328c-3.641.363-7.283.716-10.924 1.07l-5.879.58c-25.586 2.525-51.189 4.88-76.79 7.244a10806.244 10806.244 0 0 0-79.468 7.612l-2.184.217-10.777 1.07-2.124.21c-15.485 1.537-30.975 3.03-46.466 4.505l-3.836.365a15481.13 15481.13 0 0 1-47.663 4.454 24738.824 24738.824 0 0 1-28.026 2.57c-2.464.225-4.928.45-7.392.673-5.752.528-11.479 1.134-17.208 1.875-8.336.576-13.57-.218-20.688-4.688-4.427-4.427-6.532-9.032-6.812-15.312.295-6.013 2.037-10.336 6.125-14.758 8.076-6.966 20.032-6.528 30.202-7.444l3.4-.317c3.698-.344 7.398-.682 11.097-1.02l7.894-.733c5.587-.52 11.174-1.036 16.762-1.55a38200.497 38200.497 0 0 0 48.249-4.481c24.182-2.252 48.355-4.589 72.521-7.01a8752.624 8752.624 0 0 1 81.318-7.743c16.494-1.496 32.983-3.024 49.46-4.714l4.205-.43c6.467-.661 12.933-1.334 19.397-2.023 32.517-3.412 32.517-3.412 41.87 1.223Zm284.953-768.152 2.859.278c3.146.307 6.292.622 9.438.937l6.863.672c6.96.682 13.918 1.372 20.876 2.065a82074.266 82074.266 0 0 0 40.499 4.02c24.53 2.433 49.07 4.726 73.62 6.963a6661.583 6661.583 0 0 1 69.198 6.647 5078.928 5078.928 0 0 0 53.322 5.115 13366.565 13366.565 0 0 1 40.589 3.755c5.399.508 10.796 1.032 16.19 1.592 1.493.152 2.986.3 4.48.44 1.98.189 3.959.4 5.937.613l3.222.329c6.357 1.562 10.227 5.653 13.954 10.726 2.708 4.9 2.849 10 1.348 15.305-2.18 5.555-5.224 9.549-10.348 12.695-10.358 3.5-24.532.766-35.133-.363-1.468-.15-2.935-.3-4.403-.447-3.18-.323-6.36-.65-9.54-.98-8.96-.93-17.925-1.826-26.889-2.726l-2.938-.295c-25.964-2.609-51.947-4.995-77.93-7.395-34.62-3.2-69.236-6.427-103.825-9.955a4603.808 4603.808 0 0 0-49.03-4.75l-2.655-.242c-8.58-.783-17.16-1.56-25.741-2.324-3.125-.28-6.25-.561-9.375-.844-1.442-.13-2.884-.258-4.327-.384-26.788-2.344-26.788-2.344-33.214-9.295-3.63-4.805-4.668-9.576-4.375-15.547.942-6.16 3.502-10.063 8.375-13.89 8.243-5.91 19.409-3.688 28.953-2.715Zm10.84 460.656 4.812.48c3.415.34 6.829.686 10.243 1.035 8.248.842 16.498 1.659 24.748 2.477l5.684.565c19.033 1.894 38.077 3.643 57.127 5.349 24.842 2.224 49.67 4.545 74.488 7.023a5840.351 5840.351 0 0 0 57.023 5.38c22.345 2.008 44.685 4.068 67.014 6.242a5709.674 5709.674 0 0 1 16.97 1.648l3.236.309c4.966.496 9.908 1.084 14.837 1.866l2.605.413c5.599 1.64 9.19 5.941 12.42 10.584 1.965 6.14 1.697 12.247-.828 18.203-2.947 4.833-7.046 8.18-12.36 10.034-4.023.937-7.03.922-11.131.544l-2.1-.183a829.23 829.23 0 0 1-6.815-.641c-1.613-.147-3.226-.292-4.838-.437-4.169-.376-8.335-.768-12.501-1.165-3.04-.288-6.08-.568-9.12-.847a6502.16 6502.16 0 0 1-26.247-2.474c-4.01-.384-8.02-.766-12.03-1.148l-2.469-.234a478432.601 478432.601 0 0 0-12.347-1.176 13655.874 13655.874 0 0 0-34.218-3.218l-3.841-.358c-19.776-1.84-39.549-3.706-59.315-5.646l-2.502-.246a142999.353 142999.353 0 0 1-20.468-2.01c-33.63-3.304-67.274-6.436-100.926-9.502-4.232-.386-8.464-.773-12.696-1.163-6.684-.615-13.368-1.225-20.058-1.771l-2.948-.251a430.347 430.347 0 0 0-5.008-.396c-6.179-.536-12.61-1.735-17.574-5.622-4.846-6.008-7.237-11.029-7.039-18.863.9-5.479 4.382-9.637 8.441-13.242 9.956-6.99 28.12-2.769 39.731-1.56ZM833 751c4.46 4.51 6.742 8.416 7.375 14.75-.177 5.52-1.951 10.653-5.75 14.723-4.59 4.277-8.248 5.609-14.415 6.29l-2.513.335A379.97 379.97 0 0 1 810 788l-2.319.26c-5.339.59-10.685 1.071-16.036 1.537-1.726.155-3.452.31-5.177.467-3.654.33-7.31.657-10.964.98-8.768.778-17.534 1.574-26.3 2.369l-5.965.54a6921.296 6921.296 0 0 0-55.35 5.255 8231.176 8231.176 0 0 1-70.577 6.654 6902.87 6902.87 0 0 0-63.625 6 157937.311 157937.311 0 0 1-22.324 2.209l-3.67.363-7.457.74c-7.365.73-14.731 1.453-22.098 2.166-2.259.22-4.517.441-6.775.667-34.084 3.398-34.084 3.398-43.363-1.207-5.495-4.603-7.691-9.811-8.375-16.875.179-5.51 2.306-9.81 5.953-13.89 5.506-5.11 11.57-6.325 18.962-7.01 1.906-.18 1.906-.18 3.85-.366l4.16-.375 4.4-.412c3.96-.37 7.919-.734 11.879-1.095 4.195-.384 8.39-.776 12.585-1.167 15.76-1.465 31.522-2.899 47.285-4.322l3.978-.359c10.965-.99 10.965-.99 15.81-1.425 24.397-2.196 48.775-4.565 73.152-6.964a8748.414 8748.414 0 0 1 79.876-7.506 3961.146 3961.146 0 0 0 41.73-3.941l7.549-.754c7.293-.726 14.585-1.456 21.876-2.208 2.974-.305 5.948-.602 8.923-.897 1.377-.139 2.753-.28 4.13-.426 20.019-2.112 20.019-2.112 27.277 3.992Zm-1 152c1.926 1.684 1.926 1.684 3.313 3.438l1.425 1.746c3.451 4.968 3.86 8.87 3.262 14.816-1.119 6.004-4.023 9.514-8.477 13.555-6.866 3.932-15.708 4.013-23.425 4.742l-3.518.345c-3.839.375-7.678.742-11.518 1.108l-6.102.592c-21.698 2.105-43.408 4.081-65.12 6.032A6110.752 6110.752 0 0 0 662.5 955a6490.256 6490.256 0 0 1-63.5 6c-21.656 1.945-43.3 3.98-64.938 6.125l-7.592.75c-14.073 1.39-14.073 1.39-28.144 2.792a5236.14 5236.14 0 0 1-15.29 1.5c-1.826.177-3.652.358-5.477.543-2.472.25-4.945.488-7.418.724l-2.122.223c-6.326.58-12.554.623-18.269-2.345-5.601-4.71-9.03-9.081-10.04-16.41-.405-6.227 1.358-10.137 5.29-14.902 6.814-7.124 15.798-7.25 25.152-8.078l2.976-.278c3.27-.303 6.54-.599 9.81-.894l7.085-.655c12.756-1.178 25.515-2.325 38.274-3.474a101178.015 101178.015 0 0 0 17.943-1.618c25.02-2.255 50.023-4.67 75.023-7.132 30.01-2.955 60.032-5.768 90.064-8.497 18.39-1.671 36.777-3.357 55.15-5.21l4.312-.433c6.516-.656 13.03-1.323 19.544-2.005 32.363-3.338 32.363-3.338 41.667 1.274Zm277.688-156.297 3.458.298c3.62.317 7.237.655 10.854.999l3.417.321a3307.23 3307.23 0 0 1 20.836 2.05c6.644.672 13.29 1.332 19.935 1.988l2.087.207c15.9 1.57 31.812 3.007 47.725 4.434a6823.46 6823.46 0 0 1 67.261 6.375c19.904 1.982 39.817 3.836 59.739 5.625a7763.15 7763.15 0 0 1 73.822 6.996l3.601.358 6.91.691c5.243.525 10.486 1.034 15.735 1.5l2.877.259c1.736.155 3.472.305 5.208.45 9.797.878 17.168 2.033 23.847 9.746 2.83 4.863 3.908 9.427 3 15-1.875 6.562-5.133 11.398-11 15-10.725 3.585-25.051.717-36.12-.423-2.676-.276-5.352-.542-8.03-.806-3.903-.385-7.806-.773-11.708-1.164-9.577-.952-19.16-1.845-28.742-2.743-6.127-.575-12.253-1.153-18.38-1.731l-17.512-1.649a24242.405 24242.405 0 0 1-74.563-7.097l-3.406-.33a269849.299 269849.299 0 0 1-24.414-2.37l-3.658-.354c-27.29-2.648-54.58-5.277-81.885-7.755l-3.104-.282c-9.62-.875-19.241-1.745-28.864-2.597a6499.18 6499.18 0 0 1-10.315-.925c-1.568-.141-3.136-.28-4.705-.416-22.237-1.93-22.237-1.93-28.93-8.37-3.868-4.622-5.29-9.996-5.008-15.98 1.084-6.33 4.523-10.667 9.27-14.781 6.765-4.001 13.215-3.238 20.762-2.524Z"/>
            <path fill="#45403B" d="m1127.61 1207.504 4.75.48c3.37.34 6.742.685 10.112 1.034 8.172.845 16.345 1.664 24.52 2.485l5.627.567c18.344 1.848 36.698 3.557 55.059 5.22a9157.8 9157.8 0 0 1 83.36 7.963 8825.74 8825.74 0 0 0 76.203 7.274c42.654 3.887 42.654 3.887 58.688 5.54 1.553.16 3.107.318 4.661.474 2.03.205 4.058.42 6.086.635l3.247.34c6.739 1.059 11.148 2.667 16.077 7.484 3.754 5.308 4.328 9.543 4 16-1.276 6.612-4.03 10.847-9.5 14.813-8.4 3.99-18.762 2.21-27.742 1.304l-2.953-.286c-3.227-.314-6.454-.635-9.68-.956l-6.985-.682c-11.965-1.171-23.928-2.37-35.89-3.58l-14.125-1.426-3.663-.37c-24.505-2.47-49.027-4.747-73.551-7.01-25.958-2.397-51.908-4.853-77.849-7.432l-4.344-.432-2.159-.214a142473.05 142473.05 0 0 0-12.788-1.27 11890.094 11890.094 0 0 0-47.246-4.579l-5.936-.566c-3.686-.352-7.372-.702-11.058-1.052l-3.493-.335a853.646 853.646 0 0 0-16.6-1.432l-3.153-.246a537.353 537.353 0 0 0-5.768-.411c-6.654-.515-13.48-1.46-18.857-5.67-4.846-6.008-7.237-11.029-7.039-18.863.9-5.479 4.382-9.637 8.441-13.243 9.925-6.968 27.972-2.78 39.547-1.558ZM833.25 444.313c4.729 4.62 6.57 8.496 6.938 15-.364 7.14-2.169 11.55-7.188 16.687-4.286 3.201-8.634 3.825-13.816 4.453l-2.853.366c-15.774 1.941-31.628 3.247-47.455 4.676-7.728.7-15.456 1.413-23.184 2.125l-5.884.541a6760.535 6760.535 0 0 0-53.189 5.127c-27.774 2.776-55.56 5.4-83.355 7.965-30.91 2.853-61.808 5.826-92.697 8.903a34769.231 34769.231 0 0 1-21.8 2.166c-2.892.288-5.785.571-8.677.854l-2.446.245c-21.037 2.032-21.037 2.032-29.644-2.421-5.495-4.603-7.691-9.811-8.375-16.875.179-5.51 2.306-9.81 5.953-13.89 7.067-6.558 15.528-6.707 24.758-7.497 1.233-.11 2.466-.222 3.736-.337 2.685-.241 5.37-.48 8.055-.715 4.33-.38 8.66-.77 12.99-1.16l2.24-.204 4.544-.41 6.974-.63c15.997-1.441 31.986-2.962 47.974-4.5l6.863-.66a25087.84 25087.84 0 0 0 72.88-7.127c26.981-2.67 53.971-5.256 80.964-7.813 16.602-1.574 33.203-3.167 49.803-4.76a105301.792 105301.792 0 0 1 22.981-2.202c6.904-.662 13.807-1.327 20.705-2.035 8.102-.768 15.345-.753 22.205 4.127Z"/>
            <path fill="#779A84" d="M1644 433c15.127-.226 30.192.37 45.3 1.117 3.354.166 6.71.316 10.066.463 3.27.147 6.54.31 9.81.47l3.577.153c19.987 1.05 35.838 6.9 49.872 21.36 13.717 15.803 14.823 33.63 14.668 53.609a4261.083 4261.083 0 0 1-.087 23.154c-.03 5.712-.044 11.423-.06 17.135-.032 11.18-.083 22.36-.146 33.539a3902.304 3902.304 0 0 1-5.283-4.508c-1.8-1.564-3.502-3.21-5.217-4.867-16.307-14.252-37.471-17.398-58.334-18.284l-2.17-.095-1.9-.072c-2.73-.227-5.4-.699-8.096-1.174l-.028-2.652c-.213-23.962-.213-23.962-4.972-47.348l-1.059-3.66c-4.598-14.368-12.96-25.77-22.527-37.211-3.556-4.26-6.934-8.646-10.289-13.067l-1.642-2.163-3.085-4.066c-2.404-3.151-4.86-6.261-7.324-9.364C1644 434 1644 434 1644 433Zm-1368 0c-2.575 4.595-5.1 8.553-8.563 12.563a1301.608 1301.608 0 0 0-4.043 4.766c-3.794 4.548-7.4 9.25-11.033 13.927a623.596 623.596 0 0 1-4.033 5.1c-16.77 21.143-23.38 43.625-23.953 70.332-.038 1.491-.077 2.983-.117 4.474-.095 3.613-.18 7.225-.258 10.838-3.574.642-7.022 1.126-10.652 1.21-24.24.744-46.186 5.6-64.29 22.872C147 581 147 581 144 583c-.07-12.31-.123-24.62-.155-36.929-.016-5.717-.037-11.433-.071-17.15a3814.86 3814.86 0 0 1-.059-16.573c-.005-2.1-.016-4.2-.032-6.3-.152-20.359 2.399-36.589 17.149-51.907L163 452l1.637-1.703c12.191-11.67 29.304-14.592 45.465-15.246l3.989-.19a1607.7 1607.7 0 0 1 8.315-.37c3.496-.146 6.992-.307 10.488-.473 14.37-.68 28.718-1.252 43.106-1.018Z"/>
            <path fill="#3D6B5E" d="M956.836 1499.609c3.16.016 6.317 0 9.476-.02 28.403-.028 52.768 7.592 75.688 24.411l3.164 2.04c2.508 1.733 4.16 3.215 6.024 5.585 1.91 2.41 3.17 3.614 5.812 5.375l-1 4h-2l-.813 1.758c-4.333 8.182-11.748 14.044-20.45 17.014-7.174 2.133-13.722 2.652-21.178 2.6l-3.612.011c-3.235.007-6.47 0-9.706-.013-3.409-.011-6.817-.007-10.225-.005-5.722 0-11.444-.01-17.165-.029-6.585-.021-13.17-.024-19.756-.018-6.371.005-12.743 0-19.114-.011-2.695-.005-5.39-.006-8.084-.004-3.776 0-7.551-.012-11.326-.028l-3.33.007c-9.569-.065-19.091-.559-27.565-5.348-1.796-1.067-1.796-1.067-4.426-1.872-2.978-1.406-4.308-3.45-6.25-6.062l-2-1c-1.29-1.96-1.29-1.96-2.625-4.375l-1.352-2.398C864 1539 864 1539 864 1536c2.332-2.665 5.258-4.77 8-7l2.98-2.55c23.772-19.946 51.336-27.026 81.856-26.841Z"/>
            <path fill="#43433B" d="M962 1703h61v1h-61v-1Z"/>
            <path fill="#E5E4D8" d="m286 1533 1 2c3.046.47 3.046.47 6.563.625l3.628.227L300 1536v1c-5.72.832-11.222 1.12-17 1l3-5Z"/>
            <path fill="#E3E2D6" d="M1633 1533a181.008 181.008 0 0 1 4 4v1c-5.126.103-9.95.036-15-1v-1l11-1v-2Z"/>
            <path fill="#43433B" d="M767 1682h6l-2 3-5-1 1-2Zm436 2h12v1h-12v-1Zm-160 19h8v1h-8v-1Zm-93 0h8v1h-8v-1Zm401-12h8v1h-8v-1Zm-410 12h5v1h-5v-1Zm115 0 4 1Zm261-14 4 1Zm-89-4 3 1Z"/>
        </svg> 
    </symbol>
</defs>
</svg>