<svg xmlns="http://www.w3.org/2000/svg">
    <defs>
        <!-- itinerarium icon -->
        <symbol id="itinerarium" viewBox="0 0 1024 1024"
            stroke-miterlimit="10"
            style="fill-rule:nonzero;clip-rule:evenodd;stroke-linecap:round;stroke-linejoin:round">
            <path d="M0 256C0 114.615 114.615 0 256 0h512c141.385 0 256 114.615 256 256v512c0 141.385-114.615 256-256 256H256C114.615 1024 0 909.385 0 768z" fill="#fff"/>
            <g fill="#205550">
                <path d="M575.32 190c-52.73 7.8-99.216 32.76-141.024 75.504-20.28 20.592-23.4 32.136-12.792 44.616 13.416 15.6 22.776 12.48 53.976-16.224 42.744-40.246 81.744-57.096 132.6-57.096 48.984 0 89.23 16.85 125.11 52.73s52.73 76.125 52.73 125.11c0 50.856-16.85 89.856-57.096 132.6C700.12 578.44 697 587.8 712.6 601.216c12.48 10.608 24.024 7.488 44.616-12.792C830.224 516.976 853 425.87 820.24 335.704 784.05 237.111 678.904 174.4 575.32 190M285.16 417.45c-8.11 3.43-44.304 41.805-57.72 60.84-82.99 121.054-28.704 291.72 108.89 341.95 89.54 32.76 180.645 9.984 252.095-63.024 20.28-20.592 23.4-32.136 12.79-44.616-13.415-15.6-22.775-12.48-53.975 16.224-42.744 40.247-81.744 57.096-132.6 57.096-48.984 0-89.23-16.85-125.11-52.73s-52.73-76.125-52.73-125.11c0-50.856 16.85-89.856 57.096-132.6 28.704-30.89 31.824-40.56 16.534-53.664-8.735-7.486-14.66-8.426-25.27-4.366"/>
                <path d="M569.08 420.57c-14.35 9.045-150.384 147.574-152.88 155.685-5.616 18.41 14.35 36.195 32.136 29.016 11.544-4.68 155.064-149.136 158.184-158.806 2.81-9.985-4.056-25.585-13.104-29.016-10.606-4.059-13.726-3.434-24.336 3.12"/>
            </g>
        </symbol>

        <!-- receptarium icon -->
        <symbol id="receptarium" viewBox="0 0 1024 1024"
            stroke-miterlimit="10"
            style="fill-rule:nonzero;clip-rule:evenodd;stroke-linecap:round;stroke-linejoin:round">
            <path d="M0 256C0 114.615 114.615 0 256 0h512c141.385 0 256 114.615 256 256v512c0 141.385-114.615 256-256 256H256C114.615 1024 0 909.385 0 768z" fill="#fefff2"/>
            <path d="M316.338 114.859c-70.692.001-127.999 57.308-127.999 128v541.604c0 70.668 57.269 127.965 127.937 128l487.97.242c16.242.008 29.413-13.157 29.413-29.399-41.888 0-75.765-33.877-75.765-75.765 0-41.856 33.877-75.734 75.765-75.734V242.856c0-70.693-57.308-128-128.001-128zM728.48 807.224c0 29.73 12.792 56.579 32.612 75.766H323.514c-41.7 0-75.504-33.805-75.505-75.505 0-41.644 33.717-75.426 75.361-75.505l438.671-.838c-20.453 19.187-33.561 46.036-33.561 76.082" fill="#5a8470"/>
            <g fill="#fefff2">
                <path d="M723.369 346.354c0-42.863-36.532-76.743-82.047-76.743-7.957 0-15.999 1.797-24.041 3.593-13.346-41.066-54.413-70.497-102.58-70.497s-89.234 29.431-102.58 70.497c-7.102-2.737-15.999-3.593-24.041-3.593-45.516 0-82.989 34.821-82.989 76.743 0 36.617 27.635 67.845 65.108 74.946l.001 136.712c0 35.346 28.654 64 64 64h160.061c35.346 0 63.999-28.654 64-64l.001-136.712c37.473-8.042 65.107-38.414 65.107-74.946m-80.935 41.066c-9.839 0-17.881 8.042-17.881 17.881v117.89c0 35.346-28.653 64-64 64H469.05c-35.358 0-64.017-28.672-64-64.03l.055-117.86c0-9.839-8.042-17.881-17.881-17.881-25.923 0-47.312-17.881-47.312-41.066 0-22.33 21.475-41.067 47.312-41.067 9.753 0 19.335 3.08 27.634 8.043 10.438 6.16 26.095.599 27.72-14.288 1.711-34.735 32.939-61.514 72.208-61.514 39.185 0 70.412 27.634 72.209 61.514 1.112 13.175 16.084 21.474 27.719 14.288 8.214-5.134 17.796-8.043 27.635-8.043 25.923 0 47.312 17.881 47.312 41.067 0 22.33-21.475 41.066-47.227 41.066"/>
                <path d="M474.576 459.543c-9.839 0-17.767 4.854-17.881 17.881s0 45.515 0 45.515c0 9.839 8.042 17.881 17.881 17.881 9.838 0 17.795-7.101 17.881-17.881v-45.515c.085-9.839-8.043-17.881-17.881-17.881m80.25 0c-9.839 0-17.881 8.042-17.881 17.881v45.515c0 9.839 8.042 17.881 17.881 17.881 8.983 0 16.94-7.101 17.881-17.881v-45.515c.086-9.839-8.042-17.881-17.881-17.881"/>
            </g>
        </symbol>

        <!-- atrium icon -->
        <symbol id="atrium" viewBox="0 0 1024 1024"
            stroke-miterlimit="10"
            style="fill-rule:nonzero;clip-rule:evenodd;stroke-linecap:round;stroke-linejoin:round">
            <path d="M0 256C0 114.615 114.615 0 256 0h512c141.385 0 256 114.615 256 256v512c0 141.385-114.615 256-256 256H256C114.615 1024 0 909.385 0 768z" fill="#2d6b74"/>
            <path d="M421.876 215.752a785 785 0 0 1-1 56q-1.5 5.5-7 7a122 122 0 0 1-22 1q-2.906-2.429-5-6a1104 1104 0 0 1 0-94q11.514-19.902 30-6l4 8a290 290 0 0 1 1 34" fill="#a8c7ca"/>
            <path d="M369.876 379.752a138 138 0 0 0 15 12q1.5-44.988 1-90h34q-.99 20.1 2 40 1.82-.372 2-2 10.853-18.92 32-17 15.712 9.822 7 27l-38 38q-6.794 18.846 4 36a628 628 0 0 0 33 28q-4.552.031-7 4-9.414 9.876-15 22a907719 907719 0 0 0-232-178q-18.365-15.617-2-33 6.585-4.12 14-2a2400 2400 0 0 1 91 69q2-36 0-72a592 592 0 0 0-40-42q-13.26-29.709 19-29a812 812 0 0 1 49 47l6 12a1334 1334 0 0 1 4 100q4.074 19.563 21 30" fill="#a8c7ca"/>
            <path d="M527.876 135.752q-1 79.026 2 158 1.82-.372 2-2a1075 1075 0 0 0 67-68 289 289 0 0 0 4-44q16.741-23.68 34 0 2 21 0 42a51.3 51.3 0 0 1-8 22 362 362 0 0 1-21 24q-46.362 36.855-79 86a549.5 549.5 0 0 0 2 92q6.33 16.334 23 11a190.6 190.6 0 0 0 43-37l4-8 2-96q15.645-22.77 34-2c.334 23.357 1.334 46.7 3 70q17-11 19-13 3.999-2.001 6-6 6-9 8-18a1185 1185 0 0 1 4-94q21.116-34.128 53-59 27.5-4.5 23 23l-42 46a480 480 0 0 0 0 62 1934 1934 0 0 1 81-67q29.846-1.625 20 27a71883 71883 0 0 0-259 224 338.6 338.6 0 0 0-51-41 23 23 0 0 1-7-9 4010 4010 0 0 1-4-176 30.8 30.8 0 0 0-6-12l-48-48a20.2 20.2 0 0 1-3-8q1.851-22.353 24-19a360 360 0 0 1 33 31l2-90q8.203-16.866 25-9 7 3 10 8m-460 272q20.35-1.26 40 3 12.684 15.852-2 30a200.4 200.4 0 0 1-40 0q-16.365-17.385 2-33m828 0q30.018-.5 60 1 19.911 16.287 0 32-30 2-60 0-19.894-16.203 0-33" fill="#a8c7ca"/>
            <path d="M849.876 335.752q4.902 10.986-3 20l-47 51q22.316.21 44 4 16.435 15.918-2 30l-76 2a3642 3642 0 0 1-68 75q-1.628.18-2 2 33.48 3.972 66 0a46.8 46.8 0 0 0 12-5l44-44q22.002-9 28 14-8.3 20.046-26 33-1.628.18-2 2a614 614 0 0 0 70 2q20.217 6.46 11 26a23 23 0 0 1-9 7c-26.022.334-52.03 1.334-78 3a234.6 234.6 0 0 0 32 31 725 725 0 0 1 74 4q17.264 18.41-4 32a439 439 0 0 1-82-2 72.4 72.4 0 0 1-14-8 848 848 0 0 1-48-50 45.2 45.2 0 0 0-16-8 1512 1512 0 0 0-110 0q-24.2.307-44 13-10.164 3.355-17 12a264 264 0 0 0-7-36q.088-4.588 4-7 27.38-14.097 58-18a65 65 0 0 0 14-6l172-186q15.255-3.996 26 7m-652-8a60384 60384 0 0 0 174 187q14.774 10.088 32 11h-6a404 404 0 0 1-6 32 1344 1344 0 0 0-124-1l-12 6a411 411 0 0 1-60 58l-12 4a684 684 0 0 1-74 0q-10.752-4.992-10-17-.753-12.009 10-17l68-2a150 150 0 0 0 34-31 1603 1603 0 0 0-80-3q-14.84-10.53-7-27a22.2 22.2 0 0 1 9-6q97.02 1 194-2-.372-1.82-2-2a3463 3463 0 0 0-68-73l-96-2q-22.59-16.032-2-34l64-2a1026 1026 0 0 1-51-57q-2.474-26.997 25-22" fill="#a8c7ca"/>
            <path d="M461.876 451.752a2599 2599 0 0 1 70 53q17.475 14.97 24 37-4.079-1.521-6-6-8.94 14.972-22 26-8.289-18.01-22-33a2621 2621 0 0 1-66-51q5.586-12.124 15-22 2.448-3.969 7-4m-58 74a114.4 114.4 0 0 1 26 7q43.002 17.496 58 61-3.52 8.604-10 16 3.999 4 0 8-8.271 1.586-15 6l-2-2c-.324 23.357-1.325 46.7-3 70a680 680 0 0 0-3-88q-11.694-28.692-41-39a419 419 0 0 0-22-7 404 404 0 0 0 6-32z" fill="#f7fdfe"/>
            <path d="M555.876 541.752a88 88 0 0 1 7 27q-.5 62.007 1 124 3.414 34.327 31 55a172 172 0 0 0 38 20 704 704 0 0 0 70 7q42 2 70 22-2.001 20-12 36-30-20-74-22-98.001 2-120-42-8 66 62 100-6 18-24 30-66-28-76-88-4-20-4-40 .321-105.007 2-210 13.06-11.028 22-26l6 6m-67 53q5 93 0 195-3 42-21 60-16-6-30-18 13-34 10-60-28 12-46 54-24 58-52 74-14.001-12-30-28 39.999-34 54-78-42 0-64 26-16-10-26-20 18-42 96-46 92-10 74-156" fill="#f7fdfe"/>
        </symbol>
    </defs>
</svg>