<svg xmlns="http://www.w3.org/2000/svg">
  <defs>
    <symbol id="happy_lungs" viewBox="0 0 496 496">
      <path d="M123 339c0 9 4 16 5 24l-1 3c-4-1-2-6-4-9-2 1-1 6-4 7-3-5 1-8 1-12-2-1-3 1-5-1 2-3 9-5 4-11-5 5-8 12-15 15l-2-2 14-16c-4-2-6 2-10 0 3-6 13-1 15-9 0-2-3-1-4-3 0-2 2-2 3-1 4 1 8-1 12-2 15-4 23-16 30-29 5-9 5-19 1-29-4-12-4-12-15-5-4 3-5 5-5 10 0 9 0 18 4 27 2 3 2 8-1 12-3-4 0-9-3-12l-9 15c-1-10 9-17 5-27-11 5-9 18-13 27-3-2-1-5-2-6-3-1-4 2-7 1 0-6 9-4 9-10-2-1-3 1-5-1 8-7 20-12 16-27-4 2-6 6-8 9l-14 20c-3 4-2 9-1 13 2 5 1 11 0 16-1 1-1 2-4 2 2-8 3-15-1-23-2 0-4 1-4 4-1 8-6 15-1 24 1 3 1 7-1 11-4-5 0-11-5-15-6 5-8 13-12 20-3-5 2-8 1-11-3-2-6 2-10-1 10-3 18-6 20-16-5-1-9 3-14 5-1-4 1-4 2-5l8-3c5-1 8-4 7-10l-18 5c-4 1-4 5-5 8-1 5-4 10-9 12 1-6 8-11 7-18-6 1-12 4-19 1 3-3 7-2 11-4-1-2-5-1-6-4 3-3 5-1 8 1s6 2 9-1c-4-6-12-4-18-6 1-2 2-2 4-2 4 1 6-1 6-6l1-1c2 0 2 2 2 4s2 4 4 6c4 3 8 5 13 2l11-3c2 0 4-1 5-3l20-29c-10-5-20 1-23 11l-2 16c-3 0-3-3-4-4-4 0-6 4-11 4 1-5 5-5 8-6 4-2 6-5 5-10-3-2-7 1-10-1 3-4 8-2 11-4l9-9c-4-2-7-1-10 1l-14 8c-2 1-4 3-7 1 3-4 8-5 11-9-2-2-5 0-7-3 2-3 5-2 7-1 3 1 6 1 9-1 5-3 11-2 16-1 11 2 20 1 28-8l2-2c11-7 15-18 14-31-7 2-10 6-10 13 0 2 0 4-3 5-2-2 1-6-1-8-7 1-8 2-8 8 1 6-1 11-5 16-1-7 6-13 1-19-5 1-8 4-8 9v7c0 2 0 4-3 4-2-4 2-7 0-11-3 2-4 7-9 5 2-5 7-8 9-13-1-2-4 0-5-2 0-2 1-2 2-2 17-2 30-11 41-23 2-3 2-7 2-10-1-4-3-3-5-2-9 3-18 8-26 14-5 4-11 7-11 15 0 2 0 3-2 3-3-1 0-4-2-7-4 2-5 6-8 9-5 6-8 12-8 20 1 5-3 7-8 11 0-7 8-10 4-16-4 0-6 3-8 6l-12 18-2 6c-1 9-7 14-11 21h-3c1-8 12-12 9-22-5-1-8 1-10 7-1 3-3 6-7 5 1-3 5-5 5-9-3-2-5 1-8-1 0-2 2-2 4-3l6-1c11 0 19-10 23-22-14 0-23 13-37 13 5-5 13-6 17-11-4-7-13-6-19-10l12-6c8 14 11 15 21 10-3-5-9-2-13-3 0-3 3-2 4-4-2-3-6-4-7-7 2-2 4-1 5 0l5 5c7 7 18 8 25 0 5-4 8-10 11-15-4-2-7-2-10 0l-7 7c-2 2-3 4-5 3-1-3 3-4 3-7-1-1-4 0-4-3 2-2 4 0 6 0 3 0 4-2 6-4-5-3-12-4-17-1-2 1-2 4-3 6-1 5-1 5-5 7 0-4 3-7 1-11-9 1-14 11-25 10 5-4 11-5 15-10 0-2-3-2-3-4 4-2 7 3 11 1l12-4c-7-6-8-6-14-2l-10 3c-2 1-4 1-6-1 7-1 12-3 17-8-4-4-9-5-14-7 3-2 3-2 11 0 2-4-2-8-2-12 4 0 4 4 6 6 2 0 3-3 6-3 2 3 0 4-2 5-5 4-5 6 1 9 7 5 14 9 23 11 1-4-1-6-4-8l-9-2c-2-1-4-1-5-3 1-2 3 0 5-1 1-1-1-3 1-5 3 1 2 4 4 6l6 2c1-6-2-12-5-17 4-1 5 1 5 3l3 11 3 9c3 8 8 9 15 4l5-4c-4-4-10-1-15-3 5-4 9-3 13-2 7 2 9 1 14-5-10-4-21-4-31-1 2-4 6-3 9-6l-10-11c-2-2-4-2-7-1l-10 4c-2 0-4 2-7-1l18-7c-5-6-10-6-14-1-1 2-3 4-6 3 0-3 4-4 4-7-3-2-7 0-11-3 8-3 16 0 24 0 0-4-5-3-5-6 4-2 6 0 9 5 7 10 14 20 27 24h7c-2-3-3-6-6-8-3-1-6 0-9-3 2-2 4-1 5-1 2 0 4 0 5-3 0-3-1-5-3-6l-10-2c-2 0-4 0-6-4l18 3c0-5-6-7-7-13 6 2 9 6 11 11l4-2c2 2 1 4 0 4-5 4-4 9-3 14 3 9 11 13 19 9 18-8 16-3 24-24l8-19c-4-3-7-2-9 1l-5 6c-7 7-10 14-7 23 1 2 1 5-2 8-3-6-1-11-3-17-7 5-12 10-20 13-1-5 3-6 5-8 6-3 11-7 15-12-6-4-8 5-14 3 0-3 4-3 5-6-5-3-11-2-17-3 2-4 4-3 7-3l13 3c9 2 15-1 18-11-6-2-11-4-17-3-14 3-28 5-41 11-4 2-6 3-6 8 0 2 0 3-2 4l-1-1c-1-7-1-7-9-6-3 1-7 3-11 0 2-2 5-1 7-3-1-3-5-4-6-7 2-2 4 0 5 1 5 5 9 5 15 3 3-2 7-3 10-6-6-5-11 4-18 1 3-3 7-3 10-6-2-4-5-4-9-3-3 1-7 4-12 1 4-3 10-3 13-5 0-4-5-5-6-9 5-1 6 2 8 4l7 7c3-1 2-5 5-7 2 1 1 3 1 4-1 3-3 5-1 7 3 2 6 4 10 3 5 0 10-2 16-4-6-3-11-6-18-3 0-4 3-3 4-5-1-5-6-6-11-6 5-4 10-3 13 2 5 6 11 8 18 10h4c2-1 6-1 6-4 1-3 0-6-4-8l-9-3c-2-1-4-1-5 1-1 1-3 3-5 3-1-2 2-3 1-5-11-3-23 0-33-6 5-2 10 1 14 0 2-5-4-5-5-8 4-2 6 0 8 3l2 4c0 1 2 2 3 1 2 0 2-2 1-3-2-5-5-8-9-10-2-1-4-1-6-4 4-3 7 2 11 2 2-2 0-5 2-7 3 1 2 4 2 6-1 6 3 10 5 15l3 2 19 2c-1-13-13-11-20-15 5-2 10 1 15 1 2-6 1-8-4-11-4-3-9-4-14-6-2-1-5-2-7-5 2-2 4 1 6 1 2-1 1-3 3-3 2 2 2 7 7 6 2-4 0-7 1-11 4 2 3 5 3 8 0 4 1 7 6 8-1-8 1-17-7-23 2-2 4 0 5-1l3-5c3 6 0 13 2 19 4-1 6-5 8-8 2 3 1 5 0 6-9 7-7 15-6 24l13-16c3-4 0-12-5-14-3-2-7-3-8-7 4-1 6 3 9 3 2-4-1-9 3-14 3 9 1 18 5 25 6-7 6-10 2-17-2-3-3-6-1-10 4 3 2 9 7 11l4-13c3 2 2 4 2 6l-10 25-2 5c7 1 10 0 13-6l4-16c0-2 0-5 4-6l-6 26c5 0 9-2 11-6l8-10c1-2 2-3 5-2-7 9-11 20-24 22l-16 3c-11 3-17 15-13 25l8 14c1 2 3 4 5 4l20 1 3-2 19-28c-10 0-19 2-26 7-2 1-1 4-1 6 0 3 3 6 1 10-4-3-3-8-5-12-4 1-5 6-10 7 2-8 9-10 14-15l-9-3c-2 1-4 4-7 3 0-3 3-3 4-5-1-3-4-2-5-5h3l7 3c6 3 12 4 19 2 4-2 9-2 14-3 4 0 6-1 9-4l16-18 2-7-1-44c0-2 1-4 3-5 7-3 14-2 21 0 2 1 3 3 3 5-1 15 1 30 1 44l2 5 17 19c2 3 6 4 9 4 4 1 6-1 7-6 0-6 4-10 11-11 6-1 8 1 7 7 5 3 10 2 15 2l-8-15c-3-4-12-4-15-1-5 4-11 3-15-2-4-3-3-5 1-7l6-3c0-3-2-5-3-8-2-4-1-5 4-5 6 0 10 5 11 12 1 6 3 8 9 8-2-5-3-10-7-13-2-2-4-4-4-6-1-4-1-9 3-11s5 3 7 5l2 3c3-1 4-10 9-4h1c6-5 7-4 9 2 2 5 2 10-2 14-1 1-3 3-1 5h5c2-1 1-3 1-5-2-5 0-9 3-12 2-3 4-3 5 0l5 10 9-4c1-1 4-1 4 1 0 5 5 9 5 14 0 3 2 4 5 3l5 1c3 1 4 3 2 4-6 6-4 13-6 20 4 0 7-2 11-1 6 1 6 2 4 7l-1 2c4-1 8-3 13-2 2 4-2 7-3 11h10c3 1 3 3 1 5-2 4-5 7-9 10l15 5c6 1 7 2 3 7l-3 5c1 2 2 2 3 2 5 1 5 2 3 6-2 3-5 6-9 6-5 0-8 2-11 5 3 2 3 2 8-1 6-3 12-2 16 3 3 4 2 5-2 7-1 0-2 0-3 2 3 1 5-1 8-2 2 0 5 0 6 2 2 2 0 4-1 6-2 3-4 6-8 7s-5 3-5 8c4 1 6-2 8-4 5-5 11-5 16 0 3 2 3 4 0 6l-3 2c2 4-3 8-1 11s0 4-2 6c-3 1-6 2-9 1h-4c1 2 3 4 5 3 5-4 9 0 13 2 3 1 7 2 6 6-1 3-5 4-8 4s-6 1-8 5c2 1 3-1 3-1 5-3 11-2 15 2 1 2 1 4-1 5-3 2-6 4-9 2-7-2-12 3-19 4 3 3 5 4 8 3 7-2 11 2 16 5 2 2 2 3 0 4l-3 4 6 5c3 2 3 3 0 5-6 3-12 4-17 0h-3c0 2 2 2 4 2 6 2 8 7 10 13 1 2 0 3-2 3h-8c1 5-2 9-4 13 1 3 5 3 6 6-6 8-15 8-20 1-3-3-4-4-9-4-1 4 0 8 5 9 6 2 7 7 9 12 1 3-1 4-3 4-6 0-11 5-18 3 0 6-1 12-6 16l-5 2-15 2c0 3 1 6-1 9 0 2-1 4-3 5-2 0-3-2-4-3l-3-3-5 7c-1 1-2 3-4 2-4-1-5 1-6 4l-3 6c-7-4-11-9-10-18-3 1-2 2-2 4l1 8-4 8c-3 4-6 0-8-1-7-2-13-5-17-11-2 6-6 10-11 11-7 1-7-6-11-9-4 3-6 1-8-3l-1-2c-7-1-7-6-8-10 0-4-2-5-5-4-3 0-7 2-9-2-1-4 1-8 5-10l3-2c0-2-1-2-2-2-4-2-5-4-2-7l1-3c-3-4 0-7 2-11-5-2-5-5-3-9 1-2 1-4-2-5-3-3-2-5 1-7l8-6c-3-3-4-7-9-7-3 0-3-2-3-4-1-4 1-8 4-12l-1-1c-9 0-10-2-6-10l6-6c-2-2-5-5-6-9 0-2-1-5 3-5s3-5 6-6l-5-4c-5-2-5-4-1-7 5-2 9-4 15-1l-3-6c-1-2-3-3-5-2-4 1-5-1-5-4 0-7 1-12 12-14h-7l-7-4c-3-2-3-4 1-6l5-2c7-2 9-6 7-14v-4c-2-1-3 0-4 1h-4l1-4 7-4-5-4c-3-2-3-4 1-6 5-3 11-2 15 2l6 5c3 2 6 4 10 1 3-2 3-6 2-9l-3-9c-12-20-29-36-47-52l-22 22c-10 10-19 19-26 31-3 5-4 9-3 15l4 14c2 7 7 9 13 4 2-1 5-4 9-3-1 4-5 4-7 6 3 2 7 1 9 5-1 2-3 0-5 1-1 3 2 5 1 8-3 0-3-2-4-4-1-6-5-7-11-7 8 8 13 18 26 16-1 4-4 3-5 4-1 3 4 5 2 8-4 0-5-4-8-6-2 5 0 10-1 15-3 0-3-2-3-4v-6c1-8-2-14-9-18-1 6-1 12 2 17 2 3 4 6 2 10-3-2-2-7-5-8-3 2-2 6-5 8-1-7 3-13 1-20-4 2-6 6-10 9-2-3 0-5 1-6l7-5c4-4 4-7 1-12-3 2-2 6-6 8-2-6 7-12 0-18-4 1-5 7-9 9-2-4 1-7 3-9 5-4 5-8 2-13-5 6-7 14-10 21l-1 1c-3 10-2 12 8 12 2 0 4-1 5 1-2 2-4 2-5 2l-6 1c-1 2 0 3 1 5l4 10c1 12 10 13 18 16l6-2c1-1 2-3 5-2 1 2-2 3-2 5 6 3 12-2 18 1-3 4-7 1-10 4 1 5 5 7 8 11-4 1-5-1-7-3l-7-7c-2-3-5-3-9-2 1 5 5 8 7 13-3 1-5-1-6-3l-5-8c-2-3-4-6-8-5 2 6 5 11 9 16l17 10c2 1 5 0 8-1l5-2c0 5-4 4-6 7 1 3 5 4 5 8-6-1-7-7-13-8-1 9 9 13 10 21-5-2-6-7-10-9-2 3 0 6-2 9-3-2-2-6-2-9 0-2 2-4 1-7-1-8-4-11-15-13-2 4 2 5 4 7s6 2 7 5c-2 3-5-1-8 0 0 6 4 8 9 10-5 3-3 6-1 8 2 4 4 6 4 11-7-5-7-13-13-18-5 4-3 10-4 16-3-1-3-3-3-5 0-5 1-9 3-13 2-3 2-5-1-8l-11 19c-2-6 2-9 3-14-2-1-4 2-7 0 1-4 4-4 6-4 5 0 7-3 7-6 1-5 0-9-1-14-3 2-3 7-7 10 0-8 7-16-1-22-2 4-5 8-4 13v14c-3-3-2-8-4-11-1-1-2 1-3-1v-1l5-7c3-8 4-16-1-23l-6-15c-3 8-3 15-4 22-1 11-1 22 4 33 4 11 5 22 10 32 3 8 10 10 17 5 2-2 4-5 9-3-2 3-6 4-9 7 2 2 5 2 7 1 3-1 5-3 8-1-2 3-5 2-7 5 3 8 12 3 17 9-5 2-9-1-13 0 1 5 5 8 5 13-3 1-3-2-5-3-3 4-2 8-3 13-4-5-2-9-1-13 2-7 0-14-6-17-4-3-10-4-15-5 1 9 3 11 11 13 2 0 5 0 7 3-4 1-8-2-12 0 3 7 7 13 12 20 2 3 6 2 9 3s7 1 8 7c-5-2-8-6-14-4 1 6 7 12 4 19-3-7-5-13-10-19-1 8 0 16 4 23-5 0-4-3-6-4-3 2-3 7-6 10-3-3-1-6 1-9 3-5 3-10 4-16 1-13-9-22-14-32-2 8-3 16 3 21 7 8 3 16 0 25-5-7 4-14-2-19-2 0-2 3-5 3-2-4 5-8 0-12l-7 14c-1 3 1 5 3 6 5 5 9 10 10 18l-2 3c-3-6-4-14-11-17l-1 11c0 4 1 8-4 11 0-6 2-10 1-15-5 2-4 7-9 9 0-5 2-9 5-11 4-3 4-7 3-11-5 2-1 8-5 10-3-2 0-5-2-7-3 1-3 5-7 5v-3c3-4 6-7 11-9 6-2 14-20 13-28-5 2-9 4-10 10-2 7-4 13-12 16 0 0-1 1-3-1 7-4 11-11 12-19-3-2-6 0-9-3 1-3 3-2 5-2 7 2 11-2 16-6 3-2 2-6 1-9-1-6-4-12-7-19-3 7-6 14-11 19-6 8-10 16-9 27l-2 10c-1 8 1 15 5 22 2 3 5 6 4 11-5-3-5-9-9-12-3 3 0 8-4 12-4-7 3-14 1-20-9 3-6 12-10 17-3-5-1-13 4-18 5-4 6-10 6-16h-6c-1-2 2-3 3-4 3-2 5-10 4-12s-2-2-3-1c-3 1-6 1-7 5l-2 13c0 2 0 4-3 5-2-4 2-8 1-12-3 0-4 4-7 4 0-5 4-7 8-10-9 1-12 5-11 12m218-67 1-10c0-6-5-11-12-12-10 16-14 32-1 48 8-7 11-16 12-26m-10-60c9 10 20 16 32 20l3-8c1-2 1-4-1-6-10-9-22-16-35-21-2-1-4 0-4 3 0 4 1 9 5 12m24-65-1-2c-16-4-31-4-46-3l-1 1c0 2 2 3 4 3l20 7c9 4 19 1 24-6m-37 70c-2-4-1-8-4-12l-6 15c-4 7-3 13 0 19 2 4 4 5 8 5 4-1 4-4 3-7l-1-20m-9-100c-1-7-4-10-8-7v1l1 1c7 3 7 8 8 14 1 3 0 4-4 4-7-2-11-8-10-15s-4-11-11-8l8 13c6 9 17 14 28 12 4 0 8-1 10-6 1-4-3-7-5-9l-2-2c-1 2 1 3 1 4 2 5 0 7-5 6s-9-2-11-8m121 147c-5-7-18-14-24-12 0 3 2 4 3 5 3 2 6 5 6 9l2 3c4 3 8 4 13 4 4 1 4-3 7-4l-7-5m-59 0h-3c-3 4-6 2-9 0l10 16c1 3 4 5 7 7 1 1 3 2 4 1 2-1 2-3 2-4 0-8-4-15-11-20m-81 75-1 14c0 4 3 8 6 11-2-5-3-9-1-13 2-6 3-12 7-16 5-7 3-13 2-20-4 8-11 15-13 24m26-52c-4 5-5 11-7 16l1 4c4 6 13 7 18 1-4-6-9-13-12-21m-5-134 9 24c2 6 6 8 12 10 0-3 0-5-2-7-8-4-10-10-7-18 0-3-1-7-4-9-3-1-5-3-8 0m-21 19c0-2 2-4 1-7-7-2-11 0-11 6 0 8-2 13-10 15l-1 1c2 4 4 5 7 2 6-5 11-9 14-17m62-56h6c6-1 12-9 11-16l-4 5c-3 4-6 6-11 5-8-2-10-1-10 7 2 1 5 0 8-1m-50 82c-6 7-6 17-7 27 10-8 9-19 14-28-3-1-5-1-7 1m56 87c4-1 4-3 3-6l-9-12c-1-2-2-4-5-4-3 8 2 17 11 22m36-44h3c-1-3-2-6-1-9 1-5-2-7-5-9s-6-2-9 0c3 6 7 13 12 18m-44-109-2-5c0-2-1-3-3-3-4 0-6 2-7 5-1 2-2 4 0 5 6 3 12 5 20 4l-8-6m-15-50-6-2c-2 4-2 8 2 8 5 1 6 4 7 8 0 2 2 3 4 5l1-9c0-5-1-9-8-10m31 14-2-8c-12 1-19 8-16 16 4-6 10-8 17-6l1-2m-83 214c3 3 7 4 12 2s5-6 6-12c-7 2-14 3-18 10m65-30c-1-1-2-3-3-2-2 10 2 20 9 22 1-7-1-14-6-20m13 72c2-7 2-7-2-8l-2 5c-1 2-1 6-5 6-3 0-5-4-6-6l-1-3c0-3-2-5-4-8 1 10 1 10 7 17 5 6 9 5 13-3m12-152 3-2c-4-3-17-2-20 2 5 7 8 8 14 2l3-2m4 32c0 3-3 7 0 10l9 9c2-9-2-18-9-21v2m-99 61c3 2 5 5 9 5-6-8 0-15 0-24-3 2-4 4-5 6s-2 5-4 6c-2 2-2 4 0 7m51-63 3 6c2 2 4 3 5-1 3-8 1-12-7-14-2 3 0 6-1 9m51 84c-1-2-1-5-3-4-3 0-4 2-4 5 2 5 0 9-4 12-1 1-3 3 0 4 2 1 3 0 3-2l5-6c4-2 4-5 3-9M278 207c7-4 6-10 5-17-9 5-11 12-5 17m52 122 6 3c0-4 1-8-2-9l-12-6c0 8 2 11 8 12m-12-10c-2-4-5-5-9-6 0 6-1 11 2 17 5-3 8-5 7-11m76-194 2-7c-3 3-7-1-11 1l1 8c1 2-1 5-2 9 5-3 7-7 10-11m-99 107v-2c-9 1-14 9-11 17 5-3 7-9 11-15m92 90 1 2c4 5 12 6 16 2 1-1 2-2 0-4-6 0-14 2-19-7l-1 2 3 5m-50 28c1-1 1-2-1-3-6-1-11-4-13-10 0 3-3 5-3 9 5 3 10 6 17 4m-34-114-1-3c-5 8-5 16 2 20 3-6 2-11-1-17m21-156c4-5 4-10 4-15 1-3-1-4-4-2s-6 6-3 10l3 7m-36 249 7-12c-6-1-7 3-9 5-5 5-5 6-2 12l4-5m94 14c2 1 4 3 5 2 2-7 5-15-4-21 3 6 2 11-2 16 0 1-1 2 1 3m25-136c2-3 0-3-2-3l-12 3c-2 2-3 4-2 7 6-1 11-4 16-7m-59 116c-3-1-6-4-8-1s-1 7 1 9c2 3 4 1 6 0 5-2 2-5 1-8m1-158c-3-8-4-8-10-6 2 4 3 8 7 8 6 2 10 5 12 11 2-6 1-9-4-9l-5-4m-17-57c-5 4-4 8 2 11 5-6 6-9 3-14l-5 3m54 164c2 1 5 1 4-3-1-5-8-8-14-7 3 4 5 8 10 10m37-58c-4-7-9-7-16-1l14 4c2 1 3 0 2-3m-3 66c0 6 4 7 8 7 1-8-1-12-9-12l1 5M310 99c-1 2-2 4-1 7 4-6 9-8 16-4 0-3 2-5-1-6-4-2-11 0-14 3m77 213c6-3 11-4 17 3-1-4-2-6-4-6l-11-4c-2-1-4-1-5 1-2 3 0 4 3 6m6-159c3 0 5 0 7-4-6 2-12 0-16-4-2-3-5-1-6 1 3 3 6 4 15 7m-23 37c1-1 3-1 3-3-8-6-13-4-14 5l11-2m-41-33c-1-1-2-2-4 0 2 6 9 7 10 14 4-3 3-5 2-7-2-3-4-6-8-7m54 53c-5 2-10 1-16-1 3 4 7 7 11 7 4 1 7-1 8-5 0-2-1-2-3-1m-79-41-4-9c-6 7-4 12 7 16l-3-7m86 117c1 1 3 2 4 0v-4l-6-5c-2-1-4-1-4 2 0 4 3 5 6 7m-102-16c2 3 3 7 6 10 3-5 2-10-4-14l-2 4m-7 86c0 1 0 3 2 3 3-2 4-9 2-15-2 4-5 7-4 12m-9-48c6 1 8-3 11-6-7-3-10-1-11 6m116-126c-5 0-5 5-9 8 10 0 10 0 13-9l-4 1m42 19c-4-1-7 2-10 4 3 3 9 3 12-1 1-1-1-2-2-3m-147 58c3-1 6-3 5-8l-14 7 9 1m102-102c-1-4-5-4-8-4-2 0-3 3-3 6 4 0 7 0 11-2m26 143c-2 1-5 2-6 5 6 4 8 3 11-4l-5-1M291 190c-2-2-1-4-2-7-4 8-2 13 4 14 0-2 1-4-2-7m102 56c-2 0-2 2-2 3 3 3 6 6 10 7-1-5-4-7-8-10m-35 70-7 3c4 2 7 4 12 3-3-2 2-6-5-6m-13-79c0 1 0 3 2 4 2-2 4-5 3-8-1-2-4-3-7-3-1 3 1 4 2 7m13 6c1 1 0 3 3 4 1-3 1-6-1-9-1-2-3-4-6-2l4 7m51-6v5c2 1 4 0 5-2l-5-7c-1-4-1-4-4-4l4 8m-67-48c-1 3 2 3 4 3 3 1 5-1 7-5-4 0-7 0-11 2m32-84c-3 3-5 5-5 9 2 1 4 1 5-1 1-3 2-6 1-9l-1 1m44 80c-2 0-5 0-5 3s3 4 6 4c1-2 2-4-1-7m-24 36c4 3 6 2 8-5-3 1-8-1-8 5M347 89c1 3 2 1 3 1 1-1 2-3 1-4-3-4-3-8-2-13-2 5-2 10-2 16m-3-10 1-9c0-1-1-3-3-2-1 0-2 1-1 3l2 9 1-1m21 93c-3 2-2 4-1 7l7-6c-2-2-4-3-6-1m-72 8 3 2c1-3 4-7-1-9-2 2-3 4-2 7m123 64c-2 1-4 1-5 3 3 1 6 4 10 2-1-2-2-5-5-5m-45-125c-1 0-3 0-5 2l8 6c-2-3 3-6-3-8m-96 156c1 1 2 3 4 3 0-2-3-2-2-4 7-5 7-5 8-10-3 4-6 7-10 9v2m37 91c4-2 2-5 1-9-6 7-6 7-1 9m92-192c-2-3-6-3-8-1v3h2l6-2m-135 60c7 4 9 4 13-1l-13 1m14-6c2 0 5-1 7-3l-4-4c-1 3-5 3-3 7m14 63-2 5c2 1 4 0 5-1 2-1 2-3 1-4-2-1-3-4-4 0m15-30c1 2 2 0 3-1v-4l-5-5c3 3 0 7 2 10m82-62c-1 1-2 2-1 4 2-1 6 0 5-3 0-3-1-3-4-1m-5-39c1 2 2 3 4 3 1-2 2-5-1-6-2-1-3 1-3 3m-45 138c-1-3-1-6-4-8-1 4 2 7 3 11l1-3m57-32c-2 0-2 1-1 2 3 3 6 2 11 1l-10-3m17 30c1-2 0-3-1-5-2 1-3 3-3 5h4m2-73c-2 2 1 3 2 5 4-3 3-4-2-5m-126 34c0 3 1 4 3 5v-6c-1-2-2-2-3 1m67-96v-4l-1-1-2 1c-1 1 1 4 3 4m-56 174c0 3 1 4 3 4 0-4 0-4-3-4zM351 429l2 6c1 2 2 3 0 5-2 1-4 2-6 0l-15-9-2-1c0 5 3 8 4 12 1 3 3 5-1 6-4 2-4-1-5-3l-9-20c0-2-2-4 0-6 2-1 5-2 7 0l18 12-6-15c-1-2-2-4 1-5s4 0 5 2l7 16zM358 402c4-8 19-12 23-4-2 2-4 4-7 3-5-1-9 1-10 5-2 4 1 11 5 14 4 2 9 1 11-2s2-5 1-8h-1c-2 0-4 4-6 1-3-4 2-5 4-6 7-5 6-5 11 3l2 3c3 5 3 6-3 7l-2 2c-5 7-12 9-18 6-8-2-13-11-11-18l1-6zM84 380c-5-6-5-6-11-1-2 1-3 5-6 2-2-2-3-4-1-5l19-18c1-2 3-2 4 0 2 1 3 3 1 5l-6 6 2 4c6 5 6 5 12 0 2-2 3-3 6 0 2 2 0 4-2 5l-16 16c-2 2-3 3-6 1-2-2-1-4 1-6l3-3c3-2 3-4 0-6zM125 390l1 2-8 32c-5-2-7-4-5-8 1-3-1-4-3-6-3-1-5-5-8-2-3 2-6 2-8-1 0-2 1-3 2-3l21-14c3-2 6-3 8 0m-7 9c-4-1-5 2-7 4 1 1 2 3 4 3 2-2 2-4 3-7zM304 436l-2-8c0-2 0-4 2-4 3-1 4 0 5 2l4 19c0 7-4 11-11 13-6 1-11-1-14-7l-4-20c-1-2 0-3 2-3 2-1 4 0 4 2l3 14 2 5c1 2 4 3 6 2 3 0 5-2 5-5l-2-10zM418 392c-1 7-8 12-14 11-2 0-5-1-5-4 1-2 3-4 6-3h4c2-2 3-3 2-5s-2-3-4-2l-8 3c-4 1-7 0-10-3-2-3-2-7 0-10 2-5 8-8 13-7 1 0 3 1 3 3s-2 3-4 4h-3l-3 2v4h4l6-2c8-3 13 0 13 9zM173 439l-3 7c-1 3-3 3-5 2s-2-2-2-4l8-24c1-3 3-4 5-2l11 4c5 2 6 7 5 11-2 5-6 8-12 7-2 0-4-2-7-1m5-6 2 1c2 0 5-1 5-4 1-3-2-4-4-5-1 0-4-1-5 2-1 2-2 5 2 6zM132 424l9-18c2-3 3-3 6-2l9 5c5 3 6 8 4 13s-7 7-12 5c-6-3-10-3-12 4-1 2-3 3-5 1-3-1-2-3-1-5l2-3m17-12c-4-1-4 2-5 4s0 3 2 4 4 2 6 0c2-1 2-3 1-5l-4-3zM207 447l-6-21c5-1 7 0 8 5l3 9 7-8c2-3 5-4 8-1l-8 11c-3 4-5 9-6 14 0 2-1 4-3 4-3-1-4-2-4-5l1-8zM268 457c3 0 7-2 7 2 1 5-4 3-6 3l-9 1c-3 0-5-1-5-4l-1-25c-1-2 0-3 3-3 2 0 3 1 3 3l1 17c0 5 2 6 7 6z"/>
    </symbol>
    <symbol id="transactions" viewBox="0 0 496 496">
       <path fill="#F34750" d="m1 231 7-6 54-54 72-72 12-12c2-2 4-1 6 1l46 46 58 58c2 2 3 2 5-1L362 91l61-61 2-3c3-2 3-4 1-6L407 1h106v106a870 870 0 0 1-38-37c-2-3-4-3-7 0l-71 71-74 74-60 60-5 4-34-34-62-62-9-9c-3-4-5-4-8-1l-61 62-83 82v-86z"/><path fill="#34547A" d="M279 513a4383 4383 0 0 1 0-196c0-5-1-11 2-15 4-5 9-7 15-7h112c13 0 20 7 20 20v198H279zm-190 0V376c0-12 7-18 18-18a61862 61862 0 0 1 116 0c10 3 14 8 14 18l1 18-1 119H89z"/><path fill="#35547A" d="m468 513 1-8V318l-1-81 1-12c1-9 7-14 16-14h28v302h-45z"/><path fill="#35557A" d="M1 442h28c11 0 18 7 18 18v53H1v-71z"/>
    </symbol>
    <symbol id="dynasty" viewBox="0 0 496 496">
        <svg xmlns="http://www.w3.org/2000/svg" width="496" height="496" version="1.0" viewBox="0 0 1182 1182"><path d="m208 209-4 6c-2 7-1 31 2 52 4 34 6 44 12 58 4 14 4 13 0 17l-8 8c-7 6-6 8 0 4 5-4 7-4 11-4 3 0 2 3-2 5-11 6-17 10-17 12l10-3c8-3 12-4 13-3 2 2-2 5-12 10l-10 5-8 5c0 2 2 1 8-2 12-5 16-6 16-4l-10 6c-19 9-27 13-27 15 0 1 3 1 18-6s22-9 23-8c0 1-1 4-5 8l-27 18a344 344 0 0 0-30 21l22-12a218 218 0 0 1 26-14c6-4 13-7 25-12l5-2a170 170 0 0 1 109-14c2 1 3 3 4 6 1 6 2 7 10 10 5 1 8 4 12 10 2 3 2 5 2 10-1 9-2 10-12 7-8-3-10-3-20-3-12 1-18 0-22-3-5-4-1-6 16-9 7-1 12-3 12-6s-7-5-22-5c-12 0-20 1-26 4l-14 2h-13c-2 0-7 5-9 11-4 10-5 11-11 11-5 0-6 0-9 4l-4 6c0 2 0 2 5 1 5 0 6 0 9 2 4 4 5 5 6 15s3 13 9 19c4 5 6 10 8 16 0 2 1 4 5 5 6 3 10 6 9 8l-9 1c-9 0-11 1-6 5l3 2c2 0 8 5 8 6 0 3-5 5-13 6l-7 1 4 4c3 1 5 3 5 4l-5 7c-4 5-5 5-8 5l-3-1v5c0 5 0 6-3 9-9 6-12 10-12 11l7 1c10 1 16 6 8 7l-6 2-7 2c-4 1-4 3-1 10l2 8c0 2 1 3 5 6 6 3 12 10 12 13l-3 8c-4 7-4 10 0 15 3 5 3 10 0 10h-7c-5 0-7 1-2 3l2 1c0 3-3 6-7 8-6 4-4 5 4 4 8 0 9 1 4 6l-5 6c-3 4-2 5 4 4 5 0 8 2 8 5l-5 1c-3 0-4 0-4 2a1677 1677 0 0 0-167-5h-9l7 1 41 2c44 1 66 2 104 6l18 2 8 1c2 1 1 4-2 5s-4 5-1 5 9 4 16 13l12 10 4 4c0 2-1 2-14 3a8783 8783 0 0 0-153 5c-17 1-29 2-47 5l-18 2-5 1-5 1-3 1a352 352 0 0 0 55-6l26-1a5451 5451 0 0 1 161 0l-2 2-2 3c-1 2-1 2 6 3 5 1 6 2 4 3s0 2 5 4l4 2c0 2-7 4-16 6l-42 6-15 3-10 2-28 5a4692 4692 0 0 0-100 21l-8 2a602 602 0 0 1-11 5 1792 1792 0 0 1 29-6l28-6 18-3 18-4 19-3 14-3 25-4 22-4a957 957 0 0 0 46-5l5-1c6-2 6-1 7 1 0 2 1 3 3 3 3 0 4 2 2 4s-2 4 0 4l3 3c1 2 3 3 6 4l6 3-3 5c-2 3-2 4 7 2 7-1 14 0 24 5 12 5 15 3 21-7s15-17 27-23c7-3 20-4 21-1l-3 6c-3 2-4 4-3 5l4 3 5 3-6 4c-12 6-13 8-21 27-6 16-5 18 6 19 7 1 10 4 13 9 2 6 3 6 8 3s15-5 22-5c7 1 16 4 16 6 0 1-2 2-13 2l-11 2c-3 3-2 5 0 8 5 4 14 5 21 2 6-3 9-3 14-2 9 3 20 5 25 5 4 0 5-1 7-3 2-3 3-3 12 0 6 3 9 3 18 3 34 0 51-13 50-40 0-8 0-9-4-18-5-12-8-17-12-21-3-3-15-11-19-12l-10-10c-5-7 0-15 9-14 6 1 12 6 19 15 11 15 16 18 26 18s14-2 28-17c13-13 17-15 23-14 8 2 10 10 5 17l-18 13c-19 12-25 17-30 27-3 7-4 8-4 18 0 9 1 11 3 15 6 14 21 21 51 24l23 2c15 1 22 0 22-3 0-2 0-2 3-2 10 3 12 3 13 1l2-2c15 4 18 4 25 1 5-1 5-1 8 1 2 2 5 3 8 3l4 1v-4c0-6-2-9-8-13l-7-4c-2-2-2-2-1-3 4-6 24-4 32 2l6 2c7 0 8-5 2-13l-5-7 4-6 3-6c0-6-8-14-19-22-7-4-9-7-5-8h24c12 3 17 3 17 2l-2-6c-2-6-3-8 0-9 6-1 20 5 31 14 7 6 12 9 19 11h21c3-1 3-2 3-5 0-5 1-7 11-12 6-4 9-7 8-9-2-2-3-2 40 4a1419 1419 0 0 1 85 15l14 2 13 3 18 3a1259 1259 0 0 1 76 15c1-1 0-1-2-1l-3-1-5-1-10-3-11-2-9-2-39-9-16-3a305 305 0 0 0-24-5l-16-3-9-2-13-3-14-2-40-7-11-2-10-2c-7 0-10-1-8-2v-4c-2-2-2-3 0-6l7-8 6-5h53a1350 1350 0 0 1 168 7l-49-6c-28-3-87-6-121-6l-53-2c-1-2 3-4 8-4 14-2 15-3 11-8-3-4-2-6 2-7l5-3c1-2 0-3-6-7-8-5-9-6-7-9l14-3a1563 1563 0 0 1 163-9 1887 1887 0 0 0-179 4l-4-3c-2-3 2-7 9-11 8-6 9-7 4-11l-3-3 2-3c1-2 2-5 4-6l4-7c2-4 2-4 0-5-2-2-3-5 0-6 5-4 3-7-4-10-3-1-4-3-2-4l15-1c4 0 4-2-2-5s-7-6-4-10l3-2c2 0 7-4 7-6l-3-4-6-4c-2-2-2-3-2-8 2-16 2-15-1-17l-4-1c-2 0-2-3 0-5 4-3 1-6-12-16l-5-5c0-1 2-3 5-4 7-3 7-5-4-11-6-4-6-5-7-8 0-5 2-7 10-11l8-5c3-3 3-6-1-8-7-3-7-4-8-7l-2-4-4 4c-2 3-3 3-6 3h-4l-2 11c-2 19-2 19-24 5-6-4-13-6-18-6-3 0-3 0-2-1 2-3 9-4 20-4h10v-5c-2-10-1-13 6-15 4-1 5-1 10 1 5 3 6 3 9 2l6-5c3-3 3-3 2-9 0-4-1-7-3-10s-3-5-3-8c0-4 0-5 3-6 6-1 24 7 35 17 10 8 17 12 18 9 0-2-15-17-28-27s-17-14-15-18c3-5 13-5 23 0 11 4 29 16 40 27l7 5c2 0 2 0 0-3l-15-18-22-22c-4-2-11-8-12-10-2-1 2-1 11 1l11 3c2 0 2 0 0-2l-13-8c-11-6-15-8-14-10 1-3 8-3 25 1l7 1c1-1-11-7-27-14a960 960 0 0 0-100-29c-10 0-12 1-16 12l-5 10c-2 2-2 2-9 2-8 0-10 1-13 7-2 3-6 7-8 7-3 0-4 0-6-4-1-3-1-3 1-7 1-3 1-3-1-5l-2-4 12-4c2 0 12-4 15-7l7-8c1-3 5-7 8-9 5-4 8-6 23-22 13-14 36-31 64-48 14-9 20-11 27-11 6 0 7 1 8 13 2 19-3 59-8 73-2 4-3 5-5 5-4 1-22-1-32-2l-19-3-46-4c-8 0-9 0-11 2l-3 5c0 2 0 2 4 2l11-3h15a233 233 0 0 1 50 12c8 3 10 3 19 3 12 0 13 0 13 7 0 4 0 4 3 5 4 1 4 1 8-3 5-5 10-7 14-6l9 2 10 2c7 1 2-2-10-6l-13-5c-2-2-1-7 1-15 7-22 10-46 10-83 1-22 0-26-1-29-3-5-5-7-11-7a160 160 0 0 0-63 26 341 341 0 0 0-52 41l-12 11a394 394 0 0 1-63 46c-12 4-12 3-7-7l4-9h-3c-2 0-10 4-13 7-7 7-15 6-13-2 0-5-1-6-6-3-11 7-12 7-27 7l-27-3a562 562 0 0 0-75-4 412 412 0 0 0-76 1c-3 2-16 3-28 3-15 0-17 0-26-6l-7-3c-3 0-3 0-3 3l1 5c1 2 1 6-1 6-3 1-7-3-11-10-5-9-9-12-10-8v23h-5c-5 0-11-2-21-9-5-3-14-9-15-11l-9-7-11-10c-6-6-20-13-31-14-5-1-13-5-17-8l-7-5-18-14c-20-16-20-16-37-27a197 197 0 0 0-38-20c-4-2-14-4-18-4l-6 2zm31 37a226 226 0 0 1 81 52l11 9c18 14 17 18-3 20l-27 4-13 4-14 5c-11 6-25 10-31 10-4 0-4-3 1-6l4-3-8-25c-13-39-18-62-15-70 1-4 2-4 14 0zm110 86 2 7c2 7 6 13 17 19l10 7h-9c-14-4-17-6-20-9-6-8-6-8-14-10-9-1-13-3-10-5l5-1c4 0 9-2 10-4 0-2 5-6 7-6l2 2zm551 54c8 5 14 10 20 17 4 6 5 10 3 11s-3 1-12-3l-14-6-30-4c-15 0-15-4-1-8 7-1 7-2 9-6l3-4h8c5 0 8 1 13 4zm-610 36c17 3 24 6 32 14 9 9 7 11-7 6-7-3-9-3-13-2-8 1-13-1-19-7l-7-7c-4-2-4-4 0-5 3-1 4-1 14 1zm601 3c5 3 5 6-3 11-4 3-6 4-6 6 0 5 2 6 11 6 8-1 10 0 10 3 0 4-2 6-7 7-6 1-35 4-38 3s-3-4 1-8c5-6 5-9 1-14-6-9-4-13 9-15 8-2 18-2 22 1zm-590 31c7 2 13 5 23 11 13 7 31 22 31 26 0 3-12-2-24-11-6-4-13-8-23-12l-13-7-10-6-2-3c0-2 9-1 18 2zm115 113c13 1 16 2 17 3l1 9c0 20 16 50 27 50 2 0 3-2 4-5 2-4 2-6 2-24-1-22-1-21 7-16 28 13 44 35 44 58 0 6 0 7-2 7l-3-1c-8-6-8-6-33-6-42 0-56-4-74-20-6-7-11-14-14-25-3-10-4-11-15-20-7-6-5-9 8-11h31zm389 0c5 2 8 4 8 6 0 1-2 4-5 6-7 7-9 10-12 19-5 13-8 18-16 25-9 8-20 15-28 16l-12 3a147 147 0 0 1-40 3l-9-2-8-1c-6 0-7 0-11 2-8 6-11 5-9-5 2-20 17-39 43-51 14-7 13-8 13 13 0 20 1 28 4 29 3 0 10-4 13-8l12-22 4-20 1-9 6-1 7-1 29-3 10 1zM568 874c-19 5-22 6-30 3-2 0-4 0-7 2-3 3-4 3-10 3l-12-2c-6-1-11 0-11 2s4 6 9 9l8 8c5 6 10 8 23 9 10 0 15 2 21 7l10 5c9 3 13 2 26-2 12-4 20-5 25-3l6 2 17-6 18-9c13-6 18-10 18-15 0-3-2-3-10-2-9 2-13 1-15-3-1-2-1-2-8-2-6 0-9-1-12-3l-5-2-2 2c-1 2-2 2-5 2l-14-2c-7 0-11-1-15-3-8-3-14-4-25 0z"/></svg>
    </symbol>
    <symbol id="regaber" viewBox="0 0 496 496">
        <svg xmlns="http://www.w3.org/2000/svg" width="496" height="496" version="1.0" viewBox="0 0 97 96"><g fill="#001f64"><path d="M30 5c-4 9-3 18 4 25 9 9 21 9 30 0 7-7 9-16 4-25l-2-4 1 5c0 6-3 13-8 17-3 2-4 2-10 2s-7 0-10-2c-6-4-8-11-8-17 1-5 1-5-1-1z"/><path d="M20 17c-3 6-4 18-2 25 10 28 52 28 62 0 2-9 1-22-4-28l-1-3 1 3c1 5 0 14-2 18-4 9-16 17-25 17-7 0-13-3-19-9-7-7-8-12-8-22v-6l-2 5z"/><path d="M8 33c-11 25 4 55 30 61a45 45 0 0 0 52-60l-2-4v8c-1 12-4 19-12 27l-12 8c-5 2-7 2-15 2-12 0-18-2-26-10-9-8-12-15-13-27v-9l-2 4z"/></g></svg>
    </symbol>
    <symbol id="eatfity" viewBox="0 0 496 496">
       <svg xmlns="http://www.w3.org/2000/svg" width="496" height="469"><g class="layer"><g fill-rule="evenodd"><path fill="#04d4a4" d="M435 48h-4l-3 1v-1h-1l-2 1h-3s-1 0 0 0h-3l-2 1h-6c0 1 0 1 0 0h-1l-2 1a34 34 0 0 0-7 1l-2-1-4 1h-3c0 1 0 1 0 0h-3l-2 1h-1c0-1 0-1 0 0h-4l-4 1h-7l-1 1h-1v-1l-3 1h-2c1 1 0 1 0 0h-2c1 1-3 1-5 1h-6l-3 1h-3l-3 1h-8c0 1 0 1 0 0h-1c-1 0-1 0 0 0l-2 1a116 116 0 0 0-7 1h-9l-2 1h-2c1 0 1 0 0 0h-5l-2 1h-6l-2 1h-4c0-1 0-1 0 0h-4l-3 1h-7l-4 1h-2l-3 1-1-1-3 1h-6l-2 1h-1a103 103 0 0 0-11 1h-2l-4 1h-6l-1 1v-1l-2 1h-2l-1-1v1h-3l-3 1h-6l-2 1h-2v-1l-1 1h-1c0-1 0-1 0 0h-4l-2 1h-9l-6 1h-3l-2 1h-6l-3 1v-1h-1l-2 1h-2l-1 1v-1h-1l-5 1h-4l-1 1-2-1-3 1h-2c0 1 0 0 0 0h-1l-2 1h-7c1 0 1 0 0 0h-2l-2 1h-4c-1 0-1 0 0 0h-3l-3 1h-6c1 0 1 0 0 0l-2 1h-7l-1 1h-8l-2 1h-7l-3 1h-8l-3 1h-3l-3 1-1-1-2 1h-5l-2 1h-7v1-1h-1l-1 1h-1l-2 1-1 1-1 1v12c-1 0-1 0 0 0v1l1 1v5l1 2v2l1 2v3l1 2v5l1 1v1a89 89 0 0 0 1 7l1 1v3l1 1v3l1 2v1c-1-1-1-1 0 0v2l1 2v4c1 0 1 0 0 0v1l1 1v2l1 1v2l1 1-1 1c0-1 0 0 0 0l1 3v1c0-1 0 0 0 0l1 3v2l1 2v3l1 1v1c-1 0-1 0 0 0v3l1 1v3l1 1v5l1 1v3l1 1v4l1 2v1l1 2h-1 1v4l1 1v1c-1 0-1 0 0 0v3l1 2v4c1-1 1 0 1 1v4c0 1 0 2 1 1v1l1 1-1 1c0 1 0 1 0 0l1 1v4l1 1v3l1 2v3l1 3v1l1 2v4l1 1v2l1 2v4l1 2v4h1v3l1 1v3l1 2v1c-1 0-1 0 0 0v2l1 2v3l1 2v4l1 1v2l1 2v4l1 1v5h1v4h1v2l1 4v4l1 2v1c1-1 1 0 1 1v5l1 2v4l1 2v1l1 1v4l1 1v1l2 3s0 1 0 0h-1l1 1h2l1 1 1 1a545 545 0 0 0 61 1v4l-1 1v1l-1 3v4a60 60 0 0 0-2 7l-1 2v2l-1 1v3l-1 2v2l-1 1v1l-1 4v1l-1 1v1l-1 5v2l-1 2v3l-2 4h1v1h-1v1l-1 3v3l1 1v2h1v1c0 1 0 1 0 0l2 1c1 2 1 2 5 2l5-1 1-1 2-1 1-1 1-1 2-1 1-1 1-1 1-1 1-1 2-1h1v-1 1h1v-2h1l1-1 1-1 3-3h1l2-1 1-1c0 1 0 0 0 0s2-2 3-1v-1l1-1 2-2h1l1-1 2-2h2-1v-1h2l2-2 2-2 1-1h1l1-1v-1l2-1h1l1-1v-1h1l2-1c1-2 2-2 3-2v-1h1l1-2 2-1c0 1 0 0 0 0h1v-1h1v-1h1l2-1v-1c-1 0-1 0 0 0h1v-1s1 0 0 0c0 0 0-1 0 0l2-1h1l2-2 2-2 1-1 3-1 3-3 2-2 2-1 2-2 1-1h1v-1l2-1h1l2-2h1c-1-1 2-3 3-3l1-1 1-1 2-1 1-1c-1 0 0 0 0 0h1v-1h1v-1l2-1c0 1 0 0 0 0v-1 1l1-1 2-1h1v-2h2l1-1 1-1 1-1 1-1h1l2-3 2-1h1l1-1 1-1c-1 0 0 0 0 0l2-1 2-1v-1l1-1 2-1 2-1 1-1v-1l3-1v-1h1v-1h1l1-1 1-1a3732 3732 0 0 1 105-1l1-1 1-2h1v-4l1-2v-2c-1 0-1 0 0 0v-3l1-2v-6l1-1v-4l1-1v-7l1-3v-3l1-2v-3c-1 1-1 1 0 0v-2l1-2v-1h-1l1-3v-3c1 0 1 0 0 0l1-2 1-5v-8l1-3v-2l1-4v-3h1l-1-1c-1 0-1 0 0 0v-4l1-2v-3c1 0 1 0 0 0v-1l1-2v-6l1-1v-6l1-3v-3l1-3v-6l1-2v-5l1-2v-7l1-1v-3l1-3v-5l1-2v-5l1-5v-3c1 0 0 0 0 0v-2h1v-5l1-3v-3l1-1v-9l1-2v-5l1-2v-7l1-2v-6l1-1v-5l1-3v-4l1-7h1l-1-1v-1l1-1v-5l1-2v-4l1-8c0-7-1-11-2-10v-1h-2v-1h-1v-1l-1 1h-7"/><path fill="#04dca4" d="M432 48h2v-1l-2 1m-11 1h1-1m-6 1h2l-1-1-1 1m-12 1h2c3 0 3-1 0-1l-2 1m-5 0h1-1m-18 2 1 1v-1h-1m-7 1 1 1 1-1h-2m-23 3h1l-1-1v1m-6 0h1c1 0 1 0 0 0h-1m-18 2h4-4m-12 1h2-2m-11 2h1v-1l-1 1m-24 2h3-3m-24 3h2l-1-1-1 1m-17 2h1v-1l-1 1m-6 0v1l1-1h-1m-6 1h1-1m-18 2h1c1 0 2-1 0-1l-1 1m238 0v1l1-1h-1m-250 1 1 1v-1h-1m-6 1 4-1h-2l-2 1m-18 1 1 1 1-1h-2m-4 1v1l1-1h-1m-31 3h4-4m-6 1h1c2 0 2 0 0 0h-1m314 0v2l1-2h-1M95 84h2c1 0 1 0 0 0h-2m-17 2h1l-1-1v1m-17 2h1c2 0 2-1 0-1l-1 1m383 3v1-2 1m-2 14v1l1-1h-1m-392 5v1-3 2m391 0v1l1-2-1 1m-2 15h1v-1l-1 1m-385 6v1-1c0-1 0-1 0 0m3 12v1-1m379 5v1l1-1h-1m-378 1v1l1-1h-1m3 12v1-1m0 3v1l1-1h-1m373 3v1-2 1m-2 9v1h1c-1 1-1 1 0 0v-2l-1 1M66 189l1 1v-2l-1 1m1 6h1v-1l-1 1m363 0v-1 1m-361 6v1-2 1m359 7v2-3 1m-357 1v2-3 1m356 9v1-1m-354 4v1l1-1h-1m353 2v1l1-1h-1m-352 1v1h1l-1-1m350 11v2l1-2h-1m-347 4v1h1l-1-1m346 7v1l1-1h-1m-1 4 1 1-1-1m-342 2c0 1 0 1 0 0v-1 1m1 5v1-1c0-1 0-1 0 0m340 1v3l1-1-1-2m-339 3v-1 1m0 2 1 1v-1h-1m2 9v1-2 1m1 4v-1 1m333 3h1v-1l-1 1m-332 2h1-1m331 7 1 1v-1h-1m0 5v1-1c0-1 0-1 0 0m-327 6v1c0 1 0 1 0 0v-1c-1-1-1-1 0 0m325 3 1 2v-1h-1l1-1h-1m0 5v1-1m-323 2v1-2 1m320 5c0 1 0 1 0 0h1-1m-319 4h1v-1l-1 1m211 0v1l1-1h-1m-209 6v1h1c0-2-1-2-1-1m201 1-1 1 1-1h1-1m-199 7v1-1m188 1-1 1 1-1c1-1 1-1 0 0m-187 6v1-1m176 2-1 2 2-2h-1m-175 2v1c0 2 1 2 1 1l-1-1v-2 1m2 6h1v1-1h-1m2 2h2-1l-1-1v1m156 2s-1 1 0 0l2-1-2 1m-4 2-1 1 1 1 1-2h-1m-5 5v1l1-2-1 1m-86 5v1l1-1v-2l-1 2m78 1v1l1-1h-1m-5 4-1 1h1v-1h1-1m-74 1-1 2 1-1v-2 1m69 3h-1c1 0 0 0 0 0v1l2-2-1 1m-10 7v1l1-1v-1l-1 1m-62 3v-1 1m53 4-1 1c-1 0-1 0 0 0h1v-1m-6 4v1l1-1h-1m-5 5-1 1 2-2-1 1m-3 2-1 1 1-1h1v-1l-1 1m-3 2v1l1-1h-1m-5 4-1 1 1-1 1-1-1 1m-3 2-1 1 2-1h-1m-35 2v1h1v-1h-1m24 6v1l1-1h-1m-6 5h1v-1l-1 1m-16 3h1l-1-1v1"/></g></g></svg>
    </symbol>
</defs>
</svg>