<svg xmlns="http://www.w3.org/2000/svg">
  <defs>
    <symbol id="email" viewBox="0 0 512 512">
      <path d="M64 112c-8.8 0-16 7.2-16 16v22.1L220.5 291.7c20.7 17 50.4 17 71.1 0L464 150.1V128c0-8.8-7.2-16-16-16H64zM48 212.2V384c0 8.8 7.2 16 16 16H448c8.8 0 16-7.2 16-16V212.2L322 328.8c-38.4 31.5-93.7 31.5-132 0L48 212.2zM0 128C0 92.7 28.7 64 64 64H448c35.3 0 64 28.7 64 64V384c0 35.3-28.7 64-64 64H64c-35.3 0-64-28.7-64-64V128z"/>
    </symbol>
    <symbol id="github" viewBox="0 0 496 512">
      <path d="M165.9 397.4c0 2-2.3 3.6-5.2 3.6-3.3 .3-5.6-1.3-5.6-3.6 0-2 2.3-3.6 5.2-3.6 3-.3 5.6 1.3 5.6 3.6zm-31.1-4.5c-.7 2 1.3 4.3 4.3 4.9 2.6 1 5.6 0 6.2-2s-1.3-4.3-4.3-5.2c-2.6-.7-5.5 .3-6.2 2.3zm44.2-1.7c-2.9 .7-4.9 2.6-4.6 4.9 .3 2 2.9 3.3 5.9 2.6 2.9-.7 4.9-2.6 4.6-4.6-.3-1.9-3-3.2-5.9-2.9zM244.8 8C106.1 8 0 113.3 0 252c0 110.9 69.8 205.8 169.5 239.2 12.8 2.3 17.3-5.6 17.3-12.1 0-6.2-.3-40.4-.3-61.4 0 0-70 15-84.7-29.8 0 0-11.4-29.1-27.8-36.6 0 0-22.9-15.7 1.6-15.4 0 0 24.9 2 38.6 25.8 21.9 38.6 58.6 27.5 72.9 20.9 2.3-16 8.8-27.1 16-33.7-55.9-6.2-112.3-14.3-112.3-110.5 0-27.5 7.6-41.3 23.6-58.9-2.6-6.5-11.1-33.3 2.6-67.9 20.9-6.5 69 27 69 27 20-5.6 41.5-8.5 62.8-8.5s42.8 2.9 62.8 8.5c0 0 48.1-33.6 69-27 13.7 34.7 5.2 61.4 2.6 67.9 16 17.7 25.8 31.5 25.8 58.9 0 96.5-58.9 104.2-114.8 110.5 9.2 7.9 17 22.9 17 46.4 0 33.7-.3 75.4-.3 83.6 0 6.5 4.6 14.4 17.3 12.1C428.2 457.8 496 362.9 496 252 496 113.3 383.5 8 244.8 8zM97.2 352.9c-1.3 1-1 3.3 .7 5.2 1.6 1.6 3.9 2.3 5.2 1 1.3-1 1-3.3-.7-5.2-1.6-1.6-3.9-2.3-5.2-1zm-10.8-8.1c-.7 1.3 .3 2.9 2.3 3.9 1.6 1 3.6 .7 4.3-.7 .7-1.3-.3-2.9-2.3-3.9-2-.6-3.6-.3-4.3 .7zm32.4 35.6c-1.6 1.3-1 4.3 1.3 6.2 2.3 2.3 5.2 2.6 6.5 1 1.3-1.3 .7-4.3-1.3-6.2-2.2-2.3-5.2-2.6-6.5-1zm-11.4-14.7c-1.6 1-1.6 3.6 0 5.9 1.6 2.3 4.3 3.3 5.6 2.3 1.6-1.3 1.6-3.9 0-6.2-1.4-2.3-4-3.3-5.6-2z"/>
    </symbol>
    <symbol id="linkedin" viewBox="0 0 448 512">
      <path d="M416 32H31.9C14.3 32 0 46.5 0 64.3v383.4C0 465.5 14.3 480 31.9 480H416c17.6 0 32-14.5 32-32.3V64.3c0-17.8-14.4-32.3-32-32.3zM135.4 416H69V202.2h66.5V416zm-33.2-243c-21.3 0-38.5-17.3-38.5-38.5S80.9 96 102.2 96c21.2 0 38.5 17.3 38.5 38.5 0 21.3-17.2 38.5-38.5 38.5zm282.1 243h-66.4V312c0-24.8-.5-56.7-34.5-56.7-34.6 0-39.9 27-39.9 54.9V416h-66.4V202.2h63.7v29.2h.9c8.9-16.8 30.6-34.5 62.9-34.5 67.2 0 79.7 44.3 79.7 101.9V416z"/>
    </symbol>
    <symbol id="appstore" viewBox="0 0 448 512">
        <svg xmlns="http://www.w3.org/2000/svg" xml:space="preserve" viewBox="0 0 800 800"><linearGradient id="a" x1="400.1" x2="400.1" y1="798.8" y2="-1.2" gradientTransform="matrix(1 0 0 -1 0 799)" gradientUnits="userSpaceOnUse"><stop offset="0" style="stop-color:#18bffb"/><stop offset="1" style="stop-color:#2072f3"/></linearGradient><path fill="url(#a)" d="M638 0H162C72 0 0 72 0 162v477c0 89 72 161 162 161h477c89 0 161-72 161-162V162C800 72 728 0 638 0z"/><path fill="#FFF" d="m397 184 16-28a36 36 0 1 1 63 36L320 462h113c36 0 57 43 41 73H143a36 36 0 0 1 0-73h93l119-206-37-64a36 36 0 0 1 63-36l16 28zM256 573l-35 60a36 36 0 1 1-63-36l26-45c29-9 53-2 72 21zm302-110h94a36 36 0 1 1 0 73h-52l35 61a36 36 0 0 1-63 36L438 400c-31-52-9-105 12-123l108 186z"/></svg>
    </symbol>
    <symbol id="googleplay" viewBox="0 0 448 512">
        <svg class="kOqhQd" aria-hidden="true" viewBox="0 0 40 40" xmlns="http://www.w3.org/2000/svg"><path fill="none" d="M0,0h40v40H0V0z"></path><g><path d="M19.7,19.2L4.3,35.3c0,0,0,0,0,0c0.5,1.7,2.1,3,4,3c0.8,0,1.5-0.2,2.1-0.6l0,0l17.4-9.9L19.7,19.2z" fill="#EA4335"></path><path d="M35.3,16.4L35.3,16.4l-7.5-4.3l-8.4,7.4l8.5,8.3l7.5-4.2c1.3-0.7,2.2-2.1,2.2-3.6C37.5,18.5,36.6,17.1,35.3,16.4z" fill="#FBBC04"></path><path d="M4.3,4.7C4.2,5,4.2,5.4,4.2,5.8v28.5c0,0.4,0,0.7,0.1,1.1l16-15.7L4.3,4.7z" fill="#4285F4"></path><path d="M19.8,20l8-7.9L10.5,2.3C9.9,1.9,9.1,1.7,8.3,1.7c-1.9,0-3.6,1.3-4,3c0,0,0,0,0,0L19.8,20z" fill="#34A853"></path></g></svg>
    </symbol>
</defs>
</svg>