<svg xmlns="http://www.w3.org/2000/svg">
  <defs>
    <!-- astro icon -->
    <symbol id="astro" viewBox="0 0 85 107">
      <path d="M27.5894 91.1365C22.7555 86.7178 21.3444 77.4335 23.3583 70.7072C26.8503 74.948 31.6888 76.2914 36.7005 77.0497C44.4375 78.2199 52.0359 77.7822 59.2232 74.2459C60.0454 73.841 60.8052 73.3027 61.7036 72.7574C62.378 74.714 62.5535 76.6892 62.318 78.6996C61.7452 83.5957 59.3086 87.3778 55.4332 90.2448C53.8835 91.3916 52.2437 92.4167 50.6432 93.4979C45.7262 96.8213 44.3959 100.718 46.2435 106.386C46.2874 106.525 46.3267 106.663 46.426 107C43.9155 105.876 42.0817 104.24 40.6845 102.089C39.2087 99.8193 38.5066 97.3081 38.4696 94.5909C38.4511 93.2686 38.4511 91.9345 38.2733 90.6309C37.8391 87.4527 36.3471 86.0297 33.5364 85.9478C30.6518 85.8636 28.37 87.6469 27.7649 90.4554C27.7187 90.6707 27.6517 90.8837 27.5847 91.1341L27.5894 91.1365Z" fill="#F041FF"/>
      <path d="M0 69.5866C0 69.5866 14.3139 62.6137 28.6678 62.6137L39.4901 29.1204C39.8953 27.5007 41.0783 26.3999 42.4139 26.3999C43.7495 26.3999 44.9325 27.5007 45.3377 29.1204L56.1601 62.6137C73.1601 62.6137 84.8278 69.5866 84.8278 69.5866C84.8278 69.5866 60.5145 3.35233 60.467 3.21944C59.7692 1.2612 58.5911 0 57.0029 0H27.8274C26.2392 0 25.1087 1.2612 24.3634 3.21944C24.3108 3.34983 0 69.5866 0 69.5866Z" fill="currentColor"/>
    </symbol>

    <!-- javascript icon -->
    <symbol id="javascript" viewBox="0 0 630 630">
      <rect width="630" height="630" fill="#f7df1e"/>
      <path fill="black" d="m423.2 492.19c12.69 20.72 29.2 35.95 58.4 35.95 24.53 0 40.2-12.26 40.2-29.2 0-20.3-16.1-27.49-43.1-39.3l-14.8-6.35c-42.72-18.2-71.1-41-71.1-89.2 0-44.4 33.83-78.2 86.7-78.2 37.64 0 64.7 13.1 84.2 47.4l-46.1 29.6c-10.15-18.2-21.1-25.37-38.1-25.37-17.34 0-28.33 11-28.33 25.37 0 17.76 11 24.95 36.4 35.95l14.8 6.34c50.3 21.57 78.7 43.56 78.7 93 0 53.3-41.87 82.5-98.1 82.5-54.98 0-90.5-26.2-107.88-60.54zm-209.13 5.13c9.3 16.5 17.76 30.45 38.1 30.45 19.45 0 31.72-7.61 31.72-37.2v-201.3h59.2v202.1c0 61.3-35.94 89.2-88.4 89.2-47.4 0-74.85-24.53-88.81-54.075z"/>
    </symbol>

    <!-- typescript icon -->
    <symbol id="typescript" fill="none" viewBox="0 0 512 512">
      <rect fill="#3178c6" height="512" rx="50" width="512"/>
      <rect fill="#3178c6" height="512" rx="50" width="512"/>
      <path clip-rule="evenodd" fill="#fff" fill-rule="evenodd" d="m316.939 407.424v50.061c8.138 4.172 17.763 7.3 28.875 9.386s22.823 3.129 35.135 3.129c11.999 0 23.397-1.147 34.196-3.442 10.799-2.294 20.268-6.075 28.406-11.342 8.138-5.266 14.581-12.15 19.328-20.65s7.121-19.007 7.121-31.522c0-9.074-1.356-17.026-4.069-23.857s-6.625-12.906-11.738-18.225c-5.112-5.319-11.242-10.091-18.389-14.315s-15.207-8.213-24.18-11.967c-6.573-2.712-12.468-5.345-17.685-7.9-5.217-2.556-9.651-5.163-13.303-7.822-3.652-2.66-6.469-5.476-8.451-8.448-1.982-2.973-2.974-6.336-2.974-10.091 0-3.441.887-6.544 2.661-9.308s4.278-5.136 7.512-7.118c3.235-1.981 7.199-3.52 11.894-4.615 4.696-1.095 9.912-1.642 15.651-1.642 4.173 0 8.581.313 13.224.938 4.643.626 9.312 1.591 14.008 2.894 4.695 1.304 9.259 2.947 13.694 4.928 4.434 1.982 8.529 4.276 12.285 6.884v-46.776c-7.616-2.92-15.937-5.084-24.962-6.492s-19.381-2.112-31.066-2.112c-11.895 0-23.163 1.278-33.805 3.833s-20.006 6.544-28.093 11.967c-8.086 5.424-14.476 12.333-19.171 20.729-4.695 8.395-7.043 18.433-7.043 30.114 0 14.914 4.304 27.638 12.912 38.172 8.607 10.533 21.675 19.45 39.204 26.751 6.886 2.816 13.303 5.579 19.25 8.291s11.086 5.528 15.415 8.448c4.33 2.92 7.747 6.101 10.252 9.543 2.504 3.441 3.756 7.352 3.756 11.733 0 3.233-.783 6.231-2.348 8.995s-3.939 5.162-7.121 7.196-7.147 3.624-11.894 4.771c-4.748 1.148-10.303 1.721-16.668 1.721-10.851 0-21.597-1.903-32.24-5.71-10.642-3.806-20.502-9.516-29.579-17.13zm-84.159-123.342h64.22v-41.082h-179v41.082h63.906v182.918h50.874z"/>
    </symbol>

    <!-- tailwind icon -->
    <symbol id="tailwind" viewBox="0 0 47 40" fill="none">
      <path fill="#6366f1" d="M23.5 6.5C17.5 6.5 13.75 9.5 12.25 15.5C14.5 12.5 17.125 11.375 20.125 12.125C21.8367 12.5529 23.0601 13.7947 24.4142 15.1692C26.6202 17.4084 29.1734 20 34.75 20C40.75 20 44.5 17 46 11C43.75 14 41.125 15.125 38.125 14.375C36.4133 13.9471 35.1899 12.7053 33.8357 11.3308C31.6297 9.09158 29.0766 6.5 23.5 6.5ZM12.25 20C6.25 20 2.5 23 1 29C3.25 26 5.875 24.875 8.875 25.625C10.5867 26.0529 11.8101 27.2947 13.1642 28.6693C15.3702 30.9084 17.9234 33.5 23.5 33.5C29.5 33.5 33.25 30.5 34.75 24.5C32.5 27.5 29.875 28.625 26.875 27.875C25.1633 27.4471 23.9399 26.2053 22.5858 24.8307C20.3798 22.5916 17.8266 20 12.25 20Z"/>
    </symbol>

     <!-- react icon -->
    <symbol id="react" fill="none" viewBox="0 0 512 512">
      <svg xmlns="http://www.w3.org/2000/svg" xml:space="preserve" viewBox="0 0 2300 2000"><path fill="#61D9FA" d="m1544 2 108 1 11 4c37 10 69 28 97 55 29 30 49 65 62 104 18 52 24 105 26 159l-2 44c0 32-4 63-8 95-5 43-13 86-23 129l-7 32 7 2 95 31c69 25 136 55 198 95 31 20 59 42 85 68 19 18 36 39 50 62 19 32 32 66 34 103 3 35-3 69-16 101-16 38-41 70-70 99-23 23-49 43-76 61-42 28-86 51-132 71-55 24-112 43-169 60l-6 3 8 36a1534 1534 0 0 1 32 237l-2 42a469 469 0 0 1-48 197c-25 43-59 76-106 95l-31 10c-2 1-5 0-3 4l-116-1-6-3c-51-11-99-31-144-57a1260 1260 0 0 1-215-162l-23-21-66 59c-48 42-99 81-154 114a552 552 0 0 1-166 68v3l-118-1-7-3c-40-11-74-31-102-61-26-29-44-63-57-100-17-50-23-101-24-154a1336 1336 0 0 1 33-275l7-28-11-3c-37-11-74-23-110-37-70-26-137-58-198-100-37-27-72-56-100-93-33-44-53-93-52-150 1-31 9-61 22-90 19-40 47-73 79-102 39-34 82-62 127-86 72-38 148-66 226-89l17-5a1277 1277 0 0 1-39-244c-2-31-3-62 1-93 2-23 4-46 8-68 9-45 24-87 50-125 25-36 57-63 98-79l31-10c2-1 5-1 3-4l108 1 12 4c51 11 98 31 143 56 78 44 148 100 214 161l24 23 5-4 62-56c46-41 95-78 148-110 44-26 91-49 140-63l33-8c2-1 5-1 3-4M820 1343v-3c-45-72-87-145-127-221-27 63-50 125-70 190l32 7 124 22 41 5m47-565c-44 73-85 148-121 224l1 3 45 89c31 60 65 118 101 175l53 81c1 3 2 6 7 6l14 2 70 4 66 2a7046 7046 0 0 0 177-4l76-3 3-3a2474 2474 0 0 0 160-266l40-80c2-4 2-7 0-11-21-41-41-81-63-121-37-69-78-137-122-202l-17-25-65-5a2390 2390 0 0 0-240 0l-97 4c-5 0-7 3-9 6l-79 124m-120 654-152-26-5 21a1115 1115 0 0 0-31 223c-1 17 0 34 1 51 0 23 3 46 8 68 7 31 17 61 35 87 22 31 52 48 91 50 25 2 49-2 73-9 38-10 73-26 106-46 77-44 145-100 208-162l2-2c-31-37-62-72-91-108-32-40-62-81-93-122-2-4-5-7-11-7l-74-8-67-10M594 163c-4 9-9 17-12 26-17 42-22 86-23 130a1139 1139 0 0 0 34 270l3 11h5l60-13c74-14 149-25 224-31 6-1 12-3 16-10 2-5 6-9 9-13 39-54 80-106 123-157l51-58-35-32c-34-32-71-62-109-89-45-32-91-60-143-80-32-12-65-20-99-19-20 1-38 6-55 15-21 11-36 29-49 50m985-63c-41 5-79 20-116 38-38 19-73 42-107 67-36 26-71 55-104 85l-29 29 38 42c51 59 100 121 145 185 5 6 10 10 18 10h6l123 16c43 6 86 15 128 22l30 7 8-33c15-65 26-131 29-197 1-41 1-81-6-121-6-31-14-60-30-88-11-20-26-36-46-48-26-15-55-18-87-14m-309 1631c34 30 69 58 106 84 42 29 86 55 134 73 32 12 65 20 99 18 27-1 52-9 73-26 20-17 32-38 42-61 17-42 23-87 24-132 1-39-1-78-5-117-7-51-16-102-28-152l-4-13-92 18c-66 12-132 20-199 27-5 0-9 2-12 7a3107 3107 0 0 1-163 205l-22 25 47 44M223 858c-28 21-54 45-73 74-15 25-24 51-22 81 3 27 15 51 31 72 25 33 57 59 92 82 43 29 90 51 139 71 43 18 87 32 132 45l4 1 23-67c24-70 52-137 82-204 4-7 4-13 0-21-39-85-73-172-101-261l-4-11-59 19c-44 14-86 30-127 50-41 19-80 41-117 69m1527-47-2 5c-22 60-46 120-73 177-4 8-2 14 1 21a2205 2205 0 0 1 101 262l4 8 4-1c62-18 122-39 181-66 42-20 83-43 120-71 31-24 58-50 77-84 10-18 16-38 16-58 1-22-6-42-16-61-16-29-38-52-63-73-44-37-94-64-146-88-45-20-91-37-138-51l-35-10-31 90M726 825l72-123 24-39c-24-1-183 27-198 34 3 20 58 168 69 188l33-60m782 482-23 35c23 1 180-26 199-34-20-64-43-126-70-189l-35 65-71 123m-389 155h-31l-32-2h-31c41 55 83 106 129 155 45-50 88-101 128-154l-163 1m462-638 33 62c27-63 50-125 70-190-66-15-131-26-199-34l20 32 76 130m-555-280 10 1c2 1 5-1 7-1l91-2 94 2 45 2 10-1c-42-54-84-106-130-155-45 49-87 100-127 154z"/><path d="M651 2c3 3 0 3-2 4l-31 10c-41 16-73 43-98 79-26 38-41 80-50 125-4 22-6 45-8 68-4 31-3 62-1 93a1277 1277 0 0 0 39 244l-17 5c-78 23-154 51-226 89-45 24-88 52-127 86-32 29-60 62-79 102-13 29-21 59-22 90-1 57 19 106 52 150 28 37 63 66 100 93 61 42 128 74 198 100 36 14 73 26 110 37l11 3-7 28a1336 1336 0 0 0-33 275c1 53 7 104 24 154 13 37 31 71 57 100 28 30 62 50 102 61l6 3-647 1V2h649zM1659 2002c-3-4 0-3 2-4l31-10c47-19 81-52 106-95a469 469 0 0 0 49-197c-1-14 1-28 1-42a1166 1166 0 0 0-32-237l-8-36 6-3c57-17 114-36 169-60 46-20 90-43 132-71 27-18 53-38 76-61 29-29 54-61 70-99a216 216 0 0 0-18-204c-14-23-31-44-50-62-26-26-54-48-85-68-62-40-129-70-198-95l-95-31-7-2 7-32a1332 1332 0 0 0 31-224l2-44c-2-54-8-107-26-159-13-39-33-74-62-104-28-27-60-45-97-55l-10-4 649-1v2000h-643z"/><path d="M1543 2c3 3 0 3-2 4l-33 8c-49 14-96 37-140 63-53 32-102 69-148 110l-62 56-5 4-24-23c-66-61-136-117-214-161A527 527 0 0 0 761 3l782-1zM769 2002l-1-3 9-2c56-13 107-37 157-66 55-33 106-72 154-114l66-59 23 21a1260 1260 0 0 0 215 162 520 520 0 0 0 149 60l-772 1zM867 777l79-123c2-3 4-6 9-6l97-4a5545 5545 0 0 1 240 0l65 5 17 25c44 65 85 133 122 202 22 40 42 80 63 121 2 4 2 7 0 11l-40 80-63 111c-30 53-63 104-97 155l-3 3-76 3a2408 2408 0 0 1-177 4l-66-2-70-4-14-2c-5 0-6-3-7-6l-53-81c-36-57-70-115-101-175l-45-89-1-3c36-76 77-151 121-225m114 329a197 197 0 0 0 188 97c54-5 99-27 135-68 40-45 56-98 48-158-5-45-24-84-56-116-46-46-103-66-169-57-49 6-91 28-124 65-37 43-54 93-49 150 2 31 11 59 27 87zM747 1432l67 10 74 8c6 0 9 3 11 7 31 41 61 82 93 122 29 36 60 71 91 108l-2 2c-63 62-131 118-208 162-33 20-68 36-106 46-24 7-48 11-73 9-39-2-69-19-91-50-18-26-28-56-35-87-5-22-8-45-8-68-1-17-2-34-1-51a1115 1115 0 0 1 32-223l4-21 152 26zM594 163c13-21 28-39 49-50 17-9 35-14 55-15 34-1 67 7 99 19 52 20 98 48 143 80 38 27 75 57 109 89l35 32-51 58c-43 51-84 103-123 157-3 4-7 8-9 13-4 7-10 9-16 10-75 6-150 17-224 31l-60 13h-5l-3-11a1171 1171 0 0 1-33-215c-1-18-2-37-1-55 1-44 6-88 23-130 3-9 8-17 12-26zM1580 100c31-4 60-1 86 14 20 12 35 28 46 48 16 28 24 57 30 88 7 40 7 80 6 121-3 66-14 132-29 197l-8 33-30-7c-42-7-85-16-128-22l-123-16h-6c-8 0-13-4-18-10-45-64-94-126-145-185l-38-42 29-29c33-30 68-59 104-85 34-25 69-48 107-67 37-18 75-33 117-38zM1270 1730l-47-43 22-25a2056 2056 0 0 0 163-205c3-5 7-7 12-7 67-7 133-15 199-27l92-18 4 13c12 50 21 101 28 152 4 39 6 78 5 117-1 45-7 90-24 132-10 23-22 44-42 61-21 17-46 25-73 26-34 2-67-6-99-18-48-18-92-44-134-73-37-26-72-54-106-85zM223 857c37-27 76-49 117-68 41-20 83-36 127-50l59-19 4 11c28 89 62 176 101 261 4 8 4 14 0 21-30 67-58 134-82 204l-23 67-4-1c-45-13-89-27-132-45-49-20-96-42-139-71-35-23-67-49-92-82-16-21-28-45-31-72-2-30 7-56 22-81 19-29 45-53 73-75zM1750 810l31-89 35 10c47 14 93 31 138 51 52 24 102 51 146 88 25 21 47 44 63 73 10 19 17 39 16 61 0 20-6 40-16 58-19 34-46 60-77 84-37 28-78 51-120 71-59 27-119 48-181 66l-4 1c-1-3-3-5-3-8-19-60-41-118-65-176-11-29-24-58-37-86-3-7-5-13-1-21 27-57 51-117 73-177l2-6z"/><path d="M725 825c-10 21-21 40-32 60-11-20-66-168-69-188 15-7 174-35 198-34l-24 39-73 123zM1508 1306l71-122 35-65c27 63 50 125 70 189-19 8-176 35-199 34l23-36zM1120 1462l162-1c-40 53-83 104-128 154-46-49-88-100-129-155h31l32 2h32zM1580 823l-75-129-20-32c68 8 133 19 199 34-20 65-43 127-70 190l-34-63zM820 1342l-41-4-124-22-32-7c20-65 43-127 70-190a3182 3182 0 0 0 127 223zM1026 543c40-53 82-104 127-153 46 49 88 101 130 155l-10 1-45-2-94-2-91 2c-2 0-5 2-7 1l-10-2zM821 1341l-1 2 1-2z"/><path fill="#61D9FA" d="M981 1105a201 201 0 0 1 315-244c32 32 51 71 56 116 8 60-8 113-48 158-36 41-81 63-135 67a197 197 0 0 1-188-97z"/></svg>
    </symbol>

    <!-- mongodb icon -->
    <symbol id="mongodb" fill="none" viewBox="0 0 512 512">
      <svg xmlns="http://www.w3.org/2000/svg" xml:space="preserve" viewBox="0 0 512 512"><path d="M311 513H1V1h512v512H311m-61-61 3 16 1 21c0 3 2 7 4 9 3 2 7 2 11 3l-1-11 1-30c0-8 2-16 7-22l3-3 33-32 13-16c10-14 18-29 24-45l13-38c4-18 6-36 5-53-1-14-1-27-3-40l-11-41c-4-10-7-21-12-31-14-30-33-58-57-81-8-9-16-18-21-30l-5-10-3-5h-1c0 12-7 20-14 27l-24 22-9 12-15 20-2 5-18 32-13 35-2 7a305 305 0 0 0-9 93l5 34c4 21 13 41 23 60 12 20 26 39 42 56l30 26 2 10z"/><path fill="#439934" d="m353 171 11 40c2 13 2 26 3 40 1 17-1 35-6 53l-11 1-72 11c-6 1-12 2-17 6l1-37-1-98 86-14 6-2z"/><path fill="#45A538" d="m247 442-29-26c-16-17-30-36-42-56-10-19-19-39-23-60l-5-34-1-14a305 305 0 0 1 13-86l4 8 32 94 51 153 4 6-4 15z"/><path fill="#46A037" d="m353 171-6 2-86 14v-6l-1-41-1-92-1-7V19l5 9c5 12 13 21 21 30 24 23 43 51 57 81 5 10 8 21 12 32z"/><path fill="#409433" d="M261 322c5-4 11-5 17-6l72-11 11-1c-4 13-7 26-12 38-6 16-14 31-24 45l-13 16-33 32-4 2-6-5-5-10-2-10-4-29 1-13 2-48z"/><path fill="#4FAA41" d="m261 322-2 47-5-4-23-70-53-156-5-8 17-32 3-5 11 30 51 153 2 5 5 3-1 37z"/><path fill="#4AA73C" d="m173 131 5 8 53 156 23 70 5 5a104 104 0 0 1-3 23v3l-3 13-2 18-4-6-51-153-32-94-4-8 13-35z"/><path fill="#57AE47" d="m262 285-5-3-2-5-51-153-11-30a524 524 0 0 1 24-32l4 8 35 103 5 9v5l1 98z"/><path fill="#60B24F" d="m261 181-5-8-35-103-4-8 23-22c7-7 14-15 14-27h1l3 6v22l1 7 1 92 1 41z"/><path fill="#CECDB7" d="m269 432 6 6c-4 6-6 14-6 22l-1 30 1 11c-4-1-8-1-11-3-2-2-4-6-4-9l-1-22 5-7 11-28z"/><path fill="#A6AA86" d="m251 427 2-18 3-13v-3l2-9 4 28 2 10-4 6-6 18-4 5-3-9 4-15z"/><path fill="#B6B598" d="m250 451 4-5 6-18 4-6 5 10-11 28-4 7-4-16z"/></svg>
    </symbol>
  </defs>
</svg>